<svg xmlns="http://www.w3.org/2000/svg" viewBox="0 0 512 426.69"><title>Ресурс 1</title><g id="Слой_2" data-name="Слой 2"><g id="Layer_1" data-name="Layer 1"><path d="M501.33,170.67H490.67V85.34A21.35,21.35,0,0,0,469.33,64H42.67a21.33,21.33,0,1,1,0-42.66H480A10.67,10.67,0,1,0,480,0H42.67A42.67,42.67,0,0,0,0,42.67V405.34a21.34,21.34,0,0,0,21.33,21.34h448a21.35,21.35,0,0,0,21.34-21.34V320h10.66A10.67,10.67,0,0,0,512,309.34v-128A10.68,10.68,0,0,0,501.33,170.67Zm-32,234.67h-448v-320h448v85.34H362.66S320,221.79,320,245.34,362.66,320,362.66,320H469.33Zm21.34-106.66H372.92c-3.77-4.86-8.81-11.59-13.84-19-16.73-24.64-17.72-33.73-17.77-34.36s1-9.72,17.77-34.35c5-7.39,10.08-14.13,13.84-19H490.67Z"/><path d="M405.33,213.34a32,32,0,1,0,32,32A32,32,0,0,0,405.33,213.34Zm0,42.67A10.66,10.66,0,1,1,416,245.34,10.7,10.7,0,0,1,405.33,256Z"/><path d="M469.36,32H42.67a10.67,10.67,0,1,0,0,21.34H469.36a10.66,10.66,0,0,0,0-21.33Z"/></g></g></svg>