<svg xmlns="http://www.w3.org/2000/svg" viewBox="0 0 405.33 512"><title>Ресурс 1</title><g id="Слой_2" data-name="Слой 2"><g id="Layer_1" data-name="Layer 1"><path d="M139.42,160.54a10.65,10.65,0,0,0-15.08,0h0l-37.7,37.71L71.55,183.17h0a10.67,10.67,0,0,0-15.09,15.09l22.62,22.63a10.68,10.68,0,0,0,15.09,0l45.25-45.26A10.65,10.65,0,0,0,139.42,160.54Z"/><path d="M139.42,267.2a10.66,10.66,0,0,0-15.08,0h0l-37.7,37.7L71.55,289.84v0a10.67,10.67,0,0,0-15.09,15.08l22.62,22.64a10.67,10.67,0,0,0,15.09,0l45.25-45.27A10.65,10.65,0,0,0,139.42,267.2Z"/><path d="M139.42,373.88a10.65,10.65,0,0,0-15.08,0h0l-37.7,37.72L71.55,396.5a10.67,10.67,0,1,0-15.09,15.09l22.63,22.63a10.7,10.7,0,0,0,15.09,0L139.42,389A10.65,10.65,0,0,0,139.42,373.88Z"/><path d="M341.33,32.68V10.89a10.67,10.67,0,1,0-21.33,0V32.68H277.33V10.89a10.67,10.67,0,1,0-21.33,0V32.68H213.33V10.89a10.67,10.67,0,1,0-21.33,0V32.68H149.33V10.89a10.67,10.67,0,1,0-21.33,0V32.68H85.33V10.89a10.67,10.67,0,1,0-21.33,0V32.68H0V512H405.33V32.68Zm42.67,458H21.33V54H64V74.89a10.67,10.67,0,1,0,21.33,0V54H128V74.89a10.67,10.67,0,1,0,21.33,0V54H192V74.89a10.67,10.67,0,1,0,21.33,0V54H256V74.89a10.67,10.67,0,1,0,21.33,0V54H320V74.89a10.67,10.67,0,1,0,21.33,0V54H384Z"/><path d="M341.33,181.34H192a10.66,10.66,0,1,0,0,21.33H341.33a10.66,10.66,0,1,0,0-21.33Z"/><path d="M341.33,288H192a10.67,10.67,0,1,0,0,21.34H341.33a10.67,10.67,0,1,0,0-21.34Z"/><path d="M341.33,394.66H192A10.67,10.67,0,1,0,192,416H341.33a10.67,10.67,0,1,0,0-21.34Z"/></g></g></svg>