<svg xmlns="http://www.w3.org/2000/svg" viewBox="0 0 407.79 512"><title>Ресурс 1</title><g id="Слой_2" data-name="Слой 2"><g id="Layer_1" data-name="Layer 1"><path d="M397.59,0H10.2A10.2,10.2,0,0,0,0,10.2V397.59a10.2,10.2,0,0,0,10.2,10.2H128.72l-50.27,89a10.2,10.2,0,1,0,17.76,10l55.94-99H255.63l55.94,99a10.2,10.2,0,1,0,17.76-10l-50.27-89H397.59a10.2,10.2,0,0,0,10.2-10.2V10.2A10.2,10.2,0,0,0,397.59,0Zm-10.2,387.39H20.4V20.4h367v367Z"/><path d="M327.78,112.86a10.2,10.2,0,0,0-14.42,0l-5.66,5.66a10.2,10.2,0,0,0,14.43,14.43l5.66-5.66A10.2,10.2,0,0,0,327.78,112.86Z"/><path d="M293.79,146.84a10.2,10.2,0,0,0-14.42,0L193.7,232.51l-29.6-29.6a10.2,10.2,0,0,0-14.43,0L80,272.57A10.2,10.2,0,0,0,94.44,287l62.45-62.45,29.6,29.6a10.2,10.2,0,0,0,14.43,0l92.88-92.88A10.2,10.2,0,0,0,293.79,146.84Z"/></g></g></svg>