<?xml version="1.0" encoding="utf-8"?>
<!-- Generator: Adobe Illustrator 19.1.0, SVG Export Plug-In . SVG Version: 6.00 Build 0)  -->
<svg version="1.1" id="Слой_1" xmlns="http://www.w3.org/2000/svg" xmlns:xlink="http://www.w3.org/1999/xlink" x="0px" y="0px"
	 width="26px" height="25.5px" viewBox="-466 268.5 26 25.5" style="enable-background:new -466 268.5 26 25.5;"
	 xml:space="preserve">
<style type="text/css">
	.st0{fill:#2D6CD5;}
</style>
<path class="st0" d="M-441,294h-24c-0.6,0-1-0.4-1-1v-21.6c0-0.6,0.4-1,1-1h24c0.6,0,1,0.4,1,1V293C-440,293.6-440.4,294-441,294z
	 M-464,292h22v-19.6h-22V292z"/>
<path class="st0" d="M-445.7,274.8c-0.6,0-1-0.4-1-1v-4.3c0-0.6,0.4-1,1-1c0.6,0,1,0.4,1,1v4.3
	C-444.7,274.3-445.2,274.8-445.7,274.8z"/>
<path class="st0" d="M-460.3,274.8c-0.6,0-1-0.4-1-1v-4.3c0-0.6,0.4-1,1-1c0.6,0,1,0.4,1,1v4.3
	C-459.3,274.3-459.7,274.8-460.3,274.8z"/>
<path class="st0" d="M-445.7,279.8h-14.6c-0.6,0-1-0.4-1-1c0-0.6,0.4-1,1-1h14.5c0.6,0,1,0.4,1,1
	C-444.8,279.4-445.2,279.8-445.7,279.8z"/>
</svg>
