<?xml version="1.0" encoding="utf-8"?>
<!-- Generator: Adobe Illustrator 19.1.0, SVG Export Plug-In . SVG Version: 6.00 Build 0)  -->
<svg version="1.1" id="Слой_1" xmlns="http://www.w3.org/2000/svg" xmlns:xlink="http://www.w3.org/1999/xlink" x="0px" y="0px"
	 width="9px" height="5px" viewBox="0 0 9 5" style="enable-background:new 0 0 9 5;" xml:space="preserve">
<style type="text/css">
	.st0{fill:#4D83DC;}
</style>
<path class="st0" d="M4.5,5c0.1,0,0.2,0,0.2-0.1l4.2-4C9,0.9,9,0.8,9,0.7c0-0.1,0-0.1-0.1-0.2L8.5,0.1C8.4,0,8.3,0,8.3,0
	C8.2,0,8.1,0,8,0.1L4.5,3.5L1,0.1C0.9,0,0.8,0,0.7,0C0.7,0,0.6,0,0.5,0.1L0.1,0.5C0,0.6,0,0.6,0,0.7c0,0.1,0,0.1,0.1,0.2l4.2,4
	C4.3,5,4.4,5,4.5,5z"/>
</svg>
