<?xml version="1.0" encoding="utf-8"?>
<!-- Generator: Adobe Illustrator 19.1.0, SVG Export Plug-In . SVG Version: 6.00 Build 0)  -->
<svg version="1.1" id="Слой_1" xmlns="http://www.w3.org/2000/svg" xmlns:xlink="http://www.w3.org/1999/xlink" x="0px" y="0px"
	 width="65px" height="70px" viewBox="0 0 65 70" style="enable-background:new 0 0 65 70;" xml:space="preserve">
<style type="text/css">
	
		.st0{clip-path:url(#SVGID_2_);fill:none;stroke:#2E6DD6;stroke-width:2;stroke-linecap:round;stroke-linejoin:round;stroke-miterlimit:22.926;}
	
		.st1{clip-path:url(#SVGID_4_);fill:none;stroke:#FFFFFF;stroke-width:2;stroke-linecap:round;stroke-linejoin:round;stroke-miterlimit:22.926;}
	
		.st2{clip-path:url(#SVGID_6_);fill:none;stroke:#2E6DD6;stroke-width:2;stroke-linecap:round;stroke-linejoin:round;stroke-miterlimit:22.926;}
	
		.st3{clip-path:url(#SVGID_8_);fill:none;stroke:#2E6DD6;stroke-width:2;stroke-linecap:round;stroke-linejoin:round;stroke-miterlimit:22.926;}
</style>
<g>
	<g>
		<g>
			<g>
				<defs>
					<rect id="SVGID_1_" y="10.6" width="51.2" height="48.7"/>
				</defs>
				<clipPath id="SVGID_2_">
					<use xlink:href="#SVGID_1_"  style="overflow:visible;"/>
				</clipPath>
				<path class="st0" d="M39.3,30.7l0.3-13.8l-19.3-5.3L1,16.9l0.4,19.6c0.2,9.4,4.3,16.3,18.8,21.8c6-2.3,10.2-4.8,13.1-7.6"/>
			</g>
		</g>
	</g>
	<g>
		<g>
			<g>
				<defs>
					<rect id="SVGID_3_" y="10.6" width="51.2" height="48.7"/>
				</defs>
				<clipPath id="SVGID_4_">
					<use xlink:href="#SVGID_3_"  style="overflow:visible;"/>
				</clipPath>
				<path class="st1" d="M20.3,21.1l-10.2,3.4l0.2,11.2c0.1,5,2.3,9.5,10,12.4"/>
			</g>
		</g>
	</g>
	<g>
		<g>
			<g>
				<defs>
					<rect id="SVGID_5_" y="10.6" width="51.2" height="48.7"/>
				</defs>
				<clipPath id="SVGID_6_">
					<use xlink:href="#SVGID_5_"  style="overflow:visible;"/>
				</clipPath>
				<path class="st2" d="M36.7,51.2c5.7,0,10.4-4.7,10.4-10.4s-4.7-10.4-10.4-10.4c-5.7,0-10.4,4.6-10.4,10.4
					C26.4,46.5,31,51.2,36.7,51.2z"/>
			</g>
		</g>
	</g>
	<g>
		<g>
			<g>
				<defs>
					<rect id="SVGID_7_" y="10.6" width="51.2" height="48.7"/>
				</defs>
				<clipPath id="SVGID_8_">
					<use xlink:href="#SVGID_7_"  style="overflow:visible;"/>
				</clipPath>
				<line class="st3" x1="43.7" y1="48.7" x2="50.2" y2="55.3"/>
			</g>
		</g>
	</g>
</g>
</svg>
