<?xml version="1.0" encoding="utf-8"?>
<!-- Generator: Adobe Illustrator 19.1.0, SVG Export Plug-In . SVG Version: 6.00 Build 0)  -->
<svg version="1.1" id="Слой_1" xmlns="http://www.w3.org/2000/svg" xmlns:xlink="http://www.w3.org/1999/xlink" x="0px" y="0px"
	 width="65px" height="70px" viewBox="0 0 65 70" style="enable-background:new 0 0 65 70;" xml:space="preserve">
<style type="text/css">
	.st0{clip-path:url(#SVGID_2_);fill:#FFFFFF;}
	
		.st1{clip-path:url(#SVGID_4_);fill:none;stroke:#2E6DD6;stroke-width:2;stroke-linecap:round;stroke-linejoin:round;stroke-miterlimit:22.926;}
	
		.st2{clip-path:url(#SVGID_6_);fill:none;stroke:#2E6DD6;stroke-width:2;stroke-linecap:round;stroke-linejoin:round;stroke-miterlimit:22.926;}
	
		.st3{clip-path:url(#SVGID_8_);fill:none;stroke:#FFFFFF;stroke-width:2;stroke-linecap:round;stroke-linejoin:round;stroke-miterlimit:22.926;}
</style>
<g>
	<g>
		<g>
			<g>
				<defs>
					<rect id="SVGID_1_" y="4.9" width="55.1" height="62.7"/>
				</defs>
				<clipPath id="SVGID_2_">
					<use xlink:href="#SVGID_1_"  style="overflow:visible;"/>
				</clipPath>
				<path class="st0" d="M8.3,20.8h1.2V15H8.3l-1.5,1v1.1l1.4-1h0.1V20.8z M13.7,21c1.4,0,2.3-1.1,2.3-3.1c0-1.9-0.9-3.1-2.3-3.1
					s-2.3,1.1-2.3,3.1C11.4,19.8,12.3,21,13.7,21 M13.7,20c-0.7,0-1.1-0.7-1.1-2.1c0-1.4,0.4-2.1,1.1-2.1s1.1,0.7,1.1,2.1
					C14.8,19.3,14.4,20,13.7,20 M18.9,20.8h1.2V15h-1.2l-1.5,1v1.1l1.4-1h0.1V20.8z M24.3,21c1.4,0,2.3-1.1,2.3-3.1
					c0-1.9-0.9-3.1-2.3-3.1S22,15.9,22,17.9C22,19.8,22.9,21,24.3,21 M24.3,20c-0.7,0-1.1-0.7-1.1-2.1c0-1.4,0.4-2.1,1.1-2.1
					s1.1,0.7,1.1,2.1C25.4,19.3,25,20,24.3,20 M29.5,20.8h1.2V15h-1.2L28,16v1.1l1.4-1h0.1V20.8z M9.1,30.8c1.4,0,2.3-1.1,2.3-3.1
					c0-1.9-0.9-3.1-2.3-3.1s-2.3,1.1-2.3,3.1S7.7,30.8,9.1,30.8 M9.1,29.8c-0.7,0-1.1-0.7-1.1-2.1c0-1.4,0.4-2.1,1.1-2.1
					s1.1,0.7,1.1,2.1C10.2,29.1,9.8,29.8,9.1,29.8 M13.9,30.7h1.2v-5.8h-1.2l-1.5,1V27l1.4-1h0.1V30.7z M19,30.8
					c1.4,0,2.3-1.1,2.3-3.1c0-1.9-0.9-3.1-2.3-3.1s-2.3,1.1-2.3,3.1S17.6,30.8,19,30.8 M19,29.8c-0.7,0-1.1-0.7-1.1-2.1
					c0-1.4,0.4-2.1,1.1-2.1s1.1,0.7,1.1,2.1S19.7,29.8,19,29.8 M23.8,30.7H25v-5.8h-1.2l-1.5,1V27l1.4-1h0.1V30.7z M28.9,30.8
					c1.4,0,2.3-1.1,2.3-3.1c0-1.9-0.9-3.1-2.3-3.1s-2.3,1.1-2.3,3.1S27.5,30.8,28.9,30.8 M28.9,29.8c-0.7,0-1.1-0.7-1.1-2.1
					c0-1.4,0.4-2.1,1.1-2.1s1.1,0.7,1.1,2.1S29.6,29.8,28.9,29.8 M8.3,40.5h1.2v-5.8H8.3l-1.5,1v1.2l1.4-1h0.1V40.5z M13.7,40.7
					c1.4,0,2.3-1.1,2.3-3.1c0-1.9-0.9-3.1-2.3-3.1s-2.3,1.1-2.3,3.1S12.3,40.7,13.7,40.7 M13.7,39.7c-0.7,0-1.1-0.7-1.1-2.1
					c0-1.4,0.4-2.1,1.1-2.1s1.1,0.7,1.1,2.1S14.4,39.7,13.7,39.7 M18.9,40.5h1.2v-5.8h-1.2l-1.5,1v1.2l1.4-1h0.1V40.5z"/>
			</g>
		</g>
	</g>
	<g>
		<g>
			<g>
				<defs>
					<rect id="SVGID_3_" y="4.9" width="55.1" height="62.7"/>
				</defs>
				<clipPath id="SVGID_4_">
					<use xlink:href="#SVGID_3_"  style="overflow:visible;"/>
				</clipPath>
				<polyline class="st1" points="19.8,49.6 1,49.6 1,5.9 37,5.9 37,32.3 				"/>
			</g>
		</g>
	</g>
	<g>
		<g>
			<g>
				<defs>
					<rect id="SVGID_5_" y="4.9" width="55.1" height="62.7"/>
				</defs>
				<clipPath id="SVGID_6_">
					<use xlink:href="#SVGID_5_"  style="overflow:visible;"/>
				</clipPath>
				<path class="st2" d="M35.2,32.5h3.7l0.9,4.9c1.4,0.3,2.7,0.9,3.9,1.6l4.1-2.8l2.7,2.7L47.6,43c0.8,1.2,1.3,2.5,1.6,3.9l4.9,0.9
					v3.7l-4.9,0.9c-0.3,1.4-0.9,2.7-1.6,3.9l2.9,4.1l-2.7,2.7l-4.1-2.9c-1.2,0.8-2.5,1.3-3.9,1.6l-0.9,4.9h-3.7l-0.9-4.9
					c-1.4-0.3-2.7-0.9-3.9-1.6l-4.1,2.9l-2.7-2.7l2.8-4.1c-0.8-1.2-1.3-2.5-1.6-3.9l-4.9-0.9v-3.7l4.9-0.9c0.3-1.4,0.9-2.7,1.6-3.9
					l-2.8-4.1l2.7-2.7l4.1,2.8c1.2-0.8,2.5-1.3,3.9-1.6L35.2,32.5z"/>
			</g>
		</g>
	</g>
	<g>
		<g>
			<g>
				<defs>
					<rect id="SVGID_7_" y="4.9" width="55.1" height="62.7"/>
				</defs>
				<clipPath id="SVGID_8_">
					<use xlink:href="#SVGID_7_"  style="overflow:visible;"/>
				</clipPath>
				<path class="st3" d="M37,55.4c-3.2,0-5.8-2.6-5.8-5.8s2.6-5.8,5.8-5.8s5.8,2.6,5.8,5.8"/>
			</g>
		</g>
	</g>
</g>
</svg>
