<?xml version="1.0" encoding="utf-8"?>
<!-- Generator: Adobe Illustrator 19.1.0, SVG Export Plug-In . SVG Version: 6.00 Build 0)  -->
<svg version="1.1" id="Слой_1" xmlns="http://www.w3.org/2000/svg" xmlns:xlink="http://www.w3.org/1999/xlink" x="0px" y="0px"
	 width="102px" height="102px" viewBox="0 0 102 102" style="enable-background:new 0 0 102 102;" xml:space="preserve">
<style type="text/css">
	.st0{fill:#FFFFFF;}
</style>
<g>
	<path class="st0" d="M51,3c26.5,0,48,21.5,48,48c0,26.5-21.5,48-48,48C24.5,99,3,77.5,3,51C3,24.5,24.5,3,51,3 M51,1
		C23.4,1,1,23.4,1,51c0,27.6,22.4,50,50,50c27.6,0,50-22.4,50-50C101,23.4,78.6,1,51,1L51,1z"/>
</g>
<g>
	<path class="st0" d="M39,31.6l31.3,19.9L39,71.4V31.6 M37,28v47l37-23.5L37,28L37,28z"/>
</g>
</svg>
