<?xml version="1.0" encoding="utf-8"?>
<!-- Generator: Adobe Illustrator 19.1.0, SVG Export Plug-In . SVG Version: 6.00 Build 0)  -->
<svg version="1.1" id="Слой_1" xmlns="http://www.w3.org/2000/svg" xmlns:xlink="http://www.w3.org/1999/xlink" x="0px" y="0px"
	 width="65px" height="70px" viewBox="0 0 65 70" style="enable-background:new 0 0 65 70;" xml:space="preserve">
<style type="text/css">
	
		.st0{clip-path:url(#SVGID_2_);fill:none;stroke:#FFFFFF;stroke-width:2;stroke-linecap:round;stroke-linejoin:round;stroke-miterlimit:22.926;}
	
		.st1{clip-path:url(#SVGID_4_);fill:none;stroke:#FFFFFF;stroke-width:2;stroke-linecap:round;stroke-linejoin:round;stroke-miterlimit:22.926;}
	
		.st2{clip-path:url(#SVGID_6_);fill:none;stroke:#FFFFFF;stroke-width:2;stroke-linecap:round;stroke-linejoin:round;stroke-miterlimit:22.926;}
	
		.st3{clip-path:url(#SVGID_8_);fill:none;stroke:#FFFFFF;stroke-width:2;stroke-linecap:round;stroke-linejoin:round;stroke-miterlimit:22.926;}
	
		.st4{clip-path:url(#SVGID_10_);fill:none;stroke:#FCFCFC;stroke-width:2;stroke-linecap:round;stroke-linejoin:round;stroke-miterlimit:10;}
	
		.st5{clip-path:url(#SVGID_12_);fill:none;stroke:#FFFFFF;stroke-width:2;stroke-linecap:round;stroke-linejoin:round;stroke-miterlimit:10;}
	
		.st6{clip-path:url(#SVGID_14_);fill:none;stroke:#FFFFFF;stroke-width:2;stroke-linecap:round;stroke-linejoin:round;stroke-miterlimit:10;}
</style>
<g>
	<g>
		<defs>
			<rect id="SVGID_1_" y="13.4" width="39.1" height="41.8"/>
		</defs>
		<clipPath id="SVGID_2_">
			<use xlink:href="#SVGID_1_"  style="overflow:visible;"/>
		</clipPath>
		<path class="st0" d="M9.5,14.4h28.6v35.7c0,2.2-1.8,4-3.9,4H5c-2.2,0-3.9-1.8-3.9-4V38.6"/>
	</g>
	<g>
		<defs>
			<rect id="SVGID_3_" y="13.4" width="39.1" height="41.8"/>
		</defs>
		<clipPath id="SVGID_4_">
			<use xlink:href="#SVGID_3_"  style="overflow:visible;"/>
		</clipPath>
		<path class="st1" d="M9.5,14.4v35.7c0,2.2-1.8,4-3.9,4"/>
	</g>
	<g>
		<defs>
			<rect id="SVGID_5_" y="13.4" width="39.1" height="41.8"/>
		</defs>
		<clipPath id="SVGID_6_">
			<use xlink:href="#SVGID_5_"  style="overflow:visible;"/>
		</clipPath>
		<line class="st2" x1="9.9" y1="23.2" x2="38.1" y2="23.2"/>
	</g>
	<g>
		<defs>
			<rect id="SVGID_7_" y="13.4" width="39.1" height="41.8"/>
		</defs>
		<clipPath id="SVGID_8_">
			<use xlink:href="#SVGID_7_"  style="overflow:visible;"/>
		</clipPath>
		<line class="st3" x1="1.2" y1="38.5" x2="9.5" y2="38.5"/>
	</g>
	<g>
		<defs>
			<rect id="SVGID_9_" y="13.4" width="39.1" height="41.8"/>
		</defs>
		<clipPath id="SVGID_10_">
			<use xlink:href="#SVGID_9_"  style="overflow:visible;"/>
		</clipPath>
		<path class="st4" d="M27.5,36.6h-11c-0.5,0-0.8-0.4-0.8-0.9v-4.3c0-0.5,0.4-0.9,0.8-0.9h16c0.5,0,0.8,0.4,0.8,0.9V34"/>
	</g>
	<g>
		<defs>
			<rect id="SVGID_11_" y="13.4" width="39.1" height="41.8"/>
		</defs>
		<clipPath id="SVGID_12_">
			<use xlink:href="#SVGID_11_"  style="overflow:visible;"/>
		</clipPath>
		<line class="st5" x1="15.7" y1="42.1" x2="33.4" y2="42.1"/>
	</g>
	<g>
		<defs>
			<rect id="SVGID_13_" y="13.4" width="39.1" height="41.8"/>
		</defs>
		<clipPath id="SVGID_14_">
			<use xlink:href="#SVGID_13_"  style="overflow:visible;"/>
		</clipPath>
		<line class="st6" x1="15.7" y1="46.3" x2="33.4" y2="46.3"/>
	</g>
</g>
</svg>
