<?xml version="1.0" encoding="utf-8"?>
<!-- Generator: Adobe Illustrator 19.1.0, SVG Export Plug-In . SVG Version: 6.00 Build 0)  -->
<svg version="1.1" id="Слой_1" xmlns="http://www.w3.org/2000/svg" xmlns:xlink="http://www.w3.org/1999/xlink" x="0px" y="0px"
	 width="65px" height="70px" viewBox="0 0 65 70" style="enable-background:new 0 0 65 70;" xml:space="preserve">
<style type="text/css">
	
		.st0{clip-path:url(#SVGID_2_);fill:none;stroke:#FFFFFF;stroke-width:2;stroke-linecap:round;stroke-linejoin:round;stroke-miterlimit:22.926;}
	
		.st1{clip-path:url(#SVGID_4_);fill:none;stroke:#FFFFFF;stroke-width:2;stroke-linecap:round;stroke-linejoin:round;stroke-miterlimit:22.926;}
	
		.st2{clip-path:url(#SVGID_6_);fill:none;stroke:#2E6DD6;stroke-width:2;stroke-linecap:round;stroke-linejoin:round;stroke-miterlimit:22.926;}
</style>
<g>
	<g>
		<g>
			<g>
				<defs>
					<rect id="SVGID_1_" y="10.7" width="41.8" height="49.9"/>
				</defs>
				<clipPath id="SVGID_2_">
					<use xlink:href="#SVGID_1_"  style="overflow:visible;"/>
				</clipPath>
				<path class="st0" d="M19.6,21.6h2.6l0.6,3.4c1,0.2,1.9,0.6,2.8,1.1l2.9-2l1.9,1.9l-2,2.9c0.5,0.8,0.9,1.8,1.1,2.8l3.4,0.6v2.6
					l-3.4,0.6c-0.2,1-0.6,1.9-1.1,2.8l2,2.9l-1.9,1.9l-2.9-2c-0.8,0.5-1.8,0.9-2.8,1.1l-0.6,3.4h-2.6L19,42.2
					c-1-0.2-1.9-0.6-2.8-1.1l-2.9,2l-1.9-1.9l2-2.9c-0.5-0.8-0.9-1.8-1.1-2.8l-3.4-0.6v-2.6l3.4-0.6c0.2-1,0.6-1.9,1.1-2.8l-2-2.9
					l1.9-1.9l2.9,2C17,25.6,18,25.2,19,25L19.6,21.6z"/>
			</g>
		</g>
	</g>
	<g>
		<g>
			<g>
				<defs>
					<rect id="SVGID_3_" y="10.7" width="41.8" height="49.9"/>
				</defs>
				<clipPath id="SVGID_4_">
					<use xlink:href="#SVGID_3_"  style="overflow:visible;"/>
				</clipPath>
				<path class="st1" d="M20.9,36.7c-1.7,0-3.1-1.4-3.1-3.1s1.4-3.1,3.1-3.1s3.1,1.4,3.1,3.1"/>
			</g>
		</g>
	</g>
	<g>
		<g>
			<g>
				<defs>
					<rect id="SVGID_5_" y="10.7" width="41.8" height="49.9"/>
				</defs>
				<clipPath id="SVGID_6_">
					<use xlink:href="#SVGID_5_"  style="overflow:visible;"/>
				</clipPath>
				<path class="st2" d="M40.7,51.8c0.1,3.2-1.8,4.6-5.1,4.6H25.4c-2.4,0-3.8,1.7-4.5,3.2c-0.7-1.4-2.3-3.3-4.5-3.2H5.7
					C2.4,56.4,1,55,1,51.8V11.7h39.8L40.7,51.8z"/>
			</g>
		</g>
	</g>
</g>
</svg>
