<?xml version="1.0" encoding="utf-8"?>
<!-- Generator: Adobe Illustrator 19.1.0, SVG Export Plug-In . SVG Version: 6.00 Build 0)  -->
<svg version="1.1" id="Слой_1" xmlns="http://www.w3.org/2000/svg" xmlns:xlink="http://www.w3.org/1999/xlink" x="0px" y="0px"
	 width="794.1px" height="62.8px" viewBox="-354 499.6 794.1 62.8" style="enable-background:new -354 499.6 794.1 62.8;"
	 xml:space="preserve">
<style type="text/css">
	.st0{clip-path:url(#SVGID_2_);fill:#FFFFFF;}
	
		.st1{clip-path:url(#SVGID_4_);fill:none;stroke:#2E6DD6;stroke-width:2;stroke-linecap:round;stroke-linejoin:round;stroke-miterlimit:22.926;}
	
		.st2{clip-path:url(#SVGID_6_);fill:none;stroke:#2E6DD6;stroke-width:2;stroke-linecap:round;stroke-linejoin:round;stroke-miterlimit:22.926;}
	
		.st3{clip-path:url(#SVGID_8_);fill:none;stroke:#FFFFFF;stroke-width:2;stroke-linecap:round;stroke-linejoin:round;stroke-miterlimit:22.926;}
	
		.st4{clip-path:url(#SVGID_10_);fill:none;stroke:#FFFFFF;stroke-width:2;stroke-linecap:round;stroke-linejoin:round;stroke-miterlimit:22.926;}
	
		.st5{clip-path:url(#SVGID_12_);fill:none;stroke:#FFFFFF;stroke-width:2;stroke-linecap:round;stroke-linejoin:round;stroke-miterlimit:22.926;}
	
		.st6{clip-path:url(#SVGID_14_);fill:none;stroke:#2E6DD6;stroke-width:2;stroke-linecap:round;stroke-linejoin:round;stroke-miterlimit:22.926;}
	
		.st7{clip-path:url(#SVGID_16_);fill:none;stroke:#2E6DD6;stroke-width:2;stroke-linecap:round;stroke-linejoin:round;stroke-miterlimit:22.926;}
	
		.st8{clip-path:url(#SVGID_18_);fill:none;stroke:#2E6DD6;stroke-width:2;stroke-linecap:round;stroke-linejoin:round;stroke-miterlimit:22.926;}
	
		.st9{clip-path:url(#SVGID_20_);fill:none;stroke:#2E6DD6;stroke-width:2;stroke-linecap:round;stroke-linejoin:round;stroke-miterlimit:22.926;}
	
		.st10{clip-path:url(#SVGID_22_);fill:none;stroke:#FFFFFF;stroke-width:2;stroke-linecap:round;stroke-linejoin:round;stroke-miterlimit:22.926;}
	
		.st11{clip-path:url(#SVGID_24_);fill:none;stroke:#FFFFFF;stroke-width:2;stroke-linecap:round;stroke-linejoin:round;stroke-miterlimit:22.926;}
	
		.st12{clip-path:url(#SVGID_26_);fill:none;stroke:#FFFFFF;stroke-width:2;stroke-linecap:round;stroke-linejoin:round;stroke-miterlimit:22.926;}
	
		.st13{clip-path:url(#SVGID_28_);fill:none;stroke:#FFFFFF;stroke-width:2;stroke-linecap:round;stroke-linejoin:round;stroke-miterlimit:22.926;}
	
		.st14{clip-path:url(#SVGID_30_);fill:none;stroke:#2E6DD6;stroke-width:2;stroke-linecap:round;stroke-linejoin:round;stroke-miterlimit:22.926;}
	
		.st15{clip-path:url(#SVGID_32_);fill:none;stroke:#FFFFFF;stroke-width:2;stroke-linecap:round;stroke-linejoin:round;stroke-miterlimit:10;}
	
		.st16{clip-path:url(#SVGID_34_);fill:none;stroke:#2E6DD6;stroke-width:2;stroke-linecap:round;stroke-linejoin:round;stroke-miterlimit:22.926;}
	
		.st17{clip-path:url(#SVGID_36_);fill:none;stroke:#2E6DD6;stroke-width:2;stroke-linecap:round;stroke-linejoin:round;stroke-miterlimit:22.926;}
	
		.st18{clip-path:url(#SVGID_38_);fill:none;stroke:#2E6DD6;stroke-width:2;stroke-linecap:round;stroke-linejoin:round;stroke-miterlimit:22.926;}
	
		.st19{clip-path:url(#SVGID_40_);fill:none;stroke:#2E6DD6;stroke-width:2;stroke-linecap:round;stroke-linejoin:round;stroke-miterlimit:22.926;}
	
		.st20{clip-path:url(#SVGID_42_);fill:none;stroke:#FFFFFF;stroke-width:2;stroke-linecap:round;stroke-linejoin:round;stroke-miterlimit:22.926;}
	
		.st21{clip-path:url(#SVGID_44_);fill:none;stroke:#2E6DD6;stroke-width:2;stroke-linecap:round;stroke-linejoin:round;stroke-miterlimit:22.926;}
	
		.st22{clip-path:url(#SVGID_46_);fill:none;stroke:#FFFFFF;stroke-width:2;stroke-linecap:round;stroke-linejoin:round;stroke-miterlimit:22.926;}
	
		.st23{clip-path:url(#SVGID_48_);fill:none;stroke:#2E6DD6;stroke-width:2;stroke-linecap:round;stroke-linejoin:round;stroke-miterlimit:22.926;}
	
		.st24{clip-path:url(#SVGID_50_);fill:none;stroke:#2E6DD6;stroke-width:2;stroke-linecap:round;stroke-linejoin:round;stroke-miterlimit:22.926;}
	
		.st25{clip-path:url(#SVGID_52_);fill:none;stroke:#FFFFFF;stroke-width:2;stroke-linecap:round;stroke-linejoin:round;stroke-miterlimit:22.926;}
	.st26{fill:none;stroke:#FFFFFF;stroke-width:2;stroke-linecap:round;stroke-linejoin:round;stroke-miterlimit:22.926;}
	
		.st27{clip-path:url(#SVGID_54_);fill:none;stroke:#FFFFFF;stroke-width:2;stroke-linecap:round;stroke-linejoin:round;stroke-miterlimit:22.926;}
	
		.st28{clip-path:url(#SVGID_54_);fill:none;stroke:#FCFCFC;stroke-width:2;stroke-linecap:round;stroke-linejoin:round;stroke-miterlimit:10;}
	
		.st29{clip-path:url(#SVGID_54_);fill:none;stroke:#FFFFFF;stroke-width:2;stroke-linecap:round;stroke-linejoin:round;stroke-miterlimit:10;}
</style>
<g>
	<g>
		<g>
			<defs>
				<rect id="SVGID_1_" x="195" y="499.6" width="55.1" height="62.7"/>
			</defs>
			<clipPath id="SVGID_2_">
				<use xlink:href="#SVGID_1_"  style="overflow:visible;"/>
			</clipPath>
			<path class="st0" d="M203.3,515.5h1.2v-5.8h-1.2l-1.5,1v1.1l1.4-1h0.1V515.5z M208.7,515.7c1.4,0,2.3-1.1,2.3-3.1
				c0-1.9-0.9-3.1-2.3-3.1s-2.3,1.1-2.3,3.1C206.4,514.5,207.3,515.7,208.7,515.7 M208.7,514.7c-0.7,0-1.1-0.7-1.1-2.1
				c0-1.4,0.4-2.1,1.1-2.1s1.1,0.7,1.1,2.1C209.8,514,209.4,514.7,208.7,514.7 M213.9,515.5h1.2v-5.8h-1.2l-1.5,1v1.1l1.4-1h0.1
				V515.5z M219.3,515.7c1.4,0,2.3-1.1,2.3-3.1c0-1.9-0.9-3.1-2.3-3.1s-2.3,1.1-2.3,3.1C217,514.5,217.9,515.7,219.3,515.7
				 M219.3,514.7c-0.7,0-1.1-0.7-1.1-2.1c0-1.4,0.4-2.1,1.1-2.1s1.1,0.7,1.1,2.1S220,514.7,219.3,514.7 M224.5,515.5h1.2v-5.8h-1.2
				l-1.5,1v1.1l1.4-1h0.1V515.5z M204.1,525.5c1.4,0,2.3-1.1,2.3-3.1c0-1.9-0.9-3.1-2.3-3.1s-2.3,1.1-2.3,3.1
				S202.7,525.5,204.1,525.5 M204.1,524.5c-0.7,0-1.1-0.7-1.1-2.1c0-1.4,0.4-2.1,1.1-2.1s1.1,0.7,1.1,2.1
				C205.2,523.8,204.8,524.5,204.1,524.5 M208.9,525.4h1.2v-5.8h-1.2l-1.5,1v1.1l1.4-1h0.1V525.4z M214,525.5c1.4,0,2.3-1.1,2.3-3.1
				c0-1.9-0.9-3.1-2.3-3.1s-2.3,1.1-2.3,3.1S212.6,525.5,214,525.5 M214,524.5c-0.7,0-1.1-0.7-1.1-2.1c0-1.4,0.4-2.1,1.1-2.1
				s1.1,0.7,1.1,2.1C215.1,523.8,214.7,524.5,214,524.5 M218.8,525.4h1.2v-5.8h-1.2l-1.5,1v1.1l1.4-1h0.1V525.4z M223.9,525.5
				c1.4,0,2.3-1.1,2.3-3.1c0-1.9-0.9-3.1-2.3-3.1s-2.3,1.1-2.3,3.1S222.5,525.5,223.9,525.5 M223.9,524.5c-0.7,0-1.1-0.7-1.1-2.1
				c0-1.4,0.4-2.1,1.1-2.1s1.1,0.7,1.1,2.1C225,523.8,224.6,524.5,223.9,524.5 M203.3,535.2h1.2v-5.8h-1.2l-1.5,1v1.2l1.4-1h0.1
				V535.2z M208.7,535.4c1.4,0,2.3-1.1,2.3-3.1c0-1.9-0.9-3.1-2.3-3.1s-2.3,1.1-2.3,3.1S207.3,535.4,208.7,535.4 M208.7,534.4
				c-0.7,0-1.1-0.7-1.1-2.1c0-1.4,0.4-2.1,1.1-2.1s1.1,0.7,1.1,2.1C209.8,533.7,209.4,534.4,208.7,534.4 M213.9,535.2h1.2v-5.8h-1.2
				l-1.5,1v1.2l1.4-1h0.1V535.2z"/>
		</g>
	</g>
	<g>
		<g>
			<defs>
				<rect id="SVGID_3_" x="195" y="499.6" width="55.1" height="62.7"/>
			</defs>
			<clipPath id="SVGID_4_">
				<use xlink:href="#SVGID_3_"  style="overflow:visible;"/>
			</clipPath>
			<polyline class="st1" points="214.8,544.3 196,544.3 196,500.6 232,500.6 232,527 			"/>
		</g>
	</g>
	<g>
		<g>
			<defs>
				<rect id="SVGID_5_" x="195" y="499.6" width="55.1" height="62.7"/>
			</defs>
			<clipPath id="SVGID_6_">
				<use xlink:href="#SVGID_5_"  style="overflow:visible;"/>
			</clipPath>
			<path class="st2" d="M230.2,527.2h3.7l0.9,4.9c1.4,0.3,2.7,0.9,3.9,1.6l4.1-2.8l2.7,2.7l-2.9,4.1c0.8,1.2,1.3,2.5,1.6,3.9
				l4.9,0.9v3.7l-4.9,0.9c-0.3,1.4-0.9,2.7-1.6,3.9l2.9,4.1l-2.7,2.7l-4.1-2.9c-1.2,0.8-2.5,1.3-3.9,1.6l-0.9,4.9h-3.7l-0.9-4.9
				c-1.4-0.3-2.7-0.9-3.9-1.6l-4.1,2.9l-2.7-2.7l2.8-4.1c-0.8-1.2-1.3-2.5-1.6-3.9l-4.9-0.9v-3.7l4.9-0.9c0.3-1.4,0.9-2.7,1.6-3.9
				l-2.8-4.1l2.7-2.7l4.1,2.8c1.2-0.8,2.5-1.3,3.9-1.6L230.2,527.2z"/>
		</g>
	</g>
	<g>
		<g>
			<defs>
				<rect id="SVGID_7_" x="195" y="499.6" width="55.1" height="62.7"/>
			</defs>
			<clipPath id="SVGID_8_">
				<use xlink:href="#SVGID_7_"  style="overflow:visible;"/>
			</clipPath>
			<path class="st3" d="M232,550.1c-3.2,0-5.8-2.6-5.8-5.8c0-3.2,2.6-5.8,5.8-5.8s5.8,2.6,5.8,5.8"/>
		</g>
	</g>
</g>
<g>
	<g>
		<g>
			<defs>
				<rect id="SVGID_9_" x="85" y="507.4" width="41.8" height="49.9"/>
			</defs>
			<clipPath id="SVGID_10_">
				<use xlink:href="#SVGID_9_"  style="overflow:visible;"/>
			</clipPath>
			<path class="st4" d="M104.6,518.3h2.6l0.6,3.4c1,0.2,1.9,0.6,2.8,1.1l2.9-2l1.9,1.9l-2,2.9c0.5,0.8,0.9,1.8,1.1,2.8l3.4,0.6v2.6
				l-3.4,0.6c-0.2,1-0.6,1.9-1.1,2.8l2,2.9l-1.9,1.9l-2.9-2c-0.8,0.5-1.8,0.9-2.8,1.1l-0.6,3.4h-2.6l-0.6-3.4
				c-1-0.2-1.9-0.6-2.8-1.1l-2.9,2l-1.9-1.9l2-2.9c-0.5-0.8-0.9-1.8-1.1-2.8l-3.4-0.6V529l3.4-0.6c0.2-1,0.6-1.9,1.1-2.8l-2-2.9
				l1.9-1.9l2.9,2c0.8-0.5,1.8-0.9,2.8-1.1L104.6,518.3z"/>
		</g>
	</g>
	<g>
		<g>
			<defs>
				<rect id="SVGID_11_" x="85" y="507.4" width="41.8" height="49.9"/>
			</defs>
			<clipPath id="SVGID_12_">
				<use xlink:href="#SVGID_11_"  style="overflow:visible;"/>
			</clipPath>
			<path class="st5" d="M105.9,533.4c-1.7,0-3.1-1.4-3.1-3.1s1.4-3.1,3.1-3.1s3.1,1.4,3.1,3.1"/>
		</g>
	</g>
	<g>
		<g>
			<defs>
				<rect id="SVGID_13_" x="85" y="507.4" width="41.8" height="49.9"/>
			</defs>
			<clipPath id="SVGID_14_">
				<use xlink:href="#SVGID_13_"  style="overflow:visible;"/>
			</clipPath>
			<path class="st6" d="M125.7,548.5c0.1,3.2-1.8,4.6-5.1,4.6h-10.2c-2.4,0-3.8,1.7-4.5,3.2c-0.7-1.4-2.3-3.3-4.5-3.2H90.7
				c-3.3,0-4.7-1.4-4.7-4.6v-40.1h39.8L125.7,548.5z"/>
		</g>
	</g>
</g>
<g>
	<g>
		<g>
			<defs>
				<rect id="SVGID_15_" x="-25" y="505.8" width="38" height="51.5"/>
			</defs>
			<clipPath id="SVGID_16_">
				<use xlink:href="#SVGID_15_"  style="overflow:visible;"/>
			</clipPath>
			<polyline class="st7" points="-15.2,550.5 -24,550.5 -24,506.8 12,506.8 12,550.5 -5.5,550.5 			"/>
		</g>
	</g>
	<g>
		<g>
			<defs>
				<rect id="SVGID_17_" x="-25" y="505.8" width="38" height="51.5"/>
			</defs>
			<clipPath id="SVGID_18_">
				<use xlink:href="#SVGID_17_"  style="overflow:visible;"/>
			</clipPath>
			<polyline class="st8" points="-5.9,545.5 -5.9,556.3 -10.3,553.9 -14.8,556.3 -14.8,545.5 			"/>
		</g>
	</g>
	<g>
		<g>
			<defs>
				<rect id="SVGID_19_" x="-25" y="505.8" width="38" height="51.5"/>
			</defs>
			<clipPath id="SVGID_20_">
				<use xlink:href="#SVGID_19_"  style="overflow:visible;"/>
			</clipPath>
			<path class="st9" d="M-10.3,547.9c2.9,0,5.2-2.4,5.2-5.2c0-2.9-2.4-5.2-5.2-5.2s-5.2,2.4-5.2,5.2
				C-15.6,545.6-13.2,547.9-10.3,547.9"/>
		</g>
	</g>
	<g>
		<g>
			<defs>
				<rect id="SVGID_21_" x="-25" y="505.8" width="38" height="51.5"/>
			</defs>
			<clipPath id="SVGID_22_">
				<use xlink:href="#SVGID_21_"  style="overflow:visible;"/>
			</clipPath>
			<line class="st10" x1="-16.6" y1="526.3" x2="-5.1" y2="526.3"/>
		</g>
	</g>
	<g>
		<g>
			<defs>
				<rect id="SVGID_23_" x="-25" y="505.8" width="38" height="51.5"/>
			</defs>
			<clipPath id="SVGID_24_">
				<use xlink:href="#SVGID_23_"  style="overflow:visible;"/>
			</clipPath>
			<line class="st11" x1="0" y1="526.3" x2="5" y2="526.3"/>
		</g>
	</g>
	<g>
		<g>
			<defs>
				<rect id="SVGID_25_" x="-25" y="505.8" width="38" height="51.5"/>
			</defs>
			<clipPath id="SVGID_26_">
				<use xlink:href="#SVGID_25_"  style="overflow:visible;"/>
			</clipPath>
			<line class="st12" x1="-16.8" y1="520" x2="-5.3" y2="520"/>
		</g>
	</g>
	<g>
		<g>
			<defs>
				<rect id="SVGID_27_" x="-25" y="505.8" width="38" height="51.5"/>
			</defs>
			<clipPath id="SVGID_28_">
				<use xlink:href="#SVGID_27_"  style="overflow:visible;"/>
			</clipPath>
			<line class="st13" x1="-0.2" y1="520" x2="4.8" y2="520"/>
		</g>
	</g>
</g>
<g>
	<g>
		<g>
			<defs>
				<rect id="SVGID_29_" x="-135" y="511.3" width="40" height="40"/>
			</defs>
			<clipPath id="SVGID_30_">
				<use xlink:href="#SVGID_29_"  style="overflow:visible;"/>
			</clipPath>
			<polygon class="st14" points="-109.9,531.6 -115.3,526.2 -105,515.9 -108.6,512.3 -96,512.3 -96,524.9 -99.6,521.3 			"/>
		</g>
	</g>
	<g>
		<g>
			<defs>
				<rect id="SVGID_31_" x="-135" y="511.3" width="40" height="40"/>
			</defs>
			<clipPath id="SVGID_32_">
				<use xlink:href="#SVGID_31_"  style="overflow:visible;"/>
			</clipPath>
			<path class="st15" d="M-103.8,534.9v1.4c0,3.8-3.1,7-7,7h-8.6c-3.8,0-7-3.1-7-7v-8.7c0-3.8,3.1-7,7-7h1.4"/>
		</g>
	</g>
	<g>
		<g>
			<defs>
				<rect id="SVGID_33_" x="-135" y="511.3" width="40" height="40"/>
			</defs>
			<clipPath id="SVGID_34_">
				<use xlink:href="#SVGID_33_"  style="overflow:visible;"/>
			</clipPath>
			<path class="st16" d="M-96,530.8v7.9v-0.2c0,6.5-5.3,11.8-11.8,11.8h-14.5c-6.5,0-11.8-5.3-11.8-11.8v-14.4
				c0-6.5,5.3-11.8,11.8-11.8h7.9"/>
		</g>
	</g>
</g>
<g>
	<g>
		<g>
			<defs>
				<rect id="SVGID_35_" x="-245" y="507.6" width="37.1" height="49.7"/>
			</defs>
			<clipPath id="SVGID_36_">
				<use xlink:href="#SVGID_35_"  style="overflow:visible;"/>
			</clipPath>
			<path class="st17" d="M-233.9,532v6.7c0,1.1,0.3,1.8,0.9,2.1l6.6,3.9v11.6l-11.3-6.5c-3.6-2-6-5.9-6.2-9.8v-13.8"/>
		</g>
	</g>
	<g>
		<g>
			<defs>
				<rect id="SVGID_37_" x="-245" y="507.6" width="37.1" height="49.7"/>
			</defs>
			<clipPath id="SVGID_38_">
				<use xlink:href="#SVGID_37_"  style="overflow:visible;"/>
			</clipPath>
			<path class="st18" d="M-222.6,518.7h3.7v15.1c0,1.1-0.3,1.8-0.9,2.1l-6.6,3.9v11.6l11.3-6.5c3.6-2,6-5.9,6.2-9.8v-16.4v-10.1
				H-219h-7.4"/>
		</g>
	</g>
	<g>
		<g>
			<defs>
				<rect id="SVGID_39_" x="-245" y="507.6" width="37.1" height="49.7"/>
			</defs>
			<clipPath id="SVGID_40_">
				<use xlink:href="#SVGID_39_"  style="overflow:visible;"/>
			</clipPath>
			<polyline class="st19" points="-244,526.2 -244,525.1 -227.4,508.6 -226.3,508.6 			"/>
		</g>
	</g>
	<g>
		<g>
			<defs>
				<rect id="SVGID_41_" x="-245" y="507.6" width="37.1" height="49.7"/>
			</defs>
			<clipPath id="SVGID_42_">
				<use xlink:href="#SVGID_41_"  style="overflow:visible;"/>
			</clipPath>
			<polyline class="st20" points="-226.3,513.4 -226.3,526.2 -239.2,526.2 			"/>
		</g>
	</g>
</g>
<g>
	<g>
		<g>
			<defs>
				<rect id="SVGID_43_" x="-354" y="506.6" width="51.2" height="48.7"/>
			</defs>
			<clipPath id="SVGID_44_">
				<use xlink:href="#SVGID_43_"  style="overflow:visible;"/>
			</clipPath>
			<path class="st21" d="M-314.7,526.7l0.3-13.8l-19.3-5.3l-19.3,5.3l0.4,19.6c0.2,9.4,4.3,16.3,18.8,21.8c6-2.3,10.2-4.8,13.1-7.6"
				/>
		</g>
	</g>
	<g>
		<g>
			<defs>
				<rect id="SVGID_45_" x="-354" y="506.6" width="51.2" height="48.7"/>
			</defs>
			<clipPath id="SVGID_46_">
				<use xlink:href="#SVGID_45_"  style="overflow:visible;"/>
			</clipPath>
			<path class="st22" d="M-333.7,517.1l-10.2,3.4l0.2,11.2c0.1,5,2.3,9.5,10,12.4"/>
		</g>
	</g>
	<g>
		<g>
			<defs>
				<rect id="SVGID_47_" x="-354" y="506.6" width="51.2" height="48.7"/>
			</defs>
			<clipPath id="SVGID_48_">
				<use xlink:href="#SVGID_47_"  style="overflow:visible;"/>
			</clipPath>
			<path class="st23" d="M-317.3,547.2c5.7,0,10.4-4.7,10.4-10.4c0-5.7-4.7-10.4-10.4-10.4c-5.7,0-10.4,4.6-10.4,10.4
				C-327.6,542.5-323,547.2-317.3,547.2z"/>
		</g>
	</g>
	<g>
		<g>
			<defs>
				<rect id="SVGID_49_" x="-354" y="506.6" width="51.2" height="48.7"/>
			</defs>
			<clipPath id="SVGID_50_">
				<use xlink:href="#SVGID_49_"  style="overflow:visible;"/>
			</clipPath>
			<line class="st24" x1="-310.3" y1="544.7" x2="-303.8" y2="551.3"/>
		</g>
	</g>
</g>
<g>
	<defs>
		<rect id="SVGID_51_" x="302" y="508.6" width="34.3" height="44.7"/>
	</defs>
	<clipPath id="SVGID_52_">
		<use xlink:href="#SVGID_51_"  style="overflow:visible;"/>
	</clipPath>
	<polyline class="st25" points="333.2,515.3 335.3,515.3 335.3,552.3 308.5,552.3 308.5,550.1 	"/>
	<polygon class="st25" points="310.6,509.6 329.8,509.6 329.8,546.6 303,546.6 303,517.3 	"/>
	<polyline class="st25" points="310.6,509.6 310.6,517.3 303,517.3 	"/>
</g>
<line class="st26" x1="308.9" y1="527.4" x2="323.9" y2="527.4"/>
<line class="st26" x1="308.9" y1="533.3" x2="323.9" y2="533.3"/>
<line class="st26" x1="308.9" y1="539.3" x2="323.9" y2="539.3"/>
<g>
	<defs>
		<rect id="SVGID_53_" x="401" y="510.8" width="39.1" height="41.8"/>
	</defs>
	<clipPath id="SVGID_54_">
		<use xlink:href="#SVGID_53_"  style="overflow:visible;"/>
	</clipPath>
	<path class="st27" d="M410.5,511.8h28.6v35.7c0,2.2-1.8,4-3.9,4h-29.2c-2.2,0-3.9-1.8-3.9-4v-11.5"/>
	<path class="st27" d="M410.5,511.8v35.7c0,2.2-1.8,4-3.9,4"/>
	<line class="st27" x1="410.9" y1="520.6" x2="439.1" y2="520.6"/>
	<line class="st27" x1="402.2" y1="535.9" x2="410.5" y2="535.9"/>
	<path class="st28" d="M428.5,534h-11c-0.5,0-0.8-0.4-0.8-0.9v-4.3c0-0.5,0.4-0.9,0.8-0.9h16c0.5,0,0.8,0.4,0.8,0.9v2.6"/>
	<line class="st29" x1="416.7" y1="539.5" x2="434.4" y2="539.5"/>
	<line class="st29" x1="416.7" y1="543.7" x2="434.4" y2="543.7"/>
</g>
</svg>
