<?xml version="1.0" encoding="utf-8"?>
<!-- Generator: Adobe Illustrator 21.0.2, SVG Export Plug-In . SVG Version: 6.00 Build 0)  -->
<svg version="1.1" id="_x31_" xmlns="http://www.w3.org/2000/svg" xmlns:xlink="http://www.w3.org/1999/xlink" x="0px" y="0px"
	 width="55.5px" height="61px" viewBox="0 0 55.5 61" style="enable-background:new 0 0 55.5 61;" xml:space="preserve">
<style type="text/css">
	.st0{fill-rule:evenodd;clip-rule:evenodd;fill:#EF3E58;}
	.st1{fill-rule:evenodd;clip-rule:evenodd;fill:#0F67B1;}
	.st2{clip-path:url(#SVGID_2_);fill-rule:evenodd;clip-rule:evenodd;fill:#1466AC;}
	.st3{clip-path:url(#SVGID_2_);fill-rule:evenodd;clip-rule:evenodd;fill:#1765AB;}
	.st4{clip-path:url(#SVGID_2_);fill-rule:evenodd;clip-rule:evenodd;fill:#1B65A9;}
	.st5{clip-path:url(#SVGID_2_);fill-rule:evenodd;clip-rule:evenodd;fill:#1E64A8;}
	.st6{clip-path:url(#SVGID_2_);fill-rule:evenodd;clip-rule:evenodd;fill:#2164A7;}
	.st7{clip-path:url(#SVGID_2_);fill-rule:evenodd;clip-rule:evenodd;fill:#2563A6;}
	.st8{clip-path:url(#SVGID_2_);fill-rule:evenodd;clip-rule:evenodd;fill:#2863A4;}
	.st9{clip-path:url(#SVGID_2_);fill-rule:evenodd;clip-rule:evenodd;fill:#2B62A3;}
	.st10{clip-path:url(#SVGID_2_);fill-rule:evenodd;clip-rule:evenodd;fill:#2E61A2;}
	.st11{clip-path:url(#SVGID_2_);fill-rule:evenodd;clip-rule:evenodd;fill:#3261A1;}
	.st12{clip-path:url(#SVGID_2_);fill-rule:evenodd;clip-rule:evenodd;fill:#35609F;}
	.st13{clip-path:url(#SVGID_2_);fill-rule:evenodd;clip-rule:evenodd;fill:#38609E;}
	.st14{clip-path:url(#SVGID_2_);fill-rule:evenodd;clip-rule:evenodd;fill:#3C5F9D;}
	.st15{clip-path:url(#SVGID_2_);fill-rule:evenodd;clip-rule:evenodd;fill:#3F5F9C;}
	.st16{clip-path:url(#SVGID_2_);fill-rule:evenodd;clip-rule:evenodd;fill:#425E9A;}
	.st17{clip-path:url(#SVGID_2_);fill-rule:evenodd;clip-rule:evenodd;fill:#465D99;}
	.st18{clip-path:url(#SVGID_2_);fill-rule:evenodd;clip-rule:evenodd;fill:#495D98;}
	.st19{clip-path:url(#SVGID_2_);fill-rule:evenodd;clip-rule:evenodd;fill:#4C5C96;}
	.st20{clip-path:url(#SVGID_2_);fill-rule:evenodd;clip-rule:evenodd;fill:#4F5C95;}
	.st21{clip-path:url(#SVGID_2_);fill-rule:evenodd;clip-rule:evenodd;fill:#535B94;}
	.st22{clip-path:url(#SVGID_2_);fill-rule:evenodd;clip-rule:evenodd;fill:#565B93;}
	.st23{clip-path:url(#SVGID_2_);fill-rule:evenodd;clip-rule:evenodd;fill:#595A91;}
	.st24{clip-path:url(#SVGID_2_);fill-rule:evenodd;clip-rule:evenodd;fill:#5D5990;}
	.st25{clip-path:url(#SVGID_2_);fill-rule:evenodd;clip-rule:evenodd;fill:#60598F;}
	.st26{clip-path:url(#SVGID_2_);fill-rule:evenodd;clip-rule:evenodd;fill:#63588E;}
	.st27{clip-path:url(#SVGID_2_);fill-rule:evenodd;clip-rule:evenodd;fill:#67588C;}
	.st28{clip-path:url(#SVGID_2_);fill-rule:evenodd;clip-rule:evenodd;fill:#6A578B;}
	.st29{clip-path:url(#SVGID_2_);fill-rule:evenodd;clip-rule:evenodd;fill:#6D578A;}
	.st30{clip-path:url(#SVGID_2_);fill-rule:evenodd;clip-rule:evenodd;fill:#705689;}
	.st31{clip-path:url(#SVGID_2_);fill-rule:evenodd;clip-rule:evenodd;fill:#745587;}
	.st32{clip-path:url(#SVGID_2_);fill-rule:evenodd;clip-rule:evenodd;fill:#775586;}
	.st33{clip-path:url(#SVGID_2_);fill-rule:evenodd;clip-rule:evenodd;fill:#7A5485;}
	.st34{clip-path:url(#SVGID_2_);fill-rule:evenodd;clip-rule:evenodd;fill:#7E5483;}
	.st35{clip-path:url(#SVGID_2_);fill-rule:evenodd;clip-rule:evenodd;fill:#815382;}
	.st36{clip-path:url(#SVGID_2_);fill-rule:evenodd;clip-rule:evenodd;fill:#845381;}
	.st37{clip-path:url(#SVGID_2_);fill-rule:evenodd;clip-rule:evenodd;fill:#885280;}
	.st38{clip-path:url(#SVGID_2_);fill-rule:evenodd;clip-rule:evenodd;fill:#8B517E;}
	.st39{clip-path:url(#SVGID_2_);fill-rule:evenodd;clip-rule:evenodd;fill:#8E517D;}
	.st40{clip-path:url(#SVGID_2_);fill-rule:evenodd;clip-rule:evenodd;fill:#92507C;}
	.st41{clip-path:url(#SVGID_2_);fill-rule:evenodd;clip-rule:evenodd;fill:#95507B;}
	.st42{clip-path:url(#SVGID_2_);fill-rule:evenodd;clip-rule:evenodd;fill:#984F79;}
	.st43{clip-path:url(#SVGID_2_);fill-rule:evenodd;clip-rule:evenodd;fill:#9B4F78;}
	.st44{clip-path:url(#SVGID_2_);fill-rule:evenodd;clip-rule:evenodd;fill:#9F4E77;}
	.st45{clip-path:url(#SVGID_2_);fill-rule:evenodd;clip-rule:evenodd;fill:#A24D76;}
	.st46{clip-path:url(#SVGID_2_);fill-rule:evenodd;clip-rule:evenodd;fill:#A54D74;}
	.st47{clip-path:url(#SVGID_2_);fill-rule:evenodd;clip-rule:evenodd;fill:#A94C73;}
	.st48{clip-path:url(#SVGID_2_);fill-rule:evenodd;clip-rule:evenodd;fill:#AC4C72;}
	.st49{clip-path:url(#SVGID_2_);fill-rule:evenodd;clip-rule:evenodd;fill:#AF4B70;}
	.st50{clip-path:url(#SVGID_2_);fill-rule:evenodd;clip-rule:evenodd;fill:#B34A6F;}
	.st51{clip-path:url(#SVGID_2_);fill-rule:evenodd;clip-rule:evenodd;fill:#B64A6E;}
	.st52{clip-path:url(#SVGID_2_);fill-rule:evenodd;clip-rule:evenodd;fill:#B9496D;}
	.st53{clip-path:url(#SVGID_2_);fill-rule:evenodd;clip-rule:evenodd;fill:#BC496B;}
	.st54{clip-path:url(#SVGID_2_);fill-rule:evenodd;clip-rule:evenodd;fill:#C0486A;}
	.st55{clip-path:url(#SVGID_2_);fill-rule:evenodd;clip-rule:evenodd;fill:#C34869;}
	.st56{clip-path:url(#SVGID_2_);fill-rule:evenodd;clip-rule:evenodd;fill:#C64768;}
	.st57{clip-path:url(#SVGID_2_);fill-rule:evenodd;clip-rule:evenodd;fill:#CA4666;}
	.st58{clip-path:url(#SVGID_2_);fill-rule:evenodd;clip-rule:evenodd;fill:#CD4665;}
	.st59{clip-path:url(#SVGID_2_);fill-rule:evenodd;clip-rule:evenodd;fill:#D04564;}
	.st60{clip-path:url(#SVGID_2_);fill-rule:evenodd;clip-rule:evenodd;fill:#D44563;}
	.st61{clip-path:url(#SVGID_2_);fill-rule:evenodd;clip-rule:evenodd;fill:#D74461;}
	.st62{clip-path:url(#SVGID_2_);fill-rule:evenodd;clip-rule:evenodd;fill:#DA4460;}
	.st63{clip-path:url(#SVGID_2_);fill-rule:evenodd;clip-rule:evenodd;fill:#DD435F;}
	.st64{clip-path:url(#SVGID_2_);fill-rule:evenodd;clip-rule:evenodd;fill:#E1425D;}
	.st65{clip-path:url(#SVGID_2_);fill-rule:evenodd;clip-rule:evenodd;fill:#E4425C;}
	.st66{clip-path:url(#SVGID_2_);fill-rule:evenodd;clip-rule:evenodd;fill:#E7415B;}
	.st67{clip-path:url(#SVGID_2_);fill-rule:evenodd;clip-rule:evenodd;fill:#EB415A;}
	.st68{clip-path:url(#SVGID_2_);fill-rule:evenodd;clip-rule:evenodd;fill:#EE4058;}
	.st69{clip-path:url(#SVGID_2_);fill-rule:evenodd;clip-rule:evenodd;fill:#EF4058;}
</style>
<g>
	<g>
		<path class="st0" d="M22.8,31h-5.6c-0.1,0-0.1,0.1-0.1,0.1c-0.1,2.6-0.6,5.3-1.3,7.6v0.1l0.1,0.1l1.9,0c0.1,0,0.1,0,0.1-0.1
			c0.6-1.7,1-4,1.1-5.9l1.9,0v5.8c0,0.1,0.1,0.1,0.1,0.1l1.9,0c0.1,0,0.1-0.1,0.1-0.1L22.8,31C22.9,31,22.8,31,22.8,31L22.8,31
			L22.8,31z M46.6,31h-1.9c-0.1,0-0.1,0.1-0.1,0.1v5.8c-0.4,0.1-0.8,0.1-1.2,0.1c-1.2,0-1.5-0.3-1.5-2v-4c0-0.1-0.1-0.1-0.1-0.1
			L40,31c-0.1,0-0.1,0.1-0.1,0.1v4.3c0,2.6,0.9,3.7,3.2,3.7c1.3,0,2.8-0.3,3.6-0.7c0.1,0,0.1-0.1,0.1-0.1v-7.1
			C46.8,31,46.7,31,46.6,31L46.6,31L46.6,31z M7.6,31H5.8c-0.1,0-0.1,0-0.1,0.1c-0.3,1.2-0.9,3.1-1.7,5.1l-1.9-5.1C2.1,31,2,31,2,31
			H0.1c0,0-0.1,0-0.1,0.1v0.1l2.8,7.7C2.6,39.5,2.3,40,2,40.4c-0.2,0.3-0.3,0.7-0.6,1v0.1l0.1,0.1l2.1,0c0.1,0,0.1,0,0.1-0.1
			c0.3-0.7,0.8-1.6,1.2-2.6C6,36.1,7,33.4,7.6,31L7.6,31C7.7,31,7.6,31,7.6,31L7.6,31L7.6,31z M14.4,36.9
			C14.3,36.9,14.3,36.9,14.4,36.9c-0.1-0.1-0.1-0.1-0.1-0.1c-0.4,0.1-1.3,0.3-1.9,0.3c-1.2,0-1.9-0.3-1.9-2.3c0-1.6,0.2-2.3,1.9-2.3
			c0.5,0,0.9,0.1,1.5,0.2c0.1,0,0.1,0,0.1-0.1c0.2-0.4,0.5-0.9,0.8-1.5v-0.1l-0.1-0.1c-0.8-0.2-1.7-0.3-2.4-0.3
			c-2.7,0-3.9,1.2-3.9,4.1c0,2.9,1.2,4.2,3.9,4.2c0.7,0,2-0.1,2.6-0.4c0.1,0,0.1-0.1,0.1-0.1L14.4,36.9L14.4,36.9L14.4,36.9z
			 M31.9,31H30c-0.1,0-0.1,0-0.1,0.1c-0.3,1.2-0.9,3.1-1.7,5.1l-1.9-5.1c0-0.1-0.1-0.1-0.1-0.1h-2c0,0-0.1,0-0.1,0.1v0.1l2.8,7.7
			c-0.3,0.6-0.6,1.1-0.8,1.5c-0.2,0.3-0.3,0.7-0.6,1v0.1l0.1,0.1l2.1,0c0.1,0,0.1,0,0.1-0.1c0.3-0.7,0.8-1.6,1.2-2.6
			C30.3,36.2,31.2,33.4,31.9,31L31.9,31C31.9,31,31.9,31,31.9,31L31.9,31L31.9,31z M38.7,31h-5.4c-0.1,0-0.1,0.1-0.1,0.1v7.6
			c0,0.1,0.1,0.1,0.1,0.1l1.9,0c0.1,0,0.1-0.1,0.1-0.1v-5.8l2.8,0c0.1,0,0.1,0,0.1-0.1c0.2-0.5,0.4-1,0.7-1.6v-0.1
			C38.8,31,38.8,31,38.7,31L38.7,31z M38.7,31L38.7,31L38.7,31z"/>
	</g>
	<g>
		<path class="st1" d="M9.8,19.4c-2.6,0-3.7,1.1-3.7,4.1c0,3,1,4.1,3.7,4.1c2.7,0,3.7-1.2,3.7-4.1C13.5,20.5,12.5,19.4,9.8,19.4
			L9.8,19.4L9.8,19.4z M9.8,25.8c-1.2,0-1.6-0.3-1.6-2.4c0-2.2,0.4-2.4,1.6-2.4c1.2,0,1.6,0.2,1.6,2.4C11.5,25.5,11,25.8,9.8,25.8
			L9.8,25.8L9.8,25.8z M20.9,25.5C20.9,25.5,20.8,25.5,20.9,25.5c-0.1-0.1-0.1-0.1-0.1-0.1c-0.4,0.1-1.3,0.3-1.9,0.3
			c-1.2,0-1.9-0.3-1.9-2.3c0-1.6,0.2-2.3,1.9-2.3c0.5,0,0.9,0.1,1.5,0.2c0.1,0,0.1,0,0.1-0.1c0.2-0.4,0.5-0.9,0.8-1.5v-0.1l-0.1-0.1
			c-0.8-0.2-1.7-0.3-2.4-0.3c-2.7,0-3.9,1.2-3.9,4.1c0,2.9,1.2,4.2,3.9,4.2c0.7,0,2-0.1,2.6-0.4c0.1,0,0.1-0.1,0.1-0.1L20.9,25.5
			L20.9,25.5L20.9,25.5z M5.6,19.6H0.1C0,19.6,0,19.6,0,19.6v7.6c0,0.1,0.1,0.1,0.1,0.1l1.9,0C2,27.3,2,27.2,2,27.2v-5.8h2.8
			c0.1,0,0.1,0,0.1-0.1c0.2-0.5,0.4-1,0.7-1.6L5.6,19.6C5.6,19.6,5.6,19.6,5.6,19.6L5.6,19.6z M5.6,19.6L5.6,19.6L5.6,19.6z"/>
	</g>
	<g>
		<g>
			<defs>
				<path id="SVGID_1_" d="M55.2,38v-0.3c0.1-1,0.1-2.4,0.2-3.8v-0.1c0-1,0.1-2.1,0.1-3.2c0-1.1,0-2.2-0.1-3.2v-0.1
					c-0.1-1.5-0.1-2.8-0.2-3.8v-0.8c-0.1-1.1-0.1-1.8-0.1-1.9c0-0.1,0-0.2-0.1-0.3v-0.1c0-0.2-0.1-0.4-0.1-0.6v-0.1
					c-0.5-2.4-1.8-4.9-3.4-6.8c-0.6-0.8-1.3-1.4-2-1.9c-0.1-0.1-0.8-0.6-2.2-1.5c-1.5-1-3.6-2.4-6-3.8C37.1,3,33.3,1.2,32.8,1h-0.1
					c-1.1-0.5-2.5-0.8-4-1C28.5,0.1,28.2,0,28,0l-1.2,0c-1.9,0.1-3.7,0.4-5.2,1c-0.2,0.1-4,1.8-8.4,4.4c0,0-0.1,0.1-0.1,0.1
					c-4.4,2.6-8,5.2-8.1,5.3c-1.1,0.8-2.1,1.9-3,3.2c-0.2,0.3-0.2,1,0.7,1l2.2,0c1,0,1.2-0.6,2.2-1.3c1.2-0.8,3.5-2.6,7.8-5.1
					c3.1-1.8,6-3.3,7.4-3.9c0,0,0.1,0,0.1-0.1l0.2,0C22.8,4.5,23,4.4,23,4.4c1-0.4,2.4-0.7,3.8-0.8l0.6,0c0.4,0,0.8,0.1,1.2,0.1
					C29.6,3.8,30.3,4,31,4.2c0.1,0,0.1,0.1,0.2,0.1c0,0,0.1,0,0.1,0.1c0.6,0.3,4.2,1.9,8.1,4.2c2.3,1.3,4.4,2.7,5.8,3.7
					c1.2,0.8,2,1.4,2,1.5c0.6,0.4,1.1,1,1.6,1.6c1.3,1.7,2.4,4,2.5,5.7c0,0,0.1,0.8,0.1,1.9v2.4c0.1,1.5,0.1,3.3,0.1,5.1
					c0,1.9-0.1,3.7-0.1,5.1v2.4c-0.1,1.2-0.1,1.9-0.1,1.9c-0.2,1.7-1.2,4-2.5,5.7c-0.5,0.6-1,1.2-1.6,1.6c0,0-0.8,0.6-2,1.5
					c-1.4,1-3.5,2.4-5.8,3.7c-3.9,2.3-7.5,4-8.1,4.2c-0.1,0-0.1,0.1-0.1,0.1c-0.1,0-0.1,0.1-0.2,0.1c-0.6,0.3-1.5,0.5-2.4,0.6
					c-0.4,0.1-0.8,0.1-1.2,0.1l-0.6,0c-1.5,0-2.8-0.3-3.8-0.8c0,0-0.2-0.1-0.6-0.3c-0.1,0-0.1-0.1-0.1-0.1c0,0-0.1,0-0.1-0.1h-0.1
					c0,0-0.1,0-0.1-0.1c-0.1,0-0.1,0-0.1-0.1c-1.5-0.7-4.2-2.1-7.1-3.8c-4.3-2.5-6.6-4.2-7.8-5.1c-1-0.5-1.2-1-2.2-1l-2.2,0
					c-0.9,0-0.8,0.8-0.7,1c0.9,1.3,1.9,2.4,3,3.2c0.1,0.1,3.7,2.7,8.1,5.3c0.2,0.1,0.5,0.3,0.7,0.4c4.1,2.4,7.6,4,7.8,4.1
					c1.4,0.6,3.3,1,5.2,1l1.2,0c0.3,0,0.6,0,0.8-0.1c1.5-0.1,2.8-0.5,4-1l0.1,0c0.5-0.2,4.3-1.9,8.5-4.4c2.4-1.4,4.5-2.8,6-3.8
					c1.2-0.9,2.1-1.5,2.2-1.5c0.7-0.5,1.4-1.2,2-1.9c1.6-1.9,2.9-4.5,3.4-6.8v-0.1c0.1-0.2,0.1-0.4,0.1-0.6v-0.1
					c0-0.1,0-0.2,0.1-0.3c0-0.1,0.1-0.8,0.1-1.9L55.2,38L55.2,38z M55.2,38L55.2,38L55.2,38z"/>
			</defs>
			<clipPath id="SVGID_2_">
				<use xlink:href="#SVGID_1_"  style="overflow:visible;"/>
			</clipPath>
			<rect x="1.7" y="60.9" class="st2" width="53.8" height="0.1"/>
			<rect x="1.7" y="60.6" class="st2" width="53.8" height="0.4"/>
			<rect x="1.7" y="60.4" class="st2" width="53.8" height="0.4"/>
			<rect x="1.7" y="60.2" class="st2" width="53.8" height="0.4"/>
			<rect x="1.7" y="59.9" class="st2" width="53.8" height="0.4"/>
			<rect x="1.7" y="59.7" class="st2" width="53.8" height="0.4"/>
			<rect x="1.7" y="59.4" class="st2" width="53.8" height="0.4"/>
			<rect x="1.7" y="59.2" class="st2" width="53.8" height="0.4"/>
			<rect x="1.7" y="59" class="st2" width="53.8" height="0.4"/>
			<rect x="1.7" y="58.7" class="st2" width="53.8" height="0.4"/>
			<rect x="1.7" y="58.5" class="st2" width="53.8" height="0.4"/>
			<rect x="1.7" y="58.3" class="st2" width="53.8" height="0.4"/>
			<rect x="1.7" y="58" class="st2" width="53.8" height="0.4"/>
			<rect x="1.7" y="57.8" class="st2" width="53.8" height="0.4"/>
			<rect x="1.7" y="57.5" class="st2" width="53.8" height="0.4"/>
			<rect x="1.7" y="57.3" class="st2" width="53.8" height="0.4"/>
			<rect x="1.7" y="57.1" class="st2" width="53.8" height="0.4"/>
			<rect x="1.7" y="56.8" class="st2" width="53.8" height="0.4"/>
			<rect x="1.7" y="56.6" class="st2" width="53.8" height="0.4"/>
			<rect x="1.7" y="56.3" class="st2" width="53.8" height="0.4"/>
			<rect x="1.7" y="56.1" class="st2" width="53.8" height="0.4"/>
			<rect x="1.7" y="55.9" class="st2" width="53.8" height="0.4"/>
			<rect x="1.7" y="55.6" class="st2" width="53.8" height="0.4"/>
			<rect x="1.7" y="55.4" class="st2" width="53.8" height="0.4"/>
			<rect x="1.7" y="55.2" class="st2" width="53.8" height="0.4"/>
			<rect x="1.7" y="54.9" class="st2" width="53.8" height="0.4"/>
			<rect x="1.7" y="54.7" class="st2" width="53.8" height="0.4"/>
			<rect x="1.7" y="54.4" class="st2" width="53.8" height="0.4"/>
			<rect x="1.7" y="54.2" class="st2" width="53.8" height="0.4"/>
			<rect x="1.7" y="54" class="st2" width="53.8" height="0.4"/>
			<rect x="1.7" y="53.7" class="st2" width="53.8" height="0.4"/>
			<rect x="1.7" y="53.5" class="st2" width="53.8" height="0.4"/>
			<rect x="1.7" y="53.2" class="st2" width="53.8" height="0.4"/>
			<rect x="1.7" y="53" class="st2" width="53.8" height="0.4"/>
			<rect x="1.7" y="52.8" class="st2" width="53.8" height="0.4"/>
			<rect x="1.7" y="52.5" class="st2" width="53.8" height="0.4"/>
			<rect x="1.7" y="52.3" class="st2" width="53.8" height="0.4"/>
			<rect x="1.7" y="52.1" class="st2" width="53.8" height="0.4"/>
			<rect x="1.7" y="51.8" class="st2" width="53.8" height="0.4"/>
			<rect x="1.7" y="51.6" class="st2" width="53.8" height="0.4"/>
			<rect x="1.7" y="51.3" class="st2" width="53.8" height="0.4"/>
			<rect x="1.7" y="51.1" class="st2" width="53.8" height="0.4"/>
			<rect x="1.7" y="50.9" class="st2" width="53.8" height="0.4"/>
			<rect x="1.7" y="50.6" class="st2" width="53.8" height="0.4"/>
			<rect x="1.7" y="50.4" class="st2" width="53.8" height="0.4"/>
			<rect x="1.7" y="50.1" class="st2" width="53.8" height="0.4"/>
			<rect x="1.7" y="49.9" class="st2" width="53.8" height="0.4"/>
			<rect x="1.7" y="49.7" class="st2" width="53.8" height="0.4"/>
			<rect x="1.7" y="49.4" class="st2" width="53.8" height="0.4"/>
			<rect x="1.7" y="49.2" class="st2" width="53.8" height="0.4"/>
			<rect x="1.7" y="49" class="st2" width="53.8" height="0.4"/>
			<rect x="1.7" y="48.7" class="st2" width="53.8" height="0.4"/>
			<rect x="1.7" y="48.5" class="st2" width="53.8" height="0.4"/>
			<rect x="1.7" y="48.2" class="st2" width="53.8" height="0.4"/>
			<rect x="1.7" y="48" class="st2" width="53.8" height="0.4"/>
			<rect x="1.7" y="47.8" class="st2" width="53.8" height="0.4"/>
			<rect x="1.7" y="47.5" class="st2" width="53.8" height="0.4"/>
			<rect x="1.7" y="47.3" class="st2" width="53.8" height="0.4"/>
			<rect x="1.7" y="47" class="st2" width="53.8" height="0.4"/>
			<rect x="1.7" y="46.8" class="st2" width="53.8" height="0.4"/>
			<rect x="1.7" y="46.6" class="st2" width="53.8" height="0.4"/>
			<rect x="1.7" y="46.3" class="st2" width="53.8" height="0.4"/>
			<rect x="1.7" y="46.1" class="st2" width="53.8" height="0.4"/>
			<rect x="1.7" y="45.9" class="st2" width="53.8" height="0.4"/>
			<rect x="1.7" y="45.6" class="st2" width="53.8" height="0.4"/>
			<rect x="1.7" y="45.4" class="st2" width="53.8" height="0.4"/>
			<rect x="1.7" y="45.1" class="st2" width="53.8" height="0.4"/>
			<rect x="1.7" y="44.9" class="st2" width="53.8" height="0.4"/>
			<rect x="1.7" y="44.7" class="st2" width="53.8" height="0.4"/>
			<rect x="1.7" y="44.4" class="st2" width="53.8" height="0.4"/>
			<rect x="1.7" y="44.2" class="st2" width="53.8" height="0.4"/>
			<rect x="1.7" y="43.9" class="st2" width="53.8" height="0.4"/>
			<rect x="1.7" y="43.7" class="st2" width="53.8" height="0.4"/>
			<rect x="1.7" y="43.5" class="st2" width="53.8" height="0.4"/>
			<rect x="1.7" y="43.2" class="st2" width="53.8" height="0.4"/>
			<rect x="1.7" y="43" class="st2" width="53.8" height="0.4"/>
			<rect x="1.7" y="42.8" class="st2" width="53.8" height="0.4"/>
			<rect x="1.7" y="42.5" class="st2" width="53.8" height="0.4"/>
			<rect x="1.7" y="42.3" class="st2" width="53.8" height="0.4"/>
			<rect x="1.7" y="42" class="st2" width="53.8" height="0.4"/>
			<rect x="1.7" y="41.8" class="st2" width="53.8" height="0.4"/>
			<rect x="1.7" y="41.6" class="st2" width="53.8" height="0.4"/>
			<rect x="1.7" y="41.3" class="st2" width="53.8" height="0.4"/>
			<rect x="1.7" y="41.1" class="st2" width="53.8" height="0.4"/>
			<rect x="1.7" y="40.8" class="st2" width="53.8" height="0.4"/>
			<rect x="1.7" y="40.6" class="st2" width="53.8" height="0.4"/>
			<rect x="1.7" y="40.4" class="st2" width="53.8" height="0.4"/>
			<rect x="1.7" y="40.1" class="st2" width="53.8" height="0.4"/>
			<rect x="1.7" y="39.9" class="st2" width="53.8" height="0.4"/>
			<rect x="1.7" y="39.6" class="st2" width="53.8" height="0.4"/>
			<rect x="1.7" y="39.4" class="st2" width="53.8" height="0.4"/>
			<rect x="1.7" y="39.2" class="st2" width="53.8" height="0.4"/>
			<rect x="1.7" y="38.9" class="st2" width="53.8" height="0.4"/>
			<rect x="1.7" y="38.7" class="st2" width="53.8" height="0.4"/>
			<rect x="1.7" y="38.5" class="st2" width="53.8" height="0.4"/>
			<rect x="1.7" y="38.2" class="st2" width="53.8" height="0.4"/>
			<rect x="1.7" y="38" class="st2" width="53.8" height="0.4"/>
			<rect x="1.7" y="37.7" class="st2" width="53.8" height="0.4"/>
			<rect x="1.7" y="37.5" class="st2" width="53.8" height="0.4"/>
			<rect x="1.7" y="37.3" class="st2" width="53.8" height="0.4"/>
			<rect x="1.7" y="37" class="st2" width="53.8" height="0.4"/>
			<rect x="1.7" y="36.8" class="st2" width="53.8" height="0.4"/>
			<rect x="1.7" y="36.5" class="st2" width="53.8" height="0.4"/>
			<rect x="1.7" y="36.3" class="st3" width="53.8" height="0.4"/>
			<rect x="1.7" y="36.1" class="st4" width="53.8" height="0.4"/>
			<rect x="1.7" y="35.8" class="st5" width="53.8" height="0.4"/>
			<rect x="1.7" y="35.6" class="st6" width="53.8" height="0.4"/>
			<rect x="1.7" y="35.4" class="st7" width="53.8" height="0.4"/>
			<rect x="1.7" y="35.1" class="st8" width="53.8" height="0.4"/>
			<rect x="1.7" y="34.9" class="st9" width="53.8" height="0.4"/>
			<rect x="1.7" y="34.6" class="st10" width="53.8" height="0.4"/>
			<rect x="1.7" y="34.4" class="st11" width="53.8" height="0.4"/>
			<rect x="1.7" y="34.2" class="st12" width="53.8" height="0.4"/>
			<rect x="1.7" y="33.9" class="st13" width="53.8" height="0.4"/>
			<rect x="1.7" y="33.7" class="st14" width="53.8" height="0.4"/>
			<rect x="1.7" y="33.4" class="st15" width="53.8" height="0.4"/>
			<rect x="1.7" y="33.2" class="st16" width="53.8" height="0.4"/>
			<rect x="1.7" y="33" class="st17" width="53.8" height="0.4"/>
			<rect x="1.7" y="32.7" class="st18" width="53.8" height="0.4"/>
			<rect x="1.7" y="32.5" class="st19" width="53.8" height="0.4"/>
			<rect x="1.7" y="32.3" class="st20" width="53.8" height="0.4"/>
			<rect x="1.7" y="32" class="st21" width="53.8" height="0.4"/>
			<rect x="1.7" y="31.8" class="st22" width="53.8" height="0.4"/>
			<rect x="1.7" y="31.5" class="st23" width="53.8" height="0.4"/>
			<rect x="1.7" y="31.3" class="st24" width="53.8" height="0.4"/>
			<rect x="1.7" y="31.1" class="st25" width="53.8" height="0.4"/>
			<rect x="1.7" y="30.8" class="st26" width="53.8" height="0.4"/>
			<rect x="1.7" y="30.6" class="st27" width="53.8" height="0.4"/>
			<rect x="1.7" y="30.3" class="st28" width="53.8" height="0.4"/>
			<rect x="1.7" y="30.1" class="st29" width="53.8" height="0.4"/>
			<rect x="1.7" y="29.9" class="st30" width="53.8" height="0.4"/>
			<rect x="1.7" y="29.6" class="st31" width="53.8" height="0.4"/>
			<rect x="1.7" y="29.4" class="st32" width="53.8" height="0.4"/>
			<rect x="1.7" y="29.2" class="st33" width="53.8" height="0.4"/>
			<rect x="1.7" y="28.9" class="st34" width="53.8" height="0.4"/>
			<rect x="1.7" y="28.7" class="st35" width="53.8" height="0.4"/>
			<rect x="1.7" y="28.4" class="st36" width="53.8" height="0.4"/>
			<rect x="1.7" y="28.2" class="st37" width="53.8" height="0.4"/>
			<rect x="1.7" y="28" class="st38" width="53.8" height="0.4"/>
			<rect x="1.7" y="27.7" class="st39" width="53.8" height="0.4"/>
			<rect x="1.7" y="27.5" class="st40" width="53.8" height="0.4"/>
			<rect x="1.7" y="27.2" class="st41" width="53.8" height="0.4"/>
			<rect x="1.7" y="27" class="st42" width="53.8" height="0.4"/>
			<rect x="1.7" y="26.8" class="st43" width="53.8" height="0.4"/>
			<rect x="1.7" y="26.5" class="st44" width="53.8" height="0.4"/>
			<rect x="1.7" y="26.3" class="st45" width="53.8" height="0.4"/>
			<rect x="1.7" y="26.1" class="st46" width="53.8" height="0.4"/>
			<rect x="1.7" y="25.8" class="st47" width="53.8" height="0.4"/>
			<rect x="1.7" y="25.6" class="st48" width="53.8" height="0.4"/>
			<rect x="1.7" y="25.3" class="st49" width="53.8" height="0.4"/>
			<rect x="1.7" y="25.1" class="st50" width="53.8" height="0.4"/>
			<rect x="1.7" y="24.9" class="st51" width="53.8" height="0.4"/>
			<rect x="1.7" y="24.6" class="st52" width="53.8" height="0.4"/>
			<rect x="1.7" y="24.4" class="st53" width="53.8" height="0.4"/>
			<rect x="1.7" y="24.1" class="st54" width="53.8" height="0.4"/>
			<rect x="1.7" y="23.9" class="st55" width="53.8" height="0.4"/>
			<rect x="1.7" y="23.7" class="st56" width="53.8" height="0.4"/>
			<rect x="1.7" y="23.4" class="st57" width="53.8" height="0.4"/>
			<rect x="1.7" y="23.2" class="st58" width="53.8" height="0.4"/>
			<rect x="1.7" y="23" class="st59" width="53.8" height="0.4"/>
			<rect x="1.7" y="22.7" class="st60" width="53.8" height="0.4"/>
			<rect x="1.7" y="22.5" class="st61" width="53.8" height="0.4"/>
			<rect x="1.7" y="22.2" class="st62" width="53.8" height="0.4"/>
			<rect x="1.7" y="22" class="st63" width="53.8" height="0.4"/>
			<rect x="1.7" y="21.8" class="st64" width="53.8" height="0.4"/>
			<rect x="1.7" y="21.5" class="st65" width="53.8" height="0.4"/>
			<rect x="1.7" y="21.3" class="st66" width="53.8" height="0.4"/>
			<rect x="1.7" y="21" class="st67" width="53.8" height="0.4"/>
			<rect x="1.7" y="20.8" class="st68" width="53.8" height="0.4"/>
			<rect x="1.7" y="20.6" class="st69" width="53.8" height="0.4"/>
			<rect x="1.7" y="20.3" class="st69" width="53.8" height="0.4"/>
			<rect x="1.7" y="20.1" class="st69" width="53.8" height="0.4"/>
			<rect x="1.7" y="19.8" class="st69" width="53.8" height="0.4"/>
			<rect x="1.7" y="19.6" class="st69" width="53.8" height="0.4"/>
			<rect x="1.7" y="19.4" class="st69" width="53.8" height="0.4"/>
			<rect x="1.7" y="19.1" class="st69" width="53.8" height="0.4"/>
			<rect x="1.7" y="18.9" class="st69" width="53.8" height="0.4"/>
			<rect x="1.7" y="18.7" class="st69" width="53.8" height="0.4"/>
			<rect x="1.7" y="18.4" class="st69" width="53.8" height="0.4"/>
			<rect x="1.7" y="18.2" class="st69" width="53.8" height="0.4"/>
			<rect x="1.7" y="17.9" class="st69" width="53.8" height="0.4"/>
			<rect x="1.7" y="17.7" class="st69" width="53.8" height="0.4"/>
			<rect x="1.7" y="17.5" class="st69" width="53.8" height="0.4"/>
			<rect x="1.7" y="17.2" class="st69" width="53.8" height="0.4"/>
			<rect x="1.7" y="17" class="st69" width="53.8" height="0.4"/>
			<rect x="1.7" y="16.7" class="st69" width="53.8" height="0.4"/>
			<rect x="1.7" y="16.5" class="st69" width="53.8" height="0.4"/>
			<rect x="1.7" y="16.3" class="st69" width="53.8" height="0.4"/>
			<rect x="1.7" y="16" class="st69" width="53.8" height="0.4"/>
			<rect x="1.7" y="15.8" class="st69" width="53.8" height="0.4"/>
			<rect x="1.7" y="15.6" class="st69" width="53.8" height="0.4"/>
			<rect x="1.7" y="15.3" class="st69" width="53.8" height="0.4"/>
			<rect x="1.7" y="15.1" class="st69" width="53.8" height="0.4"/>
			<rect x="1.7" y="14.8" class="st69" width="53.8" height="0.4"/>
			<rect x="1.7" y="14.6" class="st69" width="53.8" height="0.4"/>
			<rect x="1.7" y="14.4" class="st69" width="53.8" height="0.4"/>
			<rect x="1.7" y="14.1" class="st69" width="53.8" height="0.4"/>
			<rect x="1.7" y="13.9" class="st69" width="53.8" height="0.4"/>
			<rect x="1.7" y="13.6" class="st69" width="53.8" height="0.4"/>
			<rect x="1.7" y="13.4" class="st69" width="53.8" height="0.4"/>
			<rect x="1.7" y="13.2" class="st69" width="53.8" height="0.4"/>
			<rect x="1.7" y="12.9" class="st69" width="53.8" height="0.4"/>
			<rect x="1.7" y="12.7" class="st69" width="53.8" height="0.4"/>
			<rect x="1.7" y="12.5" class="st69" width="53.8" height="0.4"/>
			<rect x="1.7" y="12.2" class="st69" width="53.8" height="0.4"/>
			<rect x="1.7" y="12" class="st69" width="53.8" height="0.4"/>
			<rect x="1.7" y="11.7" class="st69" width="53.8" height="0.4"/>
			<rect x="1.7" y="11.5" class="st69" width="53.8" height="0.4"/>
			<rect x="1.7" y="11.3" class="st69" width="53.8" height="0.4"/>
			<rect x="1.7" y="11" class="st69" width="53.8" height="0.4"/>
			<rect x="1.7" y="10.8" class="st69" width="53.8" height="0.4"/>
			<rect x="1.7" y="10.5" class="st69" width="53.8" height="0.4"/>
			<rect x="1.7" y="10.3" class="st69" width="53.8" height="0.4"/>
			<rect x="1.7" y="10.1" class="st69" width="53.8" height="0.4"/>
			<rect x="1.7" y="9.8" class="st69" width="53.8" height="0.4"/>
			<rect x="1.7" y="9.6" class="st69" width="53.8" height="0.4"/>
			<rect x="1.7" y="9.4" class="st69" width="53.8" height="0.4"/>
			<rect x="1.7" y="9.1" class="st69" width="53.8" height="0.4"/>
			<rect x="1.7" y="8.9" class="st69" width="53.8" height="0.4"/>
			<rect x="1.7" y="8.6" class="st69" width="53.8" height="0.4"/>
			<rect x="1.7" y="8.4" class="st69" width="53.8" height="0.4"/>
			<rect x="1.7" y="8.2" class="st69" width="53.8" height="0.4"/>
			<rect x="1.7" y="7.9" class="st69" width="53.8" height="0.4"/>
			<rect x="1.7" y="7.7" class="st69" width="53.8" height="0.4"/>
			<rect x="1.7" y="7.4" class="st69" width="53.8" height="0.4"/>
			<rect x="1.7" y="7.2" class="st69" width="53.8" height="0.4"/>
			<rect x="1.7" y="7" class="st69" width="53.8" height="0.4"/>
			<rect x="1.7" y="6.7" class="st69" width="53.8" height="0.4"/>
			<rect x="1.7" y="6.5" class="st69" width="53.8" height="0.4"/>
			<rect x="1.7" y="6.3" class="st69" width="53.8" height="0.4"/>
			<rect x="1.7" y="6" class="st69" width="53.8" height="0.4"/>
			<rect x="1.7" y="5.8" class="st69" width="53.8" height="0.4"/>
			<rect x="1.7" y="5.5" class="st69" width="53.8" height="0.4"/>
			<rect x="1.7" y="5.3" class="st69" width="53.8" height="0.4"/>
			<rect x="1.7" y="5.1" class="st69" width="53.8" height="0.4"/>
			<rect x="1.7" y="4.8" class="st69" width="53.8" height="0.4"/>
			<rect x="1.7" y="4.6" class="st69" width="53.8" height="0.4"/>
			<rect x="1.7" y="4.3" class="st69" width="53.8" height="0.4"/>
			<rect x="1.7" y="4.1" class="st69" width="53.8" height="0.4"/>
			<rect x="1.7" y="3.9" class="st69" width="53.8" height="0.4"/>
			<rect x="1.7" y="3.6" class="st69" width="53.8" height="0.4"/>
			<rect x="1.7" y="3.4" class="st69" width="53.8" height="0.4"/>
			<rect x="1.7" y="3.2" class="st69" width="53.8" height="0.4"/>
			<rect x="1.7" y="2.9" class="st69" width="53.8" height="0.4"/>
			<rect x="1.7" y="2.7" class="st69" width="53.8" height="0.4"/>
			<rect x="1.7" y="2.4" class="st69" width="53.8" height="0.4"/>
			<rect x="1.7" y="2.2" class="st69" width="53.8" height="0.4"/>
			<rect x="1.7" y="2" class="st69" width="53.8" height="0.4"/>
			<rect x="1.7" y="1.7" class="st69" width="53.8" height="0.4"/>
			<rect x="1.7" y="1.5" class="st69" width="53.8" height="0.4"/>
			<rect x="1.7" y="1.2" class="st69" width="53.8" height="0.4"/>
			<rect x="1.7" y="1" class="st69" width="53.8" height="0.4"/>
			<rect x="1.7" y="0.8" class="st69" width="53.8" height="0.4"/>
			<rect x="1.7" y="0.5" class="st69" width="53.8" height="0.4"/>
			<rect x="1.7" y="0.3" class="st69" width="53.8" height="0.4"/>
			<rect x="1.7" class="st69" width="53.8" height="0.4"/>
		</g>
	</g>
</g>
</svg>
