<?xml version="1.0" encoding="utf-8"?>
<!-- Generator: Adobe Illustrator 19.1.0, SVG Export Plug-In . SVG Version: 6.00 Build 0)  -->
<svg version="1.1" id="Слой_1" xmlns="http://www.w3.org/2000/svg" xmlns:xlink="http://www.w3.org/1999/xlink" x="0px" y="0px"
	 width="125px" height="17.2px" viewBox="-417 272.8 125 17.2" style="enable-background:new -417 272.8 125 17.2;"
	 xml:space="preserve">
<style type="text/css">
	.st0{fill:#778AA9;}
</style>
<path class="st0" d="M-398,285.9c-0.6-0.7-1.3-1.3-1.9-2c-0.6-0.6-0.6-0.9-0.2-1.6c0.5-0.7,1.1-1.4,1.6-2.2c0.5-0.7,1-1.4,1.2-2.2
	c0.2-0.5,0-0.7-0.5-0.8c-0.1,0-0.2,0-0.3,0h-3.1c-0.4,0-0.6,0.2-0.7,0.5c-0.2,0.5-0.4,0.9-0.6,1.4c-0.5,1-1.1,2-1.8,2.8
	c-0.2,0.2-0.4,0.4-0.6,0.3c-0.4-0.1-0.5-0.7-0.5-0.9v-3.6c-0.1-0.5-0.2-0.7-0.7-0.8h-3.3c-0.5,0-0.7,0.1-0.9,0.4
	c-0.1,0.2-0.2,0.3,0.1,0.3c0.5,0.1,0.8,0.5,0.9,1c0.1,0.9,0.1,1.7,0,2.6c0,0.3-0.1,0.5-0.2,0.7c-0.1,0.4-0.3,0.5-0.7,0.3
	c-0.3-0.2-0.5-0.5-0.7-0.8c-0.8-1.1-1.4-2.3-1.9-3.5c-0.1-0.4-0.4-0.6-0.8-0.6c-0.9,0-1.9,0-2.8,0c-0.6,0-0.7,0.3-0.5,0.8
	c1,2.3,2.2,4.5,3.7,6.5c0.8,1,1.6,2,2.8,2.6c1.3,0.7,2.7,1,4.1,0.9c0.7,0,0.9-0.2,0.9-0.9c0-0.5,0.1-0.9,0.3-1.3
	c0.2-0.4,0.6-0.5,1-0.2c0.2,0.1,0.4,0.3,0.5,0.5c0.4,0.4,0.8,0.9,1.2,1.3c0.5,0.5,1.1,0.8,1.8,0.7h2.9c0.5,0,0.7-0.6,0.4-1.1
	C-397.5,286.5-397.8,286.2-398,285.9"/>
<path class="st0" d="M-353.6,272.8h-2.1c-2.4,0-3.9,1.6-3.9,4v1.8h-2.1c-0.2,0-0.3,0.2-0.3,0.3v2.7c0,0.2,0.1,0.3,0.3,0.3h2.1v6.7
	c0,0.2,0.1,0.3,0.3,0.3h2.8c0.2,0,0.3-0.1,0.3-0.3v-6.7h2.5c0.2,0,0.3-0.1,0.3-0.3v-2.7c0-0.1,0-0.2-0.1-0.2
	c-0.1-0.1-0.1-0.1-0.2-0.1h-2.5v-1.5c0-0.7,0.2-1.1,1.2-1.1h1.4c0.2,0,0.3-0.1,0.3-0.3v-2.6C-353.3,273-353.4,272.8-353.6,272.8"/>
<path class="st0" d="M-292.6,275.3c-0.8,0.4-1.7,0.7-2.6,0.9c-0.7-0.7-1.8-1.2-3-1.2c-2.3,0-4.1,1.7-4.1,3.8c0,0.3,0,0.6,0.1,0.9
	c-3.4-0.2-6.4-1.7-8.5-4c-0.4,0.6-0.6,1.2-0.6,1.9c0,1.3,0.7,2.5,1.8,3.2c-0.7,0-1.3-0.2-1.9-0.5l0,0c0,1.8,1.4,3.4,3.3,3.7
	c-0.3,0.1-0.7,0.1-1.1,0.1c-0.3,0-0.5,0-0.8-0.1c0.5,1.5,2,2.6,3.8,2.6c-1.4,1-3.2,1.6-5.1,1.6c-0.3,0-0.7,0-1-0.1
	c1.8,1.1,4,1.7,6.3,1.7c7.5,0,11.7-5.8,11.7-10.8v-0.5c0.8-0.5,1.5-1.2,2.1-2c-0.7,0.3-1.5,0.5-2.4,0.6
	C-293.5,276.9-292.9,276.1-292.6,275.3z"/>
</svg>
