<?xml version="1.0" encoding="utf-8"?>
<!-- Generator: Adobe Illustrator 19.1.0, SVG Export Plug-In . SVG Version: 6.00 Build 0)  -->
<svg version="1.1" id="Слой_1" xmlns="http://www.w3.org/2000/svg" xmlns:xlink="http://www.w3.org/1999/xlink" x="0px" y="0px"
	 width="98px" height="98px" viewBox="0 0 98 98" style="enable-background:new 0 0 98 98;" xml:space="preserve">
<style type="text/css">
	.st0{clip-path:url(#SVGID_2_);fill-rule:evenodd;clip-rule:evenodd;fill:#748BAA;}
</style>
<g>
	<defs>
		<rect id="SVGID_1_" y="0" width="98" height="98"/>
	</defs>
	<clipPath id="SVGID_2_">
		<use xlink:href="#SVGID_1_"  style="overflow:visible;"/>
	</clipPath>
	<path class="st0" d="M49,16.4c18.2,0,33,14.8,33,33c0,18.2-14.8,33-33,33c-18.2,0-33-14.8-33-33C16,31.1,30.8,16.4,49,16.4
		 M17.2,78.1c-1-0.2-2.1,0.1-2.9,0.9c-1.3,1.3-1.3,3.3,0,4.6c1.3,1.3,3.3,1.3,4.6,0c0.8-0.8,1.1-1.9,0.9-2.9l4.8-4.8l-2.7-2.7
		L17.2,78.1z M80.8,78.1L76,73.3L73.3,76l4.8,4.8c-0.2,1,0.1,2.1,0.9,2.9c1.3,1.3,3.3,1.3,4.6,0c1.3-1.3,1.3-3.3,0-4.6
		C82.9,78.3,81.8,78,80.8,78.1 M92.1,47.1c0.6-0.8,1.6-1.4,2.7-1.4c1.8,0,3.3,1.5,3.3,3.3s-1.5,3.3-3.3,3.3c-1.1,0-2.1-0.6-2.7-1.4
		h-6.8v-3.8H92.1z M38.8,61.9l-5.2,5.2c3.7,3.2,8.4,5.2,13.6,5.6v-7.4h3.8v7.4c5.2-0.4,9.9-2.5,13.6-5.6l-5.2-5.2l2.7-2.7l5.2,5.2
		c3.2-3.7,5.2-8.4,5.6-13.6h-7.4v-3.8h7.4c-0.4-5.2-2.5-9.9-5.6-13.6l-5.2,5.2l-2.7-2.7l5.2-5.2c-3.7-3.2-8.4-5.2-13.6-5.6v7.4h-3.8
		v-7.4c-5.2,0.4-9.9,2.5-13.6,5.6l5.2,5.2l-2.7,2.7l-5.2-5.2c-3.2,3.7-5.2,8.4-5.6,13.6h7.4v3.8h-7.4c0.4,5.2,2.5,9.9,5.6,13.6
		l5.2-5.2L38.8,61.9z M83.7,14.4c-1.3-1.3-3.3-1.3-4.6,0c-0.8,0.8-1.1,1.9-0.9,2.9l-5.3,5.3l2.7,2.7l5.3-5.3c1,0.2,2.1-0.1,2.9-0.9
		C85,17.7,85,15.6,83.7,14.4 M14.4,14.4c-1.3,1.3-1.3,3.3,0,4.6c0.8,0.8,1.9,1.1,2.9,0.9l5.3,5.3l2.7-2.7l-5.3-5.3
		c0.2-1-0.1-2.1-0.9-2.9C17.7,13.1,15.6,13.1,14.4,14.4 M0,49c0-1.8,1.5-3.3,3.3-3.3c1.1,0,2.1,0.6,2.7,1.4h7.5v3.8H5.9
		c-0.6,0.8-1.6,1.4-2.7,1.4C1.5,52.3,0,50.8,0,49 M50.9,92.1v-7.5h-3.8v7.5c-0.8,0.6-1.4,1.6-1.4,2.7c0,1.8,1.5,3.3,3.3,3.3
		c1.8,0,3.3-1.5,3.3-3.3C52.3,93.7,51.7,92.7,50.9,92.1 M49,0c1.8,0,3.3,1.5,3.3,3.3c0,1.1-0.6,2.1-1.4,2.7v7.5h-3.8V5.9
		c-0.8-0.6-1.4-1.6-1.4-2.7C45.7,1.5,47.2,0,49,0 M49,35.7c-7.4,0-13.4,6-13.4,13.4s6,13.3,13.4,13.3s13.3-6,13.3-13.3
		S56.4,35.7,49,35.7"/>
</g>
</svg>
