<svg 
 xmlns="http://www.w3.org/2000/svg"
 xmlns:xlink="http://www.w3.org/1999/xlink"
 width="24px" height="31px">
<defs>
<filter id="Filter_0">
    <feFlood flood-color="rgb(255, 255, 255)" flood-opacity="1" result="floodOut" />
    <feComposite operator="atop" in="floodOut" in2="SourceGraphic" result="compOut" />
    <feBlend mode="normal" in="compOut" in2="SourceGraphic" />
</filter>

</defs>
<g filter="url(#Filter_0)">
<path fill-rule="evenodd"  fill="rgb(57, 57, 57)"
 d="M23.910,23.132 C23.287,24.603 22.974,25.285 22.152,26.618 C20.816,28.771 19.155,30.973 16.963,30.993 L16.920,30.993 C15.991,30.993 15.376,30.694 14.782,30.406 C14.162,30.104 13.576,29.819 12.500,29.819 L12.464,29.819 C11.368,29.825 10.763,30.111 10.122,30.414 C9.516,30.702 8.889,30.998 7.957,30.998 L7.911,30.998 C5.674,30.978 4.075,28.885 2.806,26.840 C0.569,23.227 -0.419,18.904 0.164,15.277 C0.371,14.002 0.750,12.907 1.290,12.020 C2.749,9.636 5.089,8.155 7.399,8.155 C8.597,8.155 9.556,8.519 10.402,8.841 C11.126,9.115 11.751,9.352 12.436,9.352 C13.055,9.352 13.596,9.135 14.221,8.884 C15.071,8.542 16.034,8.155 17.456,8.155 C19.487,8.155 21.579,9.317 23.050,11.263 C23.179,11.435 23.231,11.658 23.191,11.875 C23.150,12.091 23.022,12.277 22.840,12.383 C21.733,13.030 20.933,14.007 20.526,15.210 C19.704,17.634 20.613,20.968 23.515,22.128 C23.697,22.201 23.843,22.350 23.917,22.540 C23.992,22.730 23.989,22.944 23.910,23.132 ZM19.200,14.705 C19.628,13.439 20.389,12.370 21.423,11.571 C20.279,10.356 18.841,9.649 17.456,9.649 C16.292,9.649 15.493,9.970 14.721,10.281 C14.029,10.559 13.314,10.846 12.436,10.846 C11.506,10.846 10.703,10.542 9.927,10.247 C9.117,9.940 8.352,9.649 7.399,9.649 C5.562,9.649 3.674,10.868 2.473,12.831 C2.038,13.546 1.728,14.456 1.553,15.529 C1.029,18.793 1.937,22.715 3.984,26.020 C4.986,27.635 6.340,29.490 7.924,29.505 L7.957,29.505 C8.588,29.505 9.011,29.304 9.547,29.051 C10.223,28.731 11.064,28.333 12.456,28.325 L12.500,28.325 C13.884,28.325 14.707,28.725 15.370,29.047 C15.889,29.300 16.299,29.499 16.920,29.499 L16.950,29.499 C18.490,29.485 19.909,27.515 20.973,25.800 C21.607,24.771 21.908,24.176 22.332,23.202 C19.480,21.638 18.084,17.993 19.200,14.705 ZM11.723,8.202 C11.723,8.202 11.723,8.202 11.723,8.202 C11.677,8.202 11.631,8.202 11.586,8.201 C11.254,8.189 10.974,7.934 10.915,7.588 C10.637,5.984 11.184,4.107 12.376,2.567 C13.473,1.151 15.285,0.119 16.886,0.000 C17.252,-0.027 17.578,0.250 17.632,0.636 C17.869,2.326 17.351,4.182 16.213,5.730 C15.110,7.232 13.348,8.202 11.723,8.202 ZM13.466,3.515 C13.161,3.909 12.271,5.183 12.250,6.662 C13.294,6.479 14.389,5.782 15.101,4.812 C15.467,4.314 16.229,3.106 16.278,1.620 C15.247,1.911 14.146,2.637 13.466,3.515 Z"/>
</g>
</svg>