<svg xmlns="http://www.w3.org/2000/svg" viewBox="0 0 275.05 512.13"><defs><style>.cls-1{fill:#fff;}</style></defs><title>Ресурс 1</title><g id="Слой_2" data-name="Слой 2"><g id="Layer_1" data-name="Layer 1"><path class="cls-1" d="M264.53,266.63a10.38,10.38,0,0,1-7.3-3L3.23,18.13a10.54,10.54,0,1,1,14.6-15.2l254,245.5a10.56,10.56,0,0,1,.3,14.9A10,10,0,0,1,264.53,266.63Z"/><path class="cls-1" d="M10.53,512.13a10.68,10.68,0,0,1-7.6-3.2,10.56,10.56,0,0,1,.3-14.9l254-245.5a10.54,10.54,0,0,1,14.6,15.2l-254,245.4A10.38,10.38,0,0,1,10.53,512.13Z"/></g></g></svg>