<svg 
 xmlns="http://www.w3.org/2000/svg"
 xmlns:xlink="http://www.w3.org/1999/xlink"
 width="11px" height="7px">
<path fill-rule="evenodd"  fill="rgb(255, 255, 255)"
 d="M11.003,0.995 C11.003,0.899 10.959,0.791 10.893,0.719 L10.341,0.117 C10.275,0.045 10.176,-0.003 10.088,-0.003 C9.999,-0.003 9.900,0.045 9.834,0.117 L5.500,4.844 L1.165,0.117 C1.099,0.045 1.000,-0.003 0.912,-0.003 C0.813,-0.003 0.724,0.045 0.658,0.117 L0.107,0.719 C0.041,0.791 -0.004,0.899 -0.004,0.995 C-0.004,1.091 0.041,1.200 0.107,1.272 L5.246,6.878 C5.312,6.950 5.411,6.998 5.500,6.998 C5.588,6.998 5.687,6.950 5.753,6.878 L10.893,1.272 C10.959,1.200 11.003,1.091 11.003,0.995 Z"/>
</svg>