<svg xmlns="http://www.w3.org/2000/svg" viewBox="0 0 21.55 23.71"><defs><style>.cls-1,.cls-2{fill:none;stroke:#1e3685;stroke-linecap:round;stroke-linejoin:round;}.cls-1{fill-rule:evenodd;}</style></defs><title>Ресурс 1</title><g id="Слой_2" data-name="Слой 2"><g id="Слой_1-2" data-name="Слой 1"><path class="cls-1" d="M.5,1.35C3.92.2,7.34.6,10.77,1.42A19.6,19.6,0,0,0,21,1.35V5.92a22.16,22.16,0,0,1-10.27-.11A19.5,19.5,0,0,0,.5,5.92V1.35Z"/><path class="cls-1" d="M.5,10.48a21,21,0,0,1,10.27-.29A25.62,25.62,0,0,0,21,10.48V5.92a22.16,22.16,0,0,1-10.27-.11A19.5,19.5,0,0,0,.5,5.92v4.57Z"/><path class="cls-1" d="M.5,10.48a21,21,0,0,1,10.27-.29A25.62,25.62,0,0,0,21,10.48V15a30.39,30.39,0,0,1-10.27-.46A22.67,22.67,0,0,0,.5,15V10.48Z"/><line class="cls-2" x1="0.5" y1="0.5" x2="0.5" y2="23.21"/></g></g></svg>