<svg xmlns="http://www.w3.org/2000/svg" viewBox="0 0 28.44 28.44"><defs><style>.cls-1,.cls-2{fill:none;stroke:#1e3685;fill-rule:evenodd;}.cls-1{stroke-linecap:round;stroke-linejoin:round;}.cls-2{stroke-miterlimit:22.93;}</style></defs><title>Ресурс 1</title><g id="Слой_2" data-name="Слой 2"><g id="Слой_1-2" data-name="Слой 1"><path class="cls-1" d="M21.63,18.19l-3-2a.7.7,0,0,0-.79,0l-1.66,1a22.39,22.39,0,0,1-4.63-4.63l1-1.66a.7.7,0,0,0,0-.79l-2-3c-.23-.36-.69-.37-1.12-.07A11,11,0,0,0,7.6,8.73c-.11.13-.23.35-.2,1a4.26,4.26,0,0,0,.44,1.66,23.62,23.62,0,0,0,9.53,9.53,4.26,4.26,0,0,0,1.66.44c.65,0,.87-.09,1-.2a11,11,0,0,0,1.67-1.84C22,18.89,22,18.43,21.63,18.19Z"/><path class="cls-2" d="M27.94,14.22a13.72,13.72,0,1,1-2.31-7.63"/><polyline class="cls-2" points="26.01 2.35 26.01 7.09 21.27 7.09"/></g></g></svg>