<svg xmlns="http://www.w3.org/2000/svg" viewBox="0 0 31.1 23"><defs><style>.cls-1,.cls-2{fill:none;stroke:#1e3685;stroke-linecap:round;stroke-linejoin:round;}.cls-1{fill-rule:evenodd;}</style></defs><title>Ресурс 1</title><g id="Слой_2" data-name="Слой 2"><g id="Слой_1-2" data-name="Слой 1"><path class="cls-1" d="M7.61,22.5A7.13,7.13,0,1,0,.5,15.37,7.13,7.13,0,0,0,7.61,22.5Z"/><ellipse class="cls-2" cx="21.74" cy="19.59" rx="2.9" ry="2.91"/><circle class="cls-2" cx="7.61" cy="15.37" r="1.51"/><path class="cls-1" d="M7.64,8.23V4.71h12.9a1.16,1.16,0,0,1,1.15,1.15V16.68"/><path class="cls-1" d="M4.5.5H6.6a1,1,0,0,1,1,1V5.19"/><rect class="cls-2" x="27.36" y="19.96" width="3.2" height="1.45" rx="0.23" ry="0.23" transform="translate(-1.8 2.79) rotate(-5.36)"/><path class="cls-1" d="M21.69,14.31l.81.08c.79.12,1.21.89,1.55,1.37L27.38,21"/><line class="cls-2" x1="7.64" y1="7.07" x2="21.69" y2="7.07"/><line class="cls-2" x1="13.71" y1="11.74" x2="21.69" y2="11.74"/></g></g></svg>