<svg xmlns="http://www.w3.org/2000/svg" viewBox="0 0 30.24 28.69"><defs><style>.cls-1{fill:none;stroke:#1e3685;stroke-linecap:round;stroke-linejoin:round;stroke-width:0.96px;}</style></defs><title>Ресурс 1</title><g id="Слой_2" data-name="Слой 2"><g id="Слой_1-2" data-name="Слой 1"><polyline class="cls-1" points="16.28 21.07 0.48 21.07 0.48 0.48 29.76 0.5 29.76 21.07 23.29 21.07"/><path class="cls-1" d="M19.78,23.92a3.05,3.05,0,1,0-3.05-3.05,3.06,3.06,0,0,0,3.05,3.05"/><polyline class="cls-1" points="22.58 22.39 25.13 26.5 23 26.16 22.27 28.21 19.78 24.13"/><polyline class="cls-1" points="16.96 22.41 14.42 26.5 16.56 26.16 17.29 28.21 19.78 24.13"/><path class="cls-1" d="M20,23.91a3,3,0,0,0,2.12-1.06"/><path class="cls-1" d="M19.62,23.92a3,3,0,0,1-2.13-1"/><line class="cls-1" x1="5.4" y1="6.28" x2="24.84" y2="6.28"/><line class="cls-1" x1="5.4" y1="10.87" x2="24.84" y2="10.87"/><line class="cls-1" x1="5.4" y1="15.45" x2="14.36" y2="15.45"/></g></g></svg>