<svg xmlns="http://www.w3.org/2000/svg" viewBox="0 0 33.17 26.18"><defs><style>.cls-1{fill:none;stroke:#1e3685;stroke-linecap:round;stroke-linejoin:round;fill-rule:evenodd;}</style></defs><title>Ресурс 2</title><g id="Слой_2" data-name="Слой 2"><g id="Слой_1-2" data-name="Слой 1"><path class="cls-1" d="M13.58,13.84C10.93,11.69,8.22,8.92,8,6.19,7.54.63,14-1.93,16.93,3.51c2.89-5.44,9.38-2.88,8.93,2.68-.24,3-3.51,6.06-6.37,8.28"/><path class="cls-1" d="M13.89,18.1a5.26,5.26,0,0,0,1.77-.25c1.68-.23,5.89-.23,7.75-.23,2.54,0,3-3-.8-3.07-2.25,0-6.18.26-7.19,0s-2-.65-3.11-.85a7.81,7.81,0,0,0-6.05,1.73c-.36.3-.77.62-1.09.93l-.48.51a10.71,10.71,0,0,1-.9.58m2.75,4.9a15.6,15.6,0,0,1,1.63-.67c2.72-.67,7.66.43,10.69.39a7.59,7.59,0,0,0,3-.61,65.58,65.58,0,0,0,10-8.29c1.56-1.6.76-2.44-1.11-1.93-1.23.33-4.68,3.43-5.51,4.33"/><path class="cls-1" d="M30,11.58c-1.65-.92-2.31-.26-3.92,1.06l-2.2,2.07"/><polygon class="cls-1" points="3.16 16.3 0.5 17.82 4.93 25.68 7.6 24.15 3.16 16.3"/></g></g></svg>