<svg xmlns="http://www.w3.org/2000/svg" viewBox="0 0 36.21 22.76"><defs><style>.cls-1,.cls-2{fill:none;stroke:#1e3685;stroke-linecap:round;stroke-linejoin:round;}.cls-1{fill-rule:evenodd;}</style></defs><title>Ресурс 1</title><g id="Слой_2" data-name="Слой 2"><g id="Слой_1-2" data-name="Слой 1"><path class="cls-1" d="M12.55,12.05,9.77,16.16a1.48,1.48,0,1,1-2.45-1.66l2.78-4.11A1.48,1.48,0,1,1,12.55,12.05Z"/><path class="cls-1" d="M7.1,14.93,4.93,12.48a5.14,5.14,0,0,0-1.36-1.11L6.82,2a16.31,16.31,0,0,0,6.19-1C14.72.57,16.1.14,17.89,1c-.68.12-1.33.24-1.65.31-1.14.28-2.53,1.67-4.86,3.53-.48.38-.9.69-1.34,1-.6.48.07,1.6,2,1.47a9.8,9.8,0,0,0,3.41-1c2.11-1,4.45-.37,6.35.92s4.12,4.67,6.63,6.66h0l0,.06a1.48,1.48,0,0,1-2,2.15A1.63,1.63,0,0,1,24,18.13a1.63,1.63,0,0,1-2.54,2,1.48,1.48,0,0,1-2.71.9l-.39-.49"/><path class="cls-1" d="M20.45,17.39,17.67,21.5a1.48,1.48,0,1,1-2.45-1.66L18,15.73A1.48,1.48,0,1,1,20.45,17.39Z"/><path class="cls-1" d="M12.7,11.83,9.62,16.39a1.64,1.64,0,1,0,2.72,1.84l3.08-4.56A1.64,1.64,0,1,0,12.7,11.83Z"/><path class="cls-1" d="M18.13,15.5l-3.08,4.56a1.64,1.64,0,1,1-2.72-1.84l3.08-4.56A1.64,1.64,0,1,1,18.13,15.5Z"/><path class="cls-1" d="M11.38,4.8c2.33-1.86,3.72-3.25,4.86-3.53.77-.17,3.45-.63,3.9-.69,1.08-.14,1.63,0,3.44.58a21.69,21.69,0,0,0,5.66,1.12l3.43,9.11-4.2,2.48c-2.51-2-4.61-5.29-6.63-6.66s-4.24-1.92-6.35-.92a9.8,9.8,0,0,1-3.41,1c-2,.13-2.64-1-2-1.47C10.48,5.49,10.9,5.19,11.38,4.8Z"/><rect class="cls-2" x="30.85" y="1.11" width="3.15" height="10.21" transform="translate(-0.1 11.92) rotate(-20.8)"/><rect class="cls-2" x="-1.43" y="4.73" width="10.21" height="3.15" transform="translate(-3.49 7.69) rotate(-70.68)"/></g></g></svg>