<svg xmlns="http://www.w3.org/2000/svg" viewBox="0 0 27.23 25.3"><defs><style>.cls-1,.cls-2{fill:none;stroke:#1e3685;stroke-linecap:round;stroke-linejoin:round;}.cls-1{fill-rule:evenodd;}</style></defs><title>Ресурс 1</title><g id="Слой_2" data-name="Слой 2"><g id="Слой_1-2" data-name="Слой 1"><polyline class="cls-1" points="8.54 12.35 8.54 0.5 26.73 0.5 26.73 24.8 12.25 24.8"/><path class="cls-1" d="M6.27,19.62H2.16A1.67,1.67,0,0,1,.5,18V16.31a1.67,1.67,0,0,1,1.66-1.66H12.48a1.67,1.67,0,0,1,1.66,1.66V18a1.67,1.67,0,0,1-1.66,1.66H8.37"/><path class="cls-1" d="M13.56,19.22v4.17a1.42,1.42,0,0,1-1.41,1.42H2.49a1.42,1.42,0,0,1-1.41-1.42V19.22"/><path class="cls-2" d="M6.83,18.24h1a.55.55,0,0,1,.55.55v1.62a.56.56,0,0,1-.56.56h-1a.55.55,0,0,1-.55-.55V18.8A.56.56,0,0,1,6.83,18.24Z"/><path class="cls-1" d="M4.88,14.64V13.27a.92.92,0,0,1,.92-.92h3a.92.92,0,0,1,.92.92v1.37"/><rect class="cls-2" x="11.64" y="3.98" width="12" height="3"/><rect class="cls-2" x="11.64" y="9.95" width="12" height="3"/><polyline class="cls-2" points="14.1 15.92 23.64 15.92 23.64 18.92 14 18.92"/></g></g></svg>