<svg xmlns="http://www.w3.org/2000/svg" viewBox="0 0 489.05 512">
	<title>Ресурс 2</title>
	<g id="Слой_2" data-name="Слой 2">
		<g id="Layer_1" data-name="Layer 1">
			<path fill="#ffffff" d="M448.75,386.36l-1.83-.52c-26.47-7.12-35.42-13.94-47.2-18.42C357.92,351.5,347,340,344.27,334.59c-.09-.19-.17-.41-.27-.59l-.27-36.53c22.36-29.93,38.34-67.28,38.34-106,0,0,15.09-64.32-21-124.85l0-.27-.14,0a165.87,165.87,0,0,0-31.3-38C315.74,15.84,281.47,0,240.14,0c-28.3,0-59.91,7.42-90.55,28.41C90.16,69.12,96.16,171.79,96.16,171.79a113.24,113.24,0,0,0,11.64,2q-.82,8.63-.83,17.67c0,38.7,16,76,38.34,106L145,334c-.09.19-.17.41-.27.59C142,340,131.12,351.5,89.33,367.42c-11.78,4.48-20.73,11.3-47.2,18.42l-1.83.52A58.51,58.51,0,0,0,0,441.89V512H489V441.89A58.51,58.51,0,0,0,448.75,386.36ZM350.81,93.19a154.68,154.68,0,0,1,11.73,43.16c.3,2.39.55,4.72.73,7a86.32,86.32,0,0,0-11.44-16.69,64,64,0,0,0-15.61-13C340.55,103.23,346,97,350.81,93.19ZM121.7,118.51c3.11-15.72,7.7-29.61,13.7-41.27,6.94-13.55,15.77-24.06,26.23-31.23,23.91-16.37,50.33-24.67,78.5-24.67,36.34,0,65.39,14,75.17,22.89a146.18,146.18,0,0,1,25.39,30c-8.47,5.67-17.84,15.42-24.55,32.16a63.68,63.68,0,0,0-10.8-.91c-15.92,0-33.08,5.38-52.45,16.45-46.67,26.66-89.84,32.27-117.84,32.27-6.7,0-12.59-.33-17.48-.77A238.84,238.84,0,0,1,121.7,118.51Zm73,372.15H21.33V441.89a37.18,37.18,0,0,1,25.33-35.16l1.19-.34A205.72,205.72,0,0,0,87.67,391.5c3.42-1.62,6.38-3.06,9.25-4.16,15.75-6,35.41-14.28,49.86-24.81l45.3,23.69,7.83-6.62,5.52,27.56Zm-32.3-144c.47-.77.92-1.53,1.33-2.31a18.84,18.84,0,0,0,.8-1.73l1.78-3.94,0-4.52.09-12.33a179.56,179.56,0,0,0,35.8,27.81l-13,11Zm82.09,144h-28.3L225.8,416h37.42L274,490.66Zm-26-126.81,5.19-4.41a67.09,67.09,0,0,0,20.83,3.69,68.72,68.72,0,0,0,22-4.08l4.25,3.61-6.39,32h-39.7Zm26-22.06c-8.84,0-20.45-4-32.7-11.25-13.7-8.16-27.42-19.81-39.67-33.78C144.28,265,128.3,226.63,128.3,191.49q0-8.18.78-16c1.94.05,3.92.08,6,.08,31.22,0,78-6.27,128.42-35.07,17-9.7,30.69-13.65,41.88-13.65,26.86,0,39,22.8,46.34,43.42,2.5,7.06,5.64,11.93,8.92,15.26.08,2,.13,4,.13,6,0,35.13-16,73.5-43.86,105.26-12.25,14-26,25.64-39.67,33.78C265,337.78,253.36,341.78,244.53,341.78Zm82.48,5.5-25.58,13.38-13.69-11.59a181.14,181.14,0,0,0,34.83-27.25l.1,12.33,0,4.52,1.77,3.94c.16.34.42,1,.81,1.73C325.8,345.33,326.39,346.31,327,347.28Zm67.64,143.37h-64m-21.33,0H295.58l-12-83.12,5.83-29.12,9.23,7.81L343,363c14.39,10.31,33.69,18.44,49.19,24.34,2.86,1.08,5.81,2.52,9.23,4.14a205.72,205.72,0,0,0,39.83,14.89l1.19.34a37.16,37.16,0,0,1,25.33,35.16v48.77H416"/>
		</g>
	</g>
</svg>