<svg 
 xmlns="http://www.w3.org/2000/svg"
 xmlns:xlink="http://www.w3.org/1999/xlink"
 width="59px" height="64px">
<path fill-rule="evenodd"  stroke-width="1px" stroke="rgb(30, 54, 133)" fill-opacity="0" fill="rgb(30, 54, 133)"
 d="M51.271,13.389 C53.543,15.072 55.709,18.923 56.028,21.826 C56.042,21.959 56.067,22.231 56.100,22.617 C56.155,23.264 56.210,23.995 56.261,24.798 C56.407,27.090 56.495,29.486 56.495,31.866 C56.495,34.245 56.407,36.641 56.261,38.934 C56.210,39.737 56.155,40.468 56.100,41.115 C56.067,41.501 56.042,41.772 56.027,41.913 C55.709,44.808 53.543,48.660 51.271,50.343 C51.158,50.427 50.940,50.586 50.627,50.810 C50.104,51.184 49.509,51.602 48.853,52.052 C46.977,53.338 44.991,54.624 42.982,55.822 L43.041,55.790 C40.975,57.019 38.903,58.141 36.885,59.153 C36.178,59.507 35.529,59.822 34.952,60.095 C34.608,60.257 34.365,60.369 34.238,60.425 C31.637,61.595 27.313,61.595 24.756,60.428 C24.631,60.370 24.387,60.256 24.042,60.091 C23.464,59.814 22.814,59.494 22.107,59.138 C20.086,58.117 18.011,56.999 16.003,55.819 L16.042,55.844 C13.979,54.623 11.989,53.338 10.122,52.052 C9.469,51.603 8.877,51.186 8.359,50.812 C8.049,50.588 7.834,50.429 7.722,50.346 C5.446,48.660 3.281,44.808 2.961,41.905 C2.948,41.772 2.922,41.501 2.890,41.115 C2.835,40.468 2.780,39.737 2.729,38.934 C2.582,36.641 2.495,34.245 2.495,31.866 C2.495,29.486 2.582,27.090 2.729,24.798 C2.780,23.995 2.835,23.264 2.890,22.617 C2.922,22.231 2.948,21.959 2.962,21.819 C3.277,18.956 5.465,15.088 7.724,13.385 C7.828,13.308 8.039,13.154 8.342,12.937 C8.850,12.575 9.427,12.170 10.065,11.734 C11.888,10.489 13.824,9.244 15.788,8.083 C15.895,8.020 15.895,8.020 16.003,7.956 C18.014,6.756 20.086,5.635 22.105,4.623 C22.811,4.269 23.460,3.953 24.037,3.681 C24.381,3.519 24.624,3.407 24.751,3.350 C27.352,2.181 31.676,2.181 34.234,3.348 C34.365,3.407 34.608,3.519 34.952,3.681 C35.529,3.953 36.178,4.269 36.885,4.623 C38.903,5.635 40.975,6.756 42.982,7.953 C43.098,8.022 43.098,8.022 43.206,8.084 C45.186,9.245 47.124,10.489 48.939,11.734 C49.574,12.169 50.148,12.573 50.650,12.936 C50.950,13.151 51.159,13.306 51.267,13.386 L51.271,13.389 Z"/>
</svg>