<svg xmlns="http://www.w3.org/2000/svg" viewBox="0 0 489.05 512"><title>Ресурс 1</title><g id="Слой_2" data-name="Слой 2"><g id="Layer_1" data-name="Layer 1"><path fill="#ffffff" d="M448.74,407.68l-1.81-.52c-26.47-7.11-35.42-13.94-47.22-18.42C371.08,377.84,357,369,350,362.78l-6.12-23.84-.14-19.77c22.36-29.92,38.34-67.28,38.34-106a183.5,183.5,0,0,0-1.22-21.2h23.66a10.67,10.67,0,0,0,0-21.34H393.86a149.38,149.38,0,0,0-96-139.51V21.34a10.68,10.68,0,0,0-5.94-9.56C291,11.3,267.94,0,244.52,0s-46.45,11.3-47.41,11.78a10.67,10.67,0,0,0-5.92,9.56v9.82a149.37,149.37,0,0,0-96,139.51H84.52a10.67,10.67,0,0,0,0,21.34h23.66A183.52,183.52,0,0,0,107,213.2c0,38.69,16,76,38.34,106l-.14,19.77L139,362.78c-6.95,6.22-21.06,15.06-49.71,26-11.79,4.48-20.74,11.31-47.21,18.42l-1.81.52A58.52,58.52,0,0,0,0,463.22V512H489.05V463.22A58.52,58.52,0,0,0,448.74,407.68ZM154,80.16A128,128,0,0,1,191.2,54.24V96a10.67,10.67,0,0,0,21.34,0l0-67.73c7.82-3.06,20.45-7,32-7,12.17,0,24.81,4.17,32,7V94.66a10.67,10.67,0,1,0,21.34,0V54.25a128.31,128.31,0,0,1,74.65,116.41h-256A127.16,127.16,0,0,1,154,80.16Zm-25.71,133a162.33,162.33,0,0,1,1.38-21.2H359.36a162.16,162.16,0,0,1,1.38,21.2c0,35.13-16,73.5-43.84,105.26-12.25,13.94-26,25.63-39.69,33.77C265,359.5,253.36,363.5,244.52,363.5s-20.45-4-32.69-11.27c-13.72-8.14-27.44-19.83-39.69-33.77C144.29,286.7,128.3,248.34,128.3,213.2ZM262.94,401.65,258.17,416h-27.3l-4.77-14.34,18.42-15.78Zm-59.67,89H21.33V463.22a37.17,37.17,0,0,1,25.33-35.16l1.19-.34a206.76,206.76,0,0,0,39.81-14.87c3.42-1.66,6.38-3.06,9.26-4.16,15.33-5.84,34.38-13.86,48.7-24l25.52,47.06a10.64,10.64,0,0,0,7.44,5.41,10.12,10.12,0,0,0,1.94.19,10.66,10.66,0,0,0,6.94-2.58l21.15-18.11,3.66,11ZM183.61,410l-23.52-43.37,6-23.44c17,16.92,35.67,29.66,53,36.38Zm60.91,80.69h-19.7l7.63-53.31H256.6l7.63,53.31Zm78.41-147.5,6,23.44L305.43,410,269.9,379.53C287.27,372.81,305.93,360.08,322.93,343.15Zm144.78,147.5H285.77l-9-63,3.66-11,21.16,18.11a10.62,10.62,0,0,0,6.94,2.58,10,10,0,0,0,1.94-.19,10.64,10.64,0,0,0,7.44-5.41l25.53-47.06c14.33,10.16,33.38,18.16,48.72,24,2.84,1.09,5.81,2.5,9.23,4.16a206.71,206.71,0,0,0,39.81,14.88l1.2.34a37.17,37.17,0,0,1,25.31,35.16Z"/></g></g></svg>