<svg 
 xmlns="http://www.w3.org/2000/svg"
 xmlns:xlink="http://www.w3.org/1999/xlink"
 width="19px" height="22px">
<defs>
<filter id="Filter_0">
    <feFlood flood-color="rgb(255, 255, 255)" flood-opacity="1" result="floodOut" />
    <feComposite operator="atop" in="floodOut" in2="SourceGraphic" result="compOut" />
    <feBlend mode="normal" in="compOut" in2="SourceGraphic" />
</filter>

</defs>
<g filter="url(#Filter_0)">
<path fill-rule="evenodd"  fill="rgb(57, 57, 57)"
 d="M17.834,8.898 L3.464,0.317 C3.114,0.108 2.717,-0.001 2.315,-0.001 C1.907,-0.001 1.506,0.111 1.153,0.325 C0.442,0.756 -0.000,1.557 -0.000,2.417 L-0.000,19.580 C-0.000,20.439 0.442,21.240 1.153,21.671 C1.505,21.885 1.907,21.998 2.315,21.998 C2.717,21.998 3.114,21.888 3.464,21.679 L17.834,13.098 C18.553,12.668 19.000,11.864 19.000,10.998 C19.000,10.133 18.553,9.328 17.834,8.898 ZM11.607,6.869 L9.634,9.741 L4.914,2.873 L11.607,6.869 ZM2.224,20.523 C2.096,20.510 1.970,20.471 1.858,20.403 C1.578,20.233 1.404,19.918 1.404,19.580 L1.404,2.417 C1.404,2.079 1.578,1.763 1.858,1.594 C1.970,1.525 2.095,1.485 2.223,1.471 L8.769,10.998 L2.224,20.523 ZM4.914,19.124 L9.634,12.256 L11.607,15.127 L4.914,19.124 ZM17.137,11.824 L12.832,14.395 L10.498,10.998 L12.832,7.601 L17.137,10.172 C17.420,10.341 17.596,10.658 17.596,10.998 C17.596,11.339 17.420,11.656 17.137,11.824 Z"/>
</g>
</svg>