<svg 
 xmlns="http://www.w3.org/2000/svg"
 xmlns:xlink="http://www.w3.org/1999/xlink"
 width="110px" height="120px">
<defs>
<filter id="Filter_0">
    <feFlood flood-color="rgb(255, 255, 255)" flood-opacity="1" result="floodOut" />
    <feComposite operator="atop" in="floodOut" in2="SourceGraphic" result="compOut" />
    <feBlend mode="normal" in="compOut" in2="SourceGraphic" />
</filter>

</defs>
<g filter="url(#Filter_0)">
<path fill-rule="evenodd"  fill="rgb(255, 255, 255)"
 d="M98.765,22.339 C103.362,25.764 107.743,33.600 108.390,39.506 C108.417,39.777 108.468,40.329 108.535,41.115 C108.646,42.430 108.757,43.919 108.860,45.552 C109.156,50.216 109.334,55.092 109.334,59.933 C109.334,64.774 109.156,69.650 108.860,74.315 C108.757,75.948 108.646,77.436 108.535,78.751 C108.468,79.537 108.417,80.089 108.388,80.375 C107.743,86.266 103.362,94.103 98.765,97.528 C98.536,97.698 98.095,98.022 97.462,98.478 C96.404,99.240 95.200,100.089 93.873,101.005 C90.079,103.621 86.059,106.237 81.995,108.677 L82.114,108.611 C77.936,111.113 73.744,113.394 69.659,115.453 C68.230,116.174 66.917,116.815 65.750,117.369 C65.053,117.700 64.562,117.927 64.306,118.043 C59.043,120.422 50.294,120.422 45.121,118.047 C44.868,117.930 44.375,117.698 43.676,117.361 C42.508,116.798 41.193,116.148 39.762,115.422 C35.673,113.346 31.476,111.071 27.412,108.670 L27.492,108.721 C23.317,106.235 19.292,103.621 15.515,101.006 C14.193,100.092 12.997,99.243 11.948,98.481 C11.322,98.027 10.885,97.703 10.660,97.533 C6.055,94.103 1.674,86.266 1.027,80.361 C1.000,80.089 0.949,79.537 0.882,78.751 C0.772,77.436 0.661,75.948 0.557,74.315 C0.261,69.650 0.084,64.774 0.084,59.933 C0.084,55.092 0.261,50.216 0.557,45.552 C0.661,43.919 0.772,42.430 0.882,41.115 C0.949,40.329 1.000,39.777 1.029,39.491 C1.667,33.665 6.092,25.796 10.664,22.330 C10.873,22.174 11.301,21.860 11.914,21.420 C12.940,20.682 14.109,19.859 15.400,18.972 C19.087,16.438 23.005,13.905 26.978,11.542 C27.195,11.414 27.195,11.414 27.412,11.285 C31.481,8.843 35.673,6.562 39.758,4.502 C41.187,3.782 42.500,3.140 43.667,2.587 C44.364,2.256 44.855,2.028 45.111,1.913 C50.374,-0.466 59.123,-0.466 64.296,1.908 C64.562,2.028 65.053,2.256 65.750,2.587 C66.917,3.140 68.230,3.782 69.659,4.502 C73.744,6.562 77.936,8.843 81.995,11.279 C82.230,11.418 82.230,11.418 82.449,11.546 C86.454,13.907 90.376,16.438 94.047,18.971 C95.332,19.856 96.492,20.679 97.509,21.416 C98.117,21.856 98.539,22.169 98.757,22.333 L98.765,22.339 Z"/>
</g>
</svg>