<svg 
 xmlns="http://www.w3.org/2000/svg"
 xmlns:xlink="http://www.w3.org/1999/xlink"
 width="146px" height="157px">
<defs>
<filter filterUnits="userSpaceOnUse" id="Filter_0" x="0px" y="0px" width="146px" height="157px"  >
    <feOffset in="SourceAlpha" dx="0" dy="0" />
    <feGaussianBlur result="blurOut" stdDeviation="4" />
    <feFlood flood-color="rgb(0, 20, 66)" result="floodOut" />
    <feComposite operator="atop" in="floodOut" in2="blurOut" />
    <feComponentTransfer><feFuncA type="linear" slope="0.14"/></feComponentTransfer>
    <feMerge>
    <feMergeNode/>
    <feMergeNode in="SourceGraphic"/>
  </feMerge>
</filter>
<filter id="Filter_1">
    <feFlood flood-color="#1e3685" flood-opacity="1" result="floodOut" />
    <feComposite operator="atop" in="floodOut" in2="SourceGraphic" result="compOut" />
    <feBlend mode="normal" in="compOut" in2="SourceGraphic" />
</filter>

</defs>
<g filter="url(#Filter_0)">
<g filter="url(#Filter_1)">
<path fill-rule="evenodd"  fill="#1e3685"
 d="M118.875,38.389 C123.714,41.994 128.326,50.243 129.006,56.460 C129.035,56.745 129.089,57.326 129.159,58.154 C129.276,59.538 129.392,61.105 129.501,62.824 C129.813,67.734 130.000,72.866 130.000,77.962 C130.000,83.058 129.813,88.190 129.501,93.101 C129.392,94.819 129.276,96.387 129.159,97.771 C129.089,98.598 129.035,99.179 129.005,99.480 C128.326,105.681 123.714,113.930 118.875,117.535 C118.634,117.714 118.169,118.056 117.504,118.535 C116.390,119.337 115.123,120.232 113.725,121.195 C109.732,123.949 105.500,126.703 101.222,129.271 L101.348,129.202 C96.950,131.835 92.537,134.236 88.238,136.404 C86.733,137.163 85.351,137.838 84.123,138.421 C83.389,138.770 82.872,139.008 82.602,139.130 C77.063,141.635 67.853,141.635 62.408,139.135 C62.141,139.012 61.622,138.767 60.887,138.413 C59.657,137.820 58.273,137.136 56.767,136.372 C52.462,134.186 48.044,131.791 43.767,129.264 L43.851,129.318 C39.456,126.701 35.219,123.949 31.243,121.197 C29.852,120.234 28.593,119.341 27.489,118.539 C26.829,118.061 26.370,117.720 26.133,117.541 C21.286,113.930 16.674,105.681 15.993,99.465 C15.965,99.179 15.911,98.598 15.841,97.771 C15.724,96.387 15.607,94.819 15.498,93.101 C15.187,88.190 15.000,83.058 15.000,77.962 C15.000,72.866 15.187,67.734 15.498,62.824 C15.607,61.105 15.724,59.538 15.841,58.154 C15.911,57.326 15.965,56.745 15.995,56.444 C16.667,50.312 21.325,42.028 26.137,38.380 C26.357,38.216 26.808,37.886 27.453,37.422 C28.533,36.645 29.764,35.779 31.122,34.845 C35.004,32.178 39.127,29.512 43.310,27.024 C43.538,26.889 43.538,26.889 43.767,26.754 C48.050,24.183 52.463,21.782 56.762,19.614 C58.266,18.855 59.649,18.180 60.877,17.597 C61.611,17.249 62.128,17.010 62.397,16.888 C67.937,14.384 77.146,14.384 82.592,16.884 C82.872,17.010 83.389,17.249 84.123,17.597 C85.351,18.180 86.733,18.855 88.238,19.614 C92.537,21.782 96.950,24.183 101.222,26.747 C101.470,26.893 101.470,26.893 101.700,27.028 C105.917,29.513 110.044,32.178 113.909,34.843 C115.261,35.776 116.483,36.642 117.553,37.418 C118.193,37.881 118.638,38.210 118.867,38.383 L118.875,38.389 Z"/>
</g></g>
</svg>