<svg 
 xmlns="http://www.w3.org/2000/svg"
 xmlns:xlink="http://www.w3.org/1999/xlink"
 width="35px" height="38px">
<path fill-rule="evenodd"  fill="rgb(255, 255, 255)"
 d="M4.793,28.065 C4.799,27.953 4.770,27.766 4.670,27.682 C4.506,27.988 4.144,27.975 3.963,27.894 C3.921,27.988 3.944,28.246 4.070,28.307 C4.276,28.407 4.635,28.414 4.793,28.065 L4.793,28.065 ZM4.280,28.465 C3.950,29.497 5.625,29.178 4.770,28.307 C4.651,28.387 4.386,28.488 4.280,28.465 L4.280,28.465 ZM3.031,23.330 C3.024,23.243 2.937,23.182 2.837,23.179 C2.682,23.372 2.511,23.330 2.453,23.302 C2.366,23.359 2.366,23.443 2.417,23.553 C2.575,23.620 2.837,23.679 3.031,23.330 L3.031,23.330 ZM2.475,23.095 C2.475,23.159 2.540,23.230 2.611,23.230 C2.679,23.230 2.737,23.159 2.737,23.095 C2.737,23.030 2.679,22.966 2.611,22.966 C2.540,22.966 2.475,23.030 2.475,23.095 L2.475,23.095 ZM4.586,27.563 L2.950,23.595 C2.872,23.679 2.766,23.688 2.695,23.688 L3.973,27.717 C4.205,27.936 4.470,27.788 4.586,27.563 L4.586,27.563 ZM4.393,29.226 C4.234,29.307 4.280,29.590 4.493,29.654 C4.899,29.684 5.035,29.632 5.432,29.361 C5.467,29.113 5.432,29.000 5.183,28.971 C5.077,29.162 4.577,29.307 4.393,29.226 L4.393,29.226 ZM19.653,20.368 C19.601,20.362 19.440,20.326 19.330,20.288 L19.388,20.426 C19.482,20.446 19.611,20.487 19.669,20.487 L19.653,20.368 ZM29.765,27.824 L29.713,29.235 L31.140,29.413 C30.975,28.736 30.420,27.875 29.765,27.824 L29.765,27.824 ZM5.919,33.613 C5.897,33.848 5.948,34.241 6.297,34.241 C6.697,34.312 7.036,34.106 7.188,33.970 C7.343,33.829 7.207,33.478 7.030,33.313 C6.674,33.948 6.374,33.777 5.919,33.613 L5.919,33.613 ZM6.510,34.383 C6.781,34.937 7.372,34.589 7.171,34.148 C7.030,34.270 6.674,34.383 6.510,34.383 L6.510,34.383 ZM30.301,31.456 C30.078,31.327 29.913,31.411 29.836,31.750 C29.742,31.869 29.578,31.953 29.210,32.062 C28.851,32.168 28.680,32.353 28.516,32.468 C28.516,32.468 28.574,32.575 28.716,32.517 C28.851,32.459 29.365,32.417 29.500,32.298 C29.636,32.191 29.836,32.027 29.994,31.940 C30.184,31.976 30.536,31.575 30.301,31.456 L30.301,31.456 ZM2.695,22.895 C2.772,22.824 2.817,22.718 2.817,22.605 C2.817,22.399 2.653,22.234 2.446,22.234 C2.259,22.234 2.088,22.399 2.088,22.605 C2.088,22.812 2.259,22.983 2.424,22.966 C2.446,22.882 2.601,22.808 2.695,22.895 L2.695,22.895 ZM13.669,22.966 C13.798,22.983 13.998,22.431 13.998,22.431 C13.998,22.431 14.053,22.773 13.956,22.966 C14.175,22.889 14.353,22.412 14.353,22.412 C14.353,22.412 14.392,22.753 14.311,22.937 C14.760,22.795 14.740,21.693 15.053,21.486 C14.866,21.651 15.466,22.773 14.782,22.953 C14.866,23.208 14.711,24.078 14.527,24.314 C14.359,24.562 14.524,24.604 14.547,24.642 C14.582,24.671 14.488,24.949 14.488,25.061 C14.847,25.351 15.082,25.048 15.082,25.019 C15.082,24.991 15.037,24.832 14.976,24.739 C14.831,24.149 15.247,23.578 15.312,23.479 C15.379,23.379 16.057,23.114 16.128,23.082 C16.193,23.047 16.322,23.208 16.338,23.295 C16.351,23.401 16.209,23.452 16.238,23.595 C16.251,23.736 16.741,24.036 16.745,24.036 C16.741,24.036 17.042,24.284 17.071,24.398 C17.100,24.504 17.177,24.513 17.242,24.519 C17.293,24.536 17.442,24.655 17.448,24.739 C17.677,24.939 17.884,24.903 17.897,24.884 C17.897,24.884 17.871,24.620 17.871,24.604 C17.829,24.485 17.600,24.355 17.413,24.272 C17.342,24.143 16.977,23.684 16.880,23.578 C16.770,23.472 16.829,23.401 16.900,23.353 C16.958,23.314 17.222,22.995 17.293,22.859 L17.890,24.242 C17.920,24.297 17.920,24.455 17.900,24.513 C18.278,25.387 17.364,24.897 17.364,24.813 C17.364,24.739 17.284,24.620 17.171,24.626 C15.709,23.656 15.360,24.536 15.525,24.961 C15.424,25.010 15.237,25.110 15.147,25.110 C14.782,25.467 14.463,25.219 14.392,25.132 C13.962,25.151 13.969,24.684 14.017,24.162 C13.043,25.909 15.212,25.664 15.579,25.374 C15.525,25.416 15.618,25.574 15.689,25.587 C15.786,25.680 15.957,25.745 16.096,25.745 C16.060,25.786 16.086,25.874 16.160,25.922 L16.315,25.851 C16.403,25.851 16.741,25.931 16.764,26.028 L16.635,26.122 C16.622,26.151 16.651,26.251 16.764,26.308 L16.935,26.202 C16.964,26.228 17.277,26.299 17.300,26.392 L17.222,26.499 C17.242,26.544 17.293,26.615 17.400,26.615 L18.207,25.922 C18.455,26.109 18.817,26.022 18.791,25.828 L19.540,26.441 C19.604,26.441 19.711,26.357 19.740,26.244 L19.582,26.102 C19.559,25.957 19.804,25.816 19.946,25.851 L20.137,25.980 C20.172,25.973 20.253,25.874 20.272,25.764 L20.108,25.645 C20.137,25.493 20.189,25.439 20.308,25.416 L20.489,25.467 C20.514,25.451 20.550,25.345 20.544,25.255 L20.379,25.216 C20.343,25.132 20.444,24.939 20.502,24.778 C20.502,24.778 20.615,24.797 20.621,24.749 C20.637,24.707 20.637,24.607 20.579,24.536 L19.872,24.642 C19.872,24.713 19.966,24.926 19.995,24.949 C20.017,24.991 20.172,25.255 20.189,25.368 L19.517,25.387 C19.453,25.361 19.475,25.103 19.498,25.003 L19.417,24.691 L18.513,24.813 C18.513,24.813 18.426,24.378 18.375,24.442 C18.326,24.513 18.133,23.659 17.913,23.814 L17.729,23.366 C17.826,23.330 18.349,23.430 18.549,23.408 C18.510,23.253 18.255,23.059 18.036,22.966 C17.635,22.976 17.729,22.812 17.742,22.808 C17.729,22.812 18.107,22.724 18.326,22.666 C18.555,22.724 18.897,23.337 18.991,23.530 C18.952,23.930 19.159,23.962 19.269,24.021 C19.375,24.085 19.569,25.019 19.569,25.010 C19.569,25.019 19.524,25.210 19.569,25.326 L20.095,25.322 C20.095,25.322 20.001,25.090 19.872,24.984 L19.559,23.865 C19.646,23.559 19.559,23.330 19.433,23.272 C19.311,23.214 19.388,23.101 19.346,22.766 C19.566,22.541 20.082,22.431 20.385,22.334 C20.379,22.334 20.514,22.459 20.524,22.459 C20.514,22.459 20.366,22.912 20.314,23.147 L20.101,22.937 L19.859,23.450 C20.444,23.827 20.728,23.017 20.766,22.440 C21.150,22.189 20.937,21.657 20.444,21.906 C20.444,21.906 20.001,21.922 19.766,21.928 C19.782,21.106 18.881,19.926 19.304,19.475 C19.111,20.097 19.830,20.087 19.737,20.490 C20.395,20.793 20.379,20.326 20.395,20.239 C20.408,20.162 20.314,19.720 20.230,19.575 C20.159,19.433 20.282,19.136 20.143,18.908 L20.408,18.679 L19.975,18.537 L20.043,18.351 L19.846,18.337 C19.417,17.576 18.733,17.918 18.733,17.918 C18.726,17.918 18.891,17.967 19.017,18.073 C18.852,18.044 18.071,18.366 18.071,18.366 C18.071,18.366 18.304,18.402 18.520,18.485 L17.900,18.895 L18.042,18.950 L17.790,19.220 C17.784,19.227 17.626,19.185 17.429,19.220 C17.242,18.843 16.958,18.459 17.213,18.424 L17.571,18.489 C18.475,16.890 16.651,17.235 16.338,17.619 C16.022,18.009 16.257,18.066 16.474,17.989 L16.651,18.196 C16.445,18.360 15.825,18.025 15.651,18.025 C15.483,18.025 15.483,17.896 15.525,17.760 C15.554,17.619 15.483,17.260 15.202,17.199 L15.037,16.871 L14.882,16.955 L15.037,17.313 C14.889,17.370 14.882,17.641 15.066,18.009 C15.066,18.009 14.205,18.531 13.840,18.914 L14.091,19.185 L14.711,18.614 L14.805,18.656 L13.969,19.491 L14.376,19.755 L14.973,19.201 L15.082,19.201 L14.340,19.975 L14.747,20.162 L15.460,19.302 L15.554,19.314 L14.973,20.068 L15.538,20.162 L15.786,19.855 L16.122,19.975 L16.209,20.220 L15.925,20.256 L16.015,20.810 C16.015,20.810 15.596,20.929 15.312,21.100 C14.217,19.884 13.733,22.182 13.669,22.966 L13.669,22.966 ZM14.889,25.326 C15.076,25.287 15.289,25.168 15.402,25.103 L15.444,25.232 C15.373,25.261 15.166,25.326 14.889,25.326 L14.889,25.326 ZM18.881,25.802 L18.917,25.622 L19.569,26.308 L18.881,25.802 ZM20.095,25.816 L18.939,25.458 L18.881,25.274 L20.095,25.816 ZM18.881,25.219 L18.862,25.090 L19.395,25.168 L19.417,25.255 L18.881,25.219 ZM19.388,24.797 L19.398,24.884 L18.862,25.019 L18.820,24.874 L19.388,24.797 ZM18.746,25.745 C18.797,25.622 18.668,25.255 18.581,24.980 C18.691,25.061 18.917,25.664 18.746,25.745 L18.746,25.745 ZM15.957,24.884 C15.957,24.884 15.973,25.084 16.038,25.219 L15.925,25.239 C15.589,24.349 16.315,24.642 16.858,24.961 C15.821,24.755 15.957,24.884 15.957,24.884 L15.957,24.884 ZM16.493,24.961 L16.486,25.061 C16.486,25.061 16.231,25.045 16.073,25.068 L16.060,24.939 C16.167,24.939 16.470,24.949 16.493,24.961 L16.493,24.961 ZM16.122,24.272 L16.144,24.368 C16.038,24.368 15.844,24.413 15.821,24.462 L15.738,24.368 C15.809,24.314 15.931,24.255 16.122,24.272 L16.122,24.272 ZM15.631,25.368 C15.596,25.345 15.573,25.151 15.573,25.045 L15.651,25.045 C15.654,25.151 15.709,25.332 15.709,25.332 L15.631,25.368 ZM15.673,24.855 L15.579,24.884 C15.538,24.768 15.596,24.607 15.638,24.562 L15.709,24.626 L15.673,24.855 ZM15.731,25.467 C16.131,25.239 16.880,25.026 17.184,25.061 L17.258,25.174 C17.177,25.168 16.422,25.216 15.731,25.467 L15.731,25.467 ZM16.186,25.786 L17.429,25.303 L17.519,25.416 L16.186,25.786 ZM16.758,26.128 L17.706,25.509 L17.813,25.603 L16.758,26.128 ZM18.103,25.851 L17.364,26.444 L18.007,25.764 L18.103,25.851 ZM19.795,19.527 C19.766,19.539 19.724,19.514 19.701,19.456 C19.675,19.398 19.675,19.349 19.701,19.333 C19.737,19.326 19.782,19.356 19.804,19.413 C19.824,19.462 19.824,19.514 19.795,19.527 L19.795,19.527 ZM20.108,19.391 C19.711,19.156 19.872,19.021 19.817,18.843 C20.066,19.272 19.908,19.162 20.108,19.391 L20.108,19.391 ZM19.901,18.421 L19.801,18.686 L19.533,18.450 L19.901,18.421 ZM19.375,22.560 L19.198,22.566 L19.075,22.177 L19.227,22.154 L19.330,22.347 L19.601,21.954 L19.717,22.057 L19.375,22.560 ZM19.517,21.357 C19.588,21.380 19.701,21.635 19.637,21.657 C19.559,21.683 19.498,21.651 19.359,21.522 C19.217,21.399 18.910,21.280 18.249,21.416 L18.213,21.287 C18.510,21.229 18.891,21.164 19.246,21.287 C19.311,21.235 19.475,21.251 19.517,21.357 L19.517,21.357 ZM18.113,19.291 C18.149,19.220 18.307,18.991 18.491,18.892 L18.368,18.850 C18.404,18.779 18.662,18.614 18.791,18.573 L18.675,18.550 C18.797,18.431 19.133,18.351 19.359,18.386 L19.359,18.473 C18.649,18.531 18.413,19.063 18.171,19.755 L18.107,19.679 C18.091,19.591 18.133,19.450 18.239,19.333 L18.113,19.291 ZM18.049,19.755 C18.320,19.884 18.881,20.203 19.133,20.203 L19.198,20.345 C19.017,20.362 18.333,20.033 17.978,19.839 L18.049,19.755 ZM17.942,19.884 C18.478,20.246 19.133,20.594 19.311,20.616 L19.346,20.752 C19.198,20.745 18.491,20.391 17.926,20.017 L17.942,19.884 ZM17.490,19.649 C17.571,19.733 17.719,19.739 17.784,19.679 C17.848,19.626 17.926,19.720 17.913,19.762 C17.897,19.820 17.897,20.045 17.784,20.017 C17.677,20.010 17.429,20.174 17.448,20.120 C17.471,20.074 17.477,19.640 17.490,19.649 L17.490,19.649 ZM17.529,20.297 L17.626,20.246 C17.655,20.468 17.807,20.938 18.068,21.357 C18.333,21.783 18.207,22.177 17.819,22.218 L17.765,22.047 C17.978,21.999 18.262,21.964 17.920,21.357 C17.913,21.599 17.890,21.786 17.684,21.748 L17.635,21.586 C17.819,21.570 17.913,21.357 17.593,20.803 C17.513,20.787 17.519,20.803 17.477,20.803 L17.422,20.558 C17.535,20.703 17.661,20.823 17.529,20.297 L17.529,20.297 ZM17.293,20.487 C17.329,20.603 17.600,21.619 17.577,21.864 C17.697,21.954 17.761,22.440 17.765,22.702 L17.626,22.724 C17.642,22.289 17.529,22.018 17.400,21.886 C17.571,21.651 17.319,21.058 17.148,20.622 C16.651,20.487 16.916,20.452 17.129,20.452 C16.693,20.203 16.816,20.181 17.084,20.310 C17.342,20.458 17.071,20.033 17.071,20.033 C17.071,20.045 17.277,20.056 17.358,19.968 C17.300,20.116 17.242,20.162 17.242,20.162 C17.242,20.162 17.293,20.387 17.293,20.487 L17.293,20.487 ZM17.106,18.302 C17.064,18.279 17.042,18.237 17.058,18.231 C17.064,18.215 17.106,18.215 17.148,18.237 C17.193,18.260 17.213,18.302 17.200,18.321 C17.193,18.337 17.148,18.324 17.106,18.302 L17.106,18.302 ZM17.548,17.883 C17.626,17.947 17.464,18.302 17.364,18.360 C17.322,18.379 17.251,18.379 17.293,18.295 C17.322,18.215 17.500,18.047 17.471,17.979 C17.429,17.902 17.235,17.760 17.171,17.796 C17.084,17.819 16.958,18.138 16.916,18.189 C16.871,18.237 16.816,18.180 16.806,18.180 C17.000,17.760 17.084,17.419 17.548,17.883 L17.548,17.883 ZM17.148,18.885 C17.087,18.756 16.835,18.550 16.722,18.424 C16.916,18.495 17.071,18.550 17.148,18.885 L17.148,18.885 ZM16.599,18.495 C16.893,19.243 16.806,20.017 16.557,20.197 L16.535,20.056 C16.764,20.017 16.722,18.895 16.599,18.495 L16.599,18.495 ZM16.570,19.178 L16.470,19.201 C16.380,18.950 16.315,19.043 16.015,19.056 L15.993,18.950 C16.357,18.914 16.486,18.860 16.570,19.178 L16.570,19.178 ZM16.202,18.324 L16.315,18.386 C16.173,18.366 15.967,18.489 15.825,18.550 L15.802,18.443 C15.909,18.366 16.144,18.321 16.202,18.324 L16.202,18.324 ZM15.060,18.237 L15.124,18.295 C15.118,18.737 15.102,19.021 15.651,18.930 L15.680,19.043 C14.973,19.085 15.005,18.779 15.060,18.237 L15.060,18.237 ZM15.402,18.009 L15.615,18.215 L17.665,23.253 L17.306,22.711 L15.402,18.009 ZM16.209,20.980 C16.351,21.819 16.428,21.954 16.842,21.841 L16.893,21.970 C16.893,21.970 16.528,21.990 16.415,21.948 C16.309,21.912 16.338,22.163 16.364,22.228 C16.380,22.312 16.758,22.289 17.006,22.247 L17.048,22.354 C17.000,22.389 16.528,22.405 16.438,22.389 C16.357,22.370 16.399,22.524 16.428,22.595 C16.470,22.666 16.780,22.724 17.171,22.724 L17.213,22.831 C17.106,22.873 16.693,22.808 16.535,22.737 C16.373,22.689 16.315,22.731 16.228,22.960 L16.144,22.895 C16.445,22.512 16.228,21.735 16.051,20.958 L16.209,20.980 ZM35.000,14.034 C34.406,13.760 33.938,13.721 32.883,13.957 C33.351,13.621 34.293,12.471 34.484,11.742 C33.422,11.665 32.737,12.026 32.147,12.242 C33.970,10.817 34.045,9.950 33.857,8.703 C32.918,9.650 30.023,11.936 30.042,11.936 C30.023,11.936 31.498,10.405 32.573,9.144 C33.651,7.861 33.160,6.630 32.495,5.705 C32.360,6.353 30.614,9.044 29.210,10.256 L29.116,10.012 C29.068,10.353 28.103,11.665 27.531,12.142 L27.431,11.906 C27.134,12.371 25.385,13.867 24.646,14.621 C23.923,15.382 24.197,16.123 24.630,16.523 C25.085,16.926 25.278,17.348 24.759,18.047 C24.265,18.766 22.884,18.666 22.257,17.860 C23.555,17.348 23.419,16.542 23.119,15.910 C22.341,17.028 21.870,16.558 21.199,15.952 C21.906,15.936 22.306,15.582 22.577,15.063 C21.250,15.227 20.837,14.711 20.644,13.899 C20.437,13.096 21.270,12.161 22.228,11.517 C22.254,11.517 22.470,11.643 22.632,11.617 C22.796,11.613 22.997,11.359 23.213,11.253 C24.181,11.101 24.672,11.517 24.575,12.526 C24.923,12.348 24.982,11.771 24.859,11.417 C24.736,11.072 24.423,11.017 24.465,10.966 C24.510,10.911 24.907,11.172 25.256,11.494 C25.585,11.829 26.363,11.829 26.692,11.688 C27.018,11.530 27.196,11.046 27.289,10.582 C27.060,11.001 26.457,11.207 26.105,11.175 C25.763,11.143 25.085,10.630 24.475,10.498 C24.982,10.063 25.685,10.363 26.127,10.717 C27.054,9.457 26.363,8.922 25.885,8.693 C25.408,8.451 25.272,8.638 25.165,8.574 C25.059,8.526 24.923,8.332 24.675,8.255 L24.675,8.110 C25.637,8.091 26.121,7.684 26.563,7.313 C27.018,6.950 26.857,5.995 26.699,5.518 C26.540,5.028 26.870,4.963 27.028,5.057 C27.183,5.154 28.048,5.454 28.048,5.454 C28.048,5.454 28.132,5.518 28.219,5.818 C28.303,6.118 28.254,6.279 28.132,6.466 C27.996,6.649 27.654,7.056 27.631,7.578 C27.602,8.119 27.996,8.403 28.032,8.761 C28.080,9.144 27.631,9.358 27.631,9.358 C27.631,9.358 27.783,9.480 28.032,9.457 C28.290,9.441 28.774,9.129 28.929,8.722 C29.068,8.332 28.587,7.832 28.587,7.832 C28.587,7.832 28.900,8.009 29.139,8.019 C29.387,8.054 29.365,7.932 29.581,7.990 C29.794,8.054 29.820,8.367 29.820,8.367 C29.820,8.367 30.020,8.225 30.094,7.984 C30.165,7.739 30.236,7.201 29.578,7.156 C28.900,7.101 29.039,6.871 29.400,6.449 C29.778,6.012 29.784,5.292 29.064,5.134 C28.351,4.976 28.012,4.622 27.754,4.174 C27.483,3.716 26.799,3.661 25.901,3.929 C25.030,4.199 25.472,5.370 25.743,6.046 C26.034,6.714 26.021,6.929 25.843,7.262 C25.666,7.578 24.978,7.777 24.546,7.775 L24.546,7.478 C24.901,6.929 25.088,6.130 24.959,5.805 C24.846,5.483 24.275,5.319 23.939,5.324 C23.587,5.334 23.590,5.334 23.590,5.334 C23.826,5.199 23.868,4.883 23.616,4.748 L23.616,4.480 L23.832,4.480 L23.832,4.029 L23.626,4.029 L23.626,3.797 L23.119,3.797 L23.119,4.022 L22.906,4.022 L22.906,4.480 L23.119,4.480 L23.119,4.748 C22.903,4.886 22.942,5.193 23.145,5.334 C23.145,5.334 23.148,5.334 22.806,5.324 C22.464,5.319 21.893,5.483 21.770,5.805 C21.657,6.130 21.841,6.929 22.177,7.471 L22.154,7.855 C20.937,7.633 20.595,7.478 19.259,6.102 L19.275,5.860 C20.079,4.016 20.153,4.074 20.179,3.610 C20.189,3.140 20.179,2.108 18.391,1.957 C18.384,2.163 18.113,2.385 17.926,1.859 C18.207,1.643 18.239,1.131 17.942,1.073 L17.865,0.754 L18.184,0.867 L18.184,0.261 L17.842,0.370 L17.971,-0.000 L17.287,-0.000 L17.393,0.364 L17.071,0.235 L17.071,0.841 L17.384,0.748 L17.287,1.048 C17.000,1.138 16.987,1.637 17.284,1.837 C17.084,2.362 16.816,2.130 16.816,1.927 C15.040,2.050 14.982,3.062 14.982,3.526 C15.005,3.997 15.073,3.939 15.831,5.805 L15.838,6.060 C14.463,7.391 14.198,7.536 12.972,7.726 L12.972,7.342 C13.307,6.821 13.520,6.012 13.407,5.682 C13.304,5.370 12.723,5.183 12.381,5.183 C12.042,5.190 12.045,5.190 12.045,5.190 C12.236,5.054 12.287,4.786 12.058,4.593 L12.058,4.316 L12.287,4.316 L12.287,3.858 L12.078,3.858 L12.078,3.632 L11.603,3.632 L11.603,3.858 L11.387,3.858 L11.387,4.316 L11.593,4.316 L11.593,4.577 C11.316,4.751 11.345,5.051 11.593,5.183 C11.590,5.183 11.561,5.180 11.261,5.157 C10.909,5.134 10.338,5.289 10.218,5.599 C10.096,5.931 10.254,6.737 10.596,7.291 L10.583,7.578 C10.147,7.578 9.476,7.362 9.299,7.036 C9.134,6.714 9.134,6.488 9.428,5.818 C9.728,5.157 10.202,3.993 9.321,3.710 C8.456,3.423 7.752,3.445 7.478,3.897 C7.207,4.351 6.868,4.677 6.132,4.828 C5.419,4.976 5.403,5.682 5.761,6.130 C6.126,6.566 6.252,6.794 5.583,6.823 C4.912,6.856 4.964,7.397 5.035,7.642 C5.106,7.903 5.296,8.039 5.296,8.039 C5.296,8.039 5.325,7.726 5.555,7.668 C5.777,7.607 5.742,7.739 5.997,7.719 C6.245,7.710 6.545,7.536 6.545,7.536 C6.545,7.536 6.039,8.019 6.190,8.419 C6.326,8.815 6.797,9.144 7.059,9.164 C7.310,9.199 7.465,9.080 7.465,9.080 C7.465,9.080 7.030,8.864 7.065,8.487 C7.136,8.126 7.523,7.855 7.517,7.307 C7.494,6.772 7.165,6.378 7.039,6.188 C6.923,5.995 6.875,5.837 6.975,5.540 C7.065,5.235 7.152,5.183 7.152,5.183 C7.152,5.183 8.020,4.893 8.179,4.805 C8.337,4.722 8.669,4.783 8.501,5.263 C8.321,5.753 8.149,6.688 8.585,7.084 C9.021,7.449 9.489,7.861 10.438,7.913 L10.438,8.068 C10.196,8.126 10.060,8.319 9.947,8.367 C9.841,8.426 9.712,8.239 9.234,8.454 C8.743,8.693 8.043,9.186 8.921,10.405 C9.399,10.063 10.089,9.779 10.583,10.224 C9.983,10.340 9.292,10.830 8.934,10.866 C8.585,10.895 7.988,10.659 7.778,10.247 C7.859,10.659 8.037,11.194 8.350,11.359 C8.669,11.517 9.440,11.536 9.789,11.201 C10.134,10.882 10.531,10.653 10.577,10.688 C10.612,10.740 10.306,10.795 10.189,11.143 C10.047,11.481 10.096,12.078 10.431,12.242 C10.360,11.245 10.854,10.830 11.835,11.011 C12.042,11.117 12.245,11.381 12.407,11.400 C12.558,11.417 12.784,11.307 12.800,11.307 C13.746,11.985 14.482,12.919 14.253,13.731 C14.040,14.544 13.691,15.040 12.371,14.840 C12.620,15.369 13.007,15.729 13.711,15.765 C13.030,16.343 12.536,16.807 11.803,15.665 C11.487,16.300 11.332,17.093 12.613,17.647 C11.964,18.437 10.577,18.489 10.112,17.760 C9.618,17.054 9.818,16.641 10.270,16.246 C10.715,15.858 11.009,15.117 10.306,14.337 C9.592,13.567 7.885,12.035 7.581,11.559 L7.501,11.794 C6.946,11.287 5.997,9.957 5.974,9.621 L5.861,9.870 C4.493,8.693 2.830,5.960 2.701,5.319 C2.017,6.217 1.497,7.436 2.537,8.745 C3.573,9.950 4.999,11.530 4.999,11.517 C4.999,11.530 2.182,9.180 1.268,8.267 C1.042,9.441 1.097,10.298 2.872,11.778 C2.301,11.530 1.617,11.152 0.561,11.201 C0.742,11.936 1.639,13.112 2.098,13.461 C1.062,13.196 0.597,13.218 -0.000,13.486 C0.255,14.008 1.133,14.985 1.746,15.262 C1.013,15.346 0.135,15.746 0.022,15.858 C0.335,16.343 0.855,16.765 1.526,17.006 C0.749,17.370 0.526,17.612 0.413,17.789 C0.768,18.324 1.184,18.686 1.781,18.795 C1.688,18.872 1.604,18.966 1.504,19.063 C1.617,19.214 2.053,19.408 2.075,19.514 C2.098,19.604 2.259,19.413 2.301,19.279 C2.288,19.363 2.753,19.549 2.588,19.785 C2.672,20.275 3.031,19.720 3.160,19.468 C4.041,20.345 3.224,21.380 3.244,21.422 C3.250,21.458 3.466,21.641 3.544,21.799 C4.015,21.551 5.106,20.832 5.106,20.832 C5.106,20.832 3.934,21.699 3.657,22.057 C3.402,22.454 3.544,23.143 3.599,23.201 C3.650,23.302 4.412,23.494 4.670,23.237 C4.961,22.960 6.261,21.393 6.245,21.435 C6.245,21.486 5.532,22.440 5.290,22.972 C5.054,23.494 5.396,24.291 5.506,24.368 C5.674,24.442 6.568,24.368 6.710,24.091 C6.839,23.820 7.778,21.990 7.765,21.990 C7.778,21.990 7.110,23.382 7.065,23.855 C7.030,24.326 7.494,24.961 7.630,24.984 C7.778,25.019 8.585,24.804 8.672,24.474 C8.779,24.155 9.215,22.370 9.211,22.370 C9.218,22.370 8.985,23.595 9.056,23.962 C9.079,24.378 9.663,24.655 9.789,24.804 C9.889,25.038 9.983,24.954 10.112,24.810 C10.225,24.684 10.874,24.577 10.845,23.843 C10.819,23.108 10.851,22.547 10.845,22.547 C10.851,22.547 11.287,22.570 11.497,22.370 C11.710,22.182 11.835,22.112 11.829,22.112 C11.835,22.112 12.006,22.505 12.271,22.524 C12.536,22.547 12.765,22.625 12.765,22.625 L12.800,25.019 C12.207,25.474 11.722,25.764 10.925,25.532 L11.096,25.722 C9.889,25.809 9.134,26.251 9.282,27.733 C9.440,29.184 8.692,28.765 8.672,28.759 C8.692,28.765 9.050,29.748 10.170,28.984 C10.338,29.413 10.189,29.996 10.089,30.161 C10.396,30.038 10.661,29.797 10.761,29.668 C10.845,29.555 10.851,29.884 10.796,30.045 C10.761,30.202 11.151,29.632 11.187,29.497 C11.238,29.361 11.674,29.797 11.225,30.174 C10.767,30.557 9.270,31.044 8.643,31.134 C7.843,31.263 7.036,31.379 7.036,30.589 C7.036,29.825 6.145,29.748 5.777,30.138 C5.555,29.932 5.396,29.567 5.396,29.567 C5.390,29.632 4.764,29.855 4.728,29.809 C4.699,29.861 4.912,30.425 4.799,30.560 C4.686,30.721 4.099,30.992 4.150,31.250 C4.109,31.646 4.535,31.776 4.599,31.798 C4.470,32.175 4.870,32.546 5.128,32.459 C5.099,33.171 4.935,32.971 5.742,33.400 C5.890,33.481 6.090,33.442 6.168,33.513 C6.245,33.587 6.768,33.961 6.975,32.830 C7.281,32.546 7.995,32.062 8.750,31.927 C9.592,31.782 12.642,31.102 13.333,31.044 C13.372,30.538 13.136,30.054 13.136,30.054 C13.136,30.054 13.933,29.890 14.221,29.284 C13.733,29.390 13.243,29.307 13.214,28.742 C13.191,28.172 13.620,27.688 14.240,27.759 C14.973,27.817 15.696,28.423 15.651,29.094 C15.618,29.748 15.131,30.045 14.769,30.273 C14.427,30.531 14.463,31.050 14.453,31.044 C14.463,31.050 14.424,30.866 14.695,30.757 C14.973,30.644 15.483,30.625 15.483,30.615 C15.483,30.625 15.489,30.773 15.208,30.951 C14.931,31.163 13.950,31.563 13.543,31.750 C13.055,31.953 12.316,32.601 12.045,32.581 C11.774,32.601 11.529,32.523 11.503,32.298 C11.487,32.085 11.622,31.811 11.622,31.811 C11.622,31.811 11.009,31.921 10.803,32.256 C10.596,32.604 10.490,33.336 10.925,33.587 C10.525,34.048 10.377,34.937 10.596,35.408 C10.803,35.891 10.761,36.308 10.761,36.304 C10.761,36.308 11.203,36.163 11.232,35.850 C11.261,35.560 11.580,35.167 11.567,35.167 C11.580,35.167 11.567,36.001 12.071,36.356 C12.558,36.704 13.078,36.910 13.820,36.233 C14.534,37.046 14.982,37.552 16.186,37.139 C16.357,37.416 16.845,37.909 17.122,38.000 C17.393,37.935 17.920,37.529 18.107,37.262 C19.294,37.703 19.746,37.223 20.489,36.414 C21.299,37.117 21.815,36.910 22.312,36.575 C22.806,36.250 22.832,35.408 22.832,35.408 C22.832,35.408 23.126,35.798 23.161,36.098 C23.184,36.407 23.626,36.575 23.626,36.568 C23.626,36.575 23.587,36.149 23.816,35.678 C24.046,35.214 23.916,34.319 23.532,33.848 C23.974,33.613 23.887,32.871 23.681,32.523 C23.481,32.182 22.877,32.062 22.877,32.056 C22.877,32.062 23.013,32.327 22.984,32.546 C22.955,32.775 22.706,32.839 22.435,32.817 C22.164,32.817 21.441,32.146 20.957,31.940 C20.489,31.740 19.517,31.327 19.240,31.127 C18.962,30.921 18.981,30.760 18.981,30.760 C18.981,30.760 19.482,30.809 19.766,30.921 C20.037,31.044 19.982,31.208 19.995,31.208 C19.982,31.208 20.037,30.708 19.688,30.451 C19.333,30.190 18.868,29.884 18.852,29.229 C18.817,28.565 19.569,27.975 20.289,27.936 C20.992,27.894 21.405,28.372 21.357,28.942 C21.321,29.503 20.757,29.577 20.282,29.468 C20.544,30.073 21.405,30.267 21.405,30.267 C21.405,30.267 21.163,30.744 21.192,31.240 C21.877,31.327 24.923,32.039 25.901,32.275 C26.286,32.494 27.189,33.045 27.570,33.071 C27.944,33.094 28.290,32.830 28.574,32.739 C28.845,32.681 29.145,32.710 29.371,32.630 C29.581,32.559 29.794,32.256 30.230,32.133 C30.643,32.011 30.649,31.650 30.591,31.456 C30.772,31.327 31.140,30.773 31.214,30.666 C31.269,30.573 31.275,30.666 31.498,30.644 C31.727,30.615 31.863,29.726 31.621,29.603 C31.363,29.471 31.546,29.503 31.404,29.396 C31.256,28.719 30.749,27.688 29.713,27.469 L29.529,27.147 L30.023,27.340 L30.023,26.251 L29.536,26.492 L29.742,26.002 L28.622,26.002 L28.768,26.492 L28.251,26.251 L28.251,27.340 L28.793,27.140 L28.609,27.488 C27.570,27.704 27.012,28.529 26.857,29.206 C26.854,29.255 26.721,29.277 26.586,29.390 C26.440,29.519 26.447,30.432 26.586,30.486 C26.718,30.557 26.941,30.509 26.976,30.586 C27.018,30.680 27.160,30.966 27.160,30.966 C27.160,30.966 26.618,31.463 25.927,31.440 C25.249,31.433 23.762,30.837 23.319,30.425 C22.861,30.038 23.319,29.619 23.368,29.748 C23.403,29.884 23.774,30.474 23.758,30.316 C23.716,30.151 23.723,29.825 23.810,29.938 C23.894,30.054 24.152,30.316 24.459,30.451 C24.359,30.289 24.217,29.696 24.388,29.261 C25.501,30.067 25.898,29.084 25.898,29.071 C25.898,29.084 25.120,29.484 25.324,28.037 C25.514,26.570 24.772,26.086 23.561,25.973 L23.732,25.796 C22.938,26.002 22.448,25.696 21.877,25.245 L21.957,22.837 C21.957,22.837 22.199,22.766 22.464,22.760 C22.735,22.737 22.913,22.354 22.913,22.354 C22.913,22.354 23.038,22.424 23.245,22.625 C23.448,22.817 23.887,22.812 23.894,22.812 C23.887,22.812 23.904,23.382 23.862,24.101 C23.816,24.845 24.459,24.961 24.572,25.097 C24.701,25.245 24.794,25.322 24.888,25.097 C24.978,24.884 25.579,24.642 25.656,24.284 C25.721,23.907 25.527,22.682 25.530,22.676 C25.527,22.682 25.914,24.474 26.014,24.804 C26.105,25.120 26.905,25.361 27.054,25.326 C27.189,25.309 27.677,24.697 27.641,24.219 C27.612,23.756 26.989,22.331 26.999,22.331 C26.989,22.331 27.867,24.197 27.996,24.474 C28.132,24.739 29.016,24.845 29.181,24.774 C29.316,24.707 29.665,23.926 29.442,23.382 C29.210,22.859 28.532,21.883 28.522,21.828 C28.516,21.777 29.778,23.382 30.042,23.659 C30.314,23.930 31.062,23.736 31.140,23.659 C31.191,23.595 31.346,22.918 31.104,22.524 C30.833,22.141 29.681,21.242 29.681,21.242 C29.681,21.242 30.220,21.564 30.998,22.134 C31.740,22.705 31.989,22.470 32.608,22.347 C32.683,22.112 32.612,21.470 32.247,20.916 C33.209,20.952 33.451,20.745 33.828,20.474 C33.803,20.275 33.502,19.649 33.073,19.298 C33.664,19.185 34.100,18.850 34.451,18.331 C34.348,18.144 34.129,17.896 33.373,17.519 C34.045,17.290 34.571,16.893 34.900,16.406 C34.790,16.300 33.922,15.865 33.186,15.768 C33.809,15.504 34.722,14.550 35.000,14.034 L35.000,14.034 ZM28.661,8.838 C28.638,8.332 27.996,8.161 28.254,7.604 C28.254,8.096 28.880,8.126 28.661,8.838 L28.661,8.838 ZM25.969,6.172 C25.514,5.083 25.278,4.145 26.056,4.342 C26.834,4.541 28.351,5.154 28.929,5.289 C29.507,5.425 29.613,5.973 29.236,6.378 C28.868,6.772 28.461,7.165 29.778,7.471 C29.529,7.471 29.116,7.520 28.903,7.336 C28.693,7.156 28.361,6.843 29.016,6.195 C29.687,5.560 28.625,5.425 28.351,5.347 C28.048,5.289 27.028,4.834 26.511,4.699 C26.005,4.564 25.608,4.393 25.979,5.425 C26.334,6.449 26.592,7.178 25.901,7.655 L25.385,7.749 C25.872,7.555 26.415,7.278 25.969,6.172 L25.969,6.172 ZM6.439,8.538 C6.226,7.832 6.868,7.810 6.875,7.313 C7.136,7.884 6.468,8.039 6.439,8.538 L6.439,8.538 ZM9.234,7.436 C8.563,6.924 8.840,6.201 9.215,5.190 C9.618,4.174 9.215,4.342 8.698,4.457 C8.179,4.587 7.152,5.005 6.852,5.057 C6.562,5.128 5.503,5.235 6.145,5.889 C6.794,6.552 6.458,6.856 6.226,7.030 C6.019,7.207 5.613,7.156 5.371,7.149 C6.687,6.871 6.297,6.482 5.939,6.066 C5.571,5.654 5.690,5.092 6.274,4.976 C6.852,4.857 8.379,4.300 9.163,4.122 C9.947,3.939 9.683,4.870 9.211,5.947 C8.727,7.030 9.263,7.336 9.754,7.536 L9.234,7.436 ZM11.810,16.207 C11.987,16.335 12.400,16.564 12.684,16.622 C12.523,16.719 12.178,16.613 11.987,16.506 C12.071,16.999 12.352,17.196 12.665,17.377 C11.958,17.299 11.658,16.558 11.810,16.207 L11.810,16.207 ZM11.994,18.986 C12.071,19.002 12.216,19.762 12.110,19.679 C12.006,19.598 11.803,18.979 11.994,18.986 L11.994,18.986 ZM10.951,19.030 C11.009,19.063 10.767,19.804 10.715,19.685 C10.661,19.575 10.774,18.927 10.951,19.030 L10.951,19.030 ZM9.918,18.637 C9.947,18.691 9.492,19.321 9.489,19.191 C9.489,19.056 9.789,18.485 9.918,18.637 L9.918,18.637 ZM9.996,15.005 C10.034,15.092 10.167,15.169 9.996,15.262 C9.805,15.369 9.805,15.120 9.805,15.088 C9.805,15.047 8.850,13.822 8.521,13.560 C8.763,13.631 9.918,14.898 9.996,15.005 L9.996,15.005 ZM7.788,15.630 C7.788,15.382 7.636,14.985 7.636,15.005 C7.636,15.011 8.179,14.798 8.243,14.756 C8.285,14.721 8.456,14.656 8.563,14.650 C7.985,13.979 7.685,13.196 7.617,12.261 L7.652,12.229 C7.688,13.325 8.479,14.527 9.412,15.262 C9.157,15.069 8.721,14.776 8.501,14.882 C8.295,14.985 7.895,15.117 7.907,15.117 C7.907,15.098 7.995,15.523 8.020,15.739 C8.037,15.968 8.569,16.175 8.908,16.265 C8.585,16.181 8.049,16.107 7.930,16.313 C7.778,16.487 7.494,16.800 7.494,16.800 C7.478,16.784 7.743,17.106 7.895,17.299 C8.020,17.506 8.556,17.454 8.827,17.400 C8.479,17.548 8.037,17.845 8.043,18.079 C8.049,18.309 8.037,18.714 8.020,18.708 C8.014,18.708 8.427,18.792 8.663,18.856 C8.879,18.930 9.263,18.556 9.476,18.331 C9.263,18.579 8.998,18.966 9.076,19.136 C9.157,19.307 9.270,19.668 9.263,19.668 C9.247,19.668 9.625,19.598 9.818,19.598 C10.034,19.598 10.225,19.150 10.354,18.902 C10.254,19.185 10.147,19.633 10.306,19.775 C10.461,19.910 10.709,20.191 10.709,20.191 C10.690,20.197 11.003,20.003 11.203,19.910 C11.367,19.804 11.387,19.333 11.367,19.166 C11.397,19.413 11.497,19.875 11.710,19.926 C11.887,19.984 12.242,20.139 12.242,20.145 C12.242,20.145 12.407,19.826 12.558,19.679 C12.684,19.514 12.487,19.085 12.352,18.850 C12.371,18.856 12.684,19.279 12.713,19.475 C12.765,19.668 12.723,19.797 12.594,19.910 C12.452,20.033 12.281,20.387 12.294,20.381 C12.294,20.368 11.987,20.191 11.803,20.139 C11.632,20.091 11.467,20.033 11.416,19.826 C11.367,20.003 11.332,20.087 11.138,20.120 C10.954,20.174 10.654,20.423 10.661,20.410 C10.667,20.410 10.461,20.116 10.325,20.003 C10.196,19.875 10.076,19.797 10.096,19.575 C9.996,19.733 9.889,19.755 9.683,19.755 C9.476,19.755 9.134,19.875 9.140,19.875 C9.157,19.875 9.056,19.520 8.976,19.356 C8.898,19.185 8.856,19.108 8.950,18.950 C8.743,19.063 8.692,19.021 8.466,18.956 C8.256,18.879 7.859,18.850 7.872,18.856 C7.885,18.856 7.895,18.379 7.885,18.096 C7.872,17.838 7.937,17.782 8.156,17.576 C7.943,17.570 7.801,17.541 7.672,17.325 C7.546,17.112 7.230,16.829 7.236,16.835 C7.236,16.854 7.517,16.542 7.652,16.343 C7.788,16.130 7.859,16.052 8.101,16.094 C7.907,15.987 7.807,15.875 7.788,15.630 L7.788,15.630 ZM9.282,17.931 C9.299,18.002 8.556,18.431 8.608,18.279 C8.669,18.144 9.234,17.702 9.282,17.931 L9.282,17.931 ZM8.279,16.819 C8.392,16.729 9.186,16.700 9.111,16.893 C9.098,16.964 8.149,16.906 8.279,16.819 L8.279,16.819 ZM8.621,15.582 C8.750,15.530 9.440,15.687 9.318,15.865 C9.270,15.917 8.501,15.630 8.621,15.582 L8.621,15.582 ZM12.458,21.648 C12.436,21.535 12.194,20.632 12.194,20.632 C12.178,20.516 12.336,20.452 12.352,20.588 C12.381,20.722 12.594,21.519 12.620,21.622 C12.642,21.748 12.484,21.751 12.458,21.648 L12.458,21.648 ZM11.225,20.474 C11.209,20.610 11.180,21.435 11.167,21.535 C11.167,21.648 11.009,21.619 11.022,21.512 C11.032,21.406 11.061,20.462 11.061,20.462 C11.061,20.345 11.238,20.326 11.225,20.474 L11.225,20.474 ZM10.141,20.326 C10.112,20.452 9.905,21.242 9.876,21.351 C9.841,21.458 9.705,21.406 9.728,21.293 C9.763,21.187 10.005,20.280 10.005,20.280 C10.034,20.169 10.196,20.191 10.141,20.326 L10.141,20.326 ZM9.021,20.010 C8.950,20.091 8.585,20.758 8.521,20.845 C8.466,20.938 8.337,20.845 8.392,20.758 C8.466,20.659 8.898,19.926 8.898,19.926 C8.950,19.826 9.105,19.910 9.021,20.010 L9.021,20.010 ZM7.136,16.523 C6.988,16.513 6.181,16.487 6.061,16.471 C5.945,16.471 5.974,16.322 6.081,16.322 C6.197,16.335 7.136,16.364 7.136,16.364 C7.246,16.364 7.272,16.535 7.136,16.523 L7.136,16.523 ZM6.168,15.011 C6.048,14.982 6.126,14.840 6.226,14.882 C6.332,14.927 7.236,15.211 7.236,15.211 C7.343,15.253 7.323,15.417 7.188,15.369 C7.059,15.317 6.261,15.063 6.168,15.011 L6.168,15.011 ZM7.272,17.441 C7.388,17.432 7.443,17.596 7.288,17.603 C7.152,17.625 6.332,17.731 6.219,17.731 C6.116,17.738 6.116,17.576 6.226,17.570 C6.352,17.570 7.272,17.441 7.272,17.441 L7.272,17.441 ZM6.633,18.821 C6.752,18.792 7.581,18.379 7.581,18.379 C7.688,18.331 7.788,18.466 7.652,18.515 C7.530,18.579 6.794,18.930 6.674,18.966 C6.581,19.021 6.523,18.872 6.633,18.821 L6.633,18.821 ZM7.336,19.933 C7.417,19.849 8.143,19.150 8.143,19.150 C8.208,19.063 8.350,19.162 8.256,19.256 C8.149,19.336 7.494,19.981 7.443,20.045 C7.365,20.139 7.259,20.010 7.336,19.933 L7.336,19.933 ZM7.517,14.137 C7.601,14.192 7.530,14.334 7.423,14.269 C7.323,14.192 6.403,13.657 6.303,13.580 C6.210,13.531 6.303,13.409 6.403,13.480 C6.487,13.531 7.517,14.137 7.517,14.137 L7.517,14.137 ZM7.343,12.625 C7.494,12.784 7.388,12.909 7.246,12.803 C7.101,12.697 6.226,11.778 6.197,11.175 C6.374,11.617 7.039,12.397 7.343,12.625 L7.343,12.625 ZM2.588,6.172 C2.672,6.449 4.150,8.667 5.225,9.779 C4.670,9.358 3.079,7.777 2.830,7.191 C2.808,8.245 3.944,9.715 4.619,10.598 C3.786,9.741 1.988,7.903 2.588,6.172 L2.588,6.172 ZM3.579,8.645 C3.757,9.000 4.928,10.312 5.403,10.682 L5.290,10.959 C4.741,10.376 3.650,9.044 3.579,8.645 L3.579,8.645 ZM4.228,17.625 L4.276,17.918 C3.466,17.960 2.459,17.944 2.017,17.873 C2.411,17.767 3.486,17.705 4.228,17.625 L4.228,17.625 ZM4.099,16.622 C3.302,16.487 2.133,16.313 1.727,16.158 C2.153,16.145 3.379,16.246 4.121,16.335 L4.099,16.622 ZM4.222,15.227 C3.457,15.005 2.040,14.485 1.691,14.237 C2.040,14.337 3.686,14.820 4.286,14.949 L4.222,15.227 ZM1.526,9.050 C1.688,9.186 3.266,10.653 4.512,11.481 C3.921,11.223 2.366,10.269 1.998,9.792 C2.233,10.759 3.321,11.694 4.144,12.335 C3.166,11.742 1.410,10.633 1.526,9.050 L1.526,9.050 ZM4.822,12.207 L4.754,12.491 C4.115,12.026 2.753,10.966 2.643,10.598 C2.859,10.901 4.286,11.929 4.822,12.207 L4.822,12.207 ZM4.506,13.615 L4.415,13.899 C3.702,13.560 2.446,12.674 2.259,12.342 C2.540,12.606 3.921,13.431 4.506,13.615 L4.506,13.615 ZM1.042,11.572 C2.075,11.481 3.173,12.213 3.950,12.784 C3.266,12.435 2.133,11.958 1.610,11.955 C1.768,12.491 3.053,13.489 3.573,13.867 C2.624,13.424 1.291,12.477 1.042,11.572 L1.042,11.572 ZM0.442,13.631 C1.446,13.386 2.643,13.973 3.495,14.414 C2.753,14.185 1.581,13.863 1.062,13.928 C1.281,14.437 2.779,15.120 3.350,15.417 C2.340,15.117 0.820,14.492 0.442,13.631 L0.442,13.631 ZM0.490,15.987 C1.368,15.446 2.330,15.710 3.273,15.865 C2.511,15.875 1.562,15.833 1.097,16.074 C1.481,16.481 2.847,16.829 3.466,16.926 C2.430,16.955 1.113,16.677 0.490,15.987 L0.490,15.987 ZM0.839,17.812 C1.656,17.193 2.517,17.264 3.486,17.341 C2.724,17.425 1.798,17.576 1.368,17.867 C1.781,18.244 2.847,18.408 3.486,18.353 C2.411,18.531 1.526,18.544 0.839,17.812 L0.839,17.812 ZM2.466,19.191 L2.023,19.166 C2.430,18.908 2.937,18.827 3.521,18.691 C3.214,18.843 2.914,18.927 2.466,19.191 L2.466,19.191 ZM2.766,19.427 C3.144,19.227 3.766,19.056 4.470,18.792 L4.577,19.056 C3.821,19.307 3.221,19.372 2.766,19.427 L2.766,19.427 ZM4.092,19.775 L3.686,20.120 L3.608,19.926 L4.092,19.775 ZM3.550,21.470 L3.457,21.265 C3.628,21.287 4.128,21.129 4.686,20.832 C4.041,21.364 3.786,21.519 3.550,21.470 L3.550,21.470 ZM3.679,20.832 C4.005,20.561 4.305,20.326 4.928,19.926 L5.096,20.174 C4.386,20.561 4.092,20.693 3.679,20.832 L3.679,20.832 ZM3.792,23.053 C3.679,22.264 4.234,21.751 4.999,21.181 C4.483,21.748 4.028,22.299 4.170,22.682 C4.612,22.873 5.183,22.141 5.677,21.751 C4.961,22.602 4.670,23.279 3.792,23.053 L3.792,23.053 ZM4.441,22.431 C4.664,22.070 5.290,21.458 5.803,20.900 L6.019,21.093 C5.448,21.664 4.799,22.182 4.441,22.431 L4.441,22.431 ZM5.648,24.191 C5.290,23.466 5.638,22.866 6.168,22.070 C5.861,22.766 5.625,23.414 5.884,23.720 C6.355,23.765 6.852,23.001 7.194,22.483 C6.781,23.494 6.545,24.127 5.648,24.191 L5.648,24.191 ZM6.900,21.699 L7.171,21.812 C6.816,22.534 6.352,23.066 6.081,23.408 C6.197,23.001 6.597,22.376 6.900,21.699 L6.900,21.699 ZM7.707,24.726 C7.171,24.127 7.443,23.530 7.765,22.631 C7.636,23.382 7.501,24.085 7.843,24.326 C8.308,24.236 8.614,23.408 8.805,22.812 C8.669,23.907 8.556,24.448 7.707,24.726 L7.707,24.726 ZM7.943,23.956 C7.959,23.543 8.172,23.079 8.262,22.331 L8.563,22.376 C8.401,23.166 8.101,23.543 7.943,23.956 L7.943,23.956 ZM9.905,24.661 C9.140,24.101 9.370,23.772 9.476,22.837 C9.518,23.585 9.476,23.930 9.941,24.236 C10.554,23.872 10.467,23.414 10.531,22.789 C10.638,23.901 10.796,24.207 9.905,24.661 L9.905,24.661 ZM9.841,22.560 L10.134,22.534 C10.134,23.337 10.112,23.479 10.025,23.901 C9.947,23.494 9.889,23.302 9.841,22.560 L9.841,22.560 ZM12.784,22.376 C12.349,22.405 12.110,22.289 11.835,21.783 C11.616,22.141 11.451,22.296 10.951,22.389 C10.525,22.141 10.461,21.912 10.396,21.728 C10.225,22.018 10.025,22.192 9.476,22.212 C9.240,21.964 8.934,21.758 8.908,21.416 C8.592,21.612 8.285,21.728 7.966,21.586 C7.788,21.313 7.736,21.093 7.723,20.793 C7.310,20.952 6.852,21.022 6.645,20.851 C6.487,20.426 6.439,20.091 6.491,19.797 C5.919,19.775 5.519,19.520 5.454,19.279 C5.477,18.979 5.571,18.621 5.648,18.489 C5.135,18.254 4.999,17.996 4.961,17.867 C5.025,17.570 5.128,17.248 5.271,17.112 C4.961,16.948 4.641,16.671 4.547,16.300 C4.706,15.936 4.948,15.694 5.154,15.530 C4.799,15.117 4.535,14.550 4.635,14.337 C4.722,14.108 5.312,13.867 5.542,13.928 C4.999,13.424 4.770,12.732 4.935,12.526 C5.106,12.297 5.890,12.371 6.090,12.477 C5.726,11.849 5.519,11.307 5.868,10.327 C5.813,11.143 5.638,12.161 7.288,13.438 C6.823,13.138 5.777,12.313 5.135,12.674 C5.083,13.180 5.571,13.867 6.645,14.514 C5.939,14.150 5.561,13.899 4.828,14.414 C4.961,15.227 5.296,15.475 6.190,15.687 C5.571,15.588 5.312,15.468 4.754,16.364 C5.161,16.999 5.596,17.106 6.281,17.042 C5.613,17.093 5.341,17.189 5.161,17.819 C5.571,18.459 5.948,18.389 6.568,18.244 C5.897,18.437 5.703,18.650 5.674,19.201 C6.226,19.762 6.545,19.614 7.088,19.321 C6.729,19.679 6.539,19.933 6.797,20.709 C7.494,20.845 7.723,20.661 8.172,20.017 C7.937,20.588 7.778,20.916 8.095,21.416 C8.798,21.458 8.969,21.181 9.247,20.709 C9.079,21.258 8.976,21.551 9.521,22.018 C10.034,21.977 10.302,21.728 10.490,21.158 C10.490,21.912 10.715,22.083 11.003,22.218 C11.539,22.054 11.668,21.751 11.781,21.265 C12.045,21.977 12.423,22.318 12.791,22.234 L12.784,22.376 ZM4.512,31.621 C4.044,31.305 4.357,31.050 4.651,30.895 C4.280,31.228 4.393,31.379 4.512,31.621 L4.512,31.621 ZM6.952,32.575 C6.981,32.681 6.952,32.739 6.868,32.775 C6.687,31.791 6.410,31.769 6.332,31.273 C6.252,30.760 6.132,31.279 6.145,31.279 C6.132,31.279 6.126,31.440 6.226,31.563 C6.245,31.575 6.074,31.510 5.974,31.385 C5.945,31.385 6.081,31.563 5.945,31.627 C5.945,31.646 5.997,31.750 5.997,31.869 C5.855,32.027 5.990,32.091 6.116,32.088 C6.245,32.082 6.297,31.982 6.326,31.885 C6.374,32.004 6.355,32.168 6.245,32.339 C6.116,32.604 6.352,32.688 6.416,32.659 C6.487,32.633 6.545,32.552 6.545,32.417 C6.645,32.517 6.623,32.739 6.562,32.871 C6.539,33.010 6.545,33.045 6.539,33.152 C6.523,33.258 6.245,33.506 6.245,33.506 C6.245,33.506 6.145,33.464 6.048,33.387 C6.794,33.087 6.355,32.704 6.019,32.845 C5.677,33.010 5.648,32.958 5.448,32.965 C5.261,32.988 5.261,32.704 5.312,32.529 C5.371,32.581 5.377,32.736 5.425,32.765 C5.777,32.936 6.126,32.601 6.126,32.468 C6.126,32.269 5.477,32.288 5.377,32.324 C5.271,32.375 4.961,32.088 4.854,32.039 C4.748,32.011 4.670,31.885 4.693,31.714 C4.883,31.756 5.190,32.088 5.425,32.146 C6.190,32.011 5.732,31.563 5.661,31.540 C5.583,31.540 5.377,31.682 5.312,31.704 C5.235,31.750 5.225,31.514 5.161,31.547 C5.083,31.592 4.899,31.491 4.777,31.411 C4.651,31.350 4.877,31.127 4.906,30.999 C4.948,30.892 4.822,30.937 4.822,30.937 C4.806,30.944 4.848,30.744 4.928,30.638 C5.041,31.646 5.341,31.456 5.571,31.350 C5.154,30.831 5.425,30.573 5.742,30.325 C5.861,30.244 6.126,30.174 6.145,30.174 C6.181,30.174 6.116,30.273 5.803,30.538 C5.467,30.815 5.503,30.815 5.596,31.057 C5.677,31.327 5.884,31.305 6.019,31.186 C6.168,31.073 6.155,30.892 5.974,30.773 C6.090,30.744 6.132,30.560 6.245,30.586 C6.326,30.615 6.181,30.744 6.181,30.744 C6.181,30.744 6.245,30.831 6.439,30.796 C6.633,30.773 6.516,30.966 6.416,31.073 C6.326,31.179 6.781,31.704 6.852,31.811 C6.923,31.921 7.259,31.791 7.272,31.898 C7.281,32.004 6.923,31.998 6.852,32.062 C6.781,32.133 6.923,32.468 6.952,32.575 L6.952,32.575 ZM7.152,32.611 C7.517,32.198 8.172,31.885 8.321,31.905 C8.179,31.905 7.443,32.375 7.152,32.611 L7.152,32.611 ZM7.685,31.469 C7.372,31.469 7.194,31.485 6.975,30.937 C6.975,30.937 7.230,31.240 7.423,31.350 C7.617,31.456 8.350,31.385 8.350,31.385 C8.350,31.385 7.988,31.469 7.685,31.469 L7.685,31.469 ZM30.123,32.027 C29.888,32.110 29.794,32.182 29.529,32.375 C29.274,32.575 28.797,32.601 28.545,32.604 C28.090,32.923 27.631,32.923 27.347,32.894 C27.060,32.871 26.156,32.217 26.179,32.198 C26.198,32.217 27.241,32.739 27.531,32.788 C27.790,32.830 28.183,32.633 28.251,32.517 C28.290,32.395 28.729,32.117 28.922,32.034 C29.452,31.421 28.487,31.092 28.432,31.663 C28.880,31.627 28.545,31.953 28.545,31.940 C28.545,31.953 28.674,32.027 28.609,32.110 C28.545,32.191 28.254,32.039 28.196,32.140 C28.132,32.246 28.254,32.233 28.145,32.256 C28.025,32.275 27.944,32.388 27.974,32.468 C28.003,32.552 27.819,32.633 27.738,32.523 C27.654,32.417 27.134,32.288 27.134,32.182 C27.134,32.085 27.790,32.298 27.873,32.146 C27.967,32.011 27.018,31.982 27.018,31.869 C27.018,31.756 27.347,31.791 27.425,31.791 C27.483,31.791 27.512,31.621 27.512,31.491 C27.531,31.491 27.754,31.650 27.754,31.650 C27.754,31.650 27.641,31.791 27.667,31.869 C27.667,31.956 27.841,31.898 27.967,31.982 C28.067,32.082 28.203,32.027 28.274,31.811 C28.161,31.540 28.387,31.279 28.596,31.186 C28.638,31.079 28.638,30.951 28.551,30.863 C28.729,30.886 28.810,30.992 28.922,31.186 C29.342,31.385 29.245,31.714 29.210,31.820 C29.181,31.953 29.523,31.798 29.681,31.704 C29.716,31.514 29.807,31.327 30.042,31.221 C30.078,31.092 30.020,30.992 29.913,30.892 C30.155,30.886 30.207,31.002 30.349,31.208 C30.636,31.698 30.349,31.927 30.123,32.027 L30.123,32.027 ZM31.456,30.209 C31.456,30.354 31.340,30.474 31.198,30.474 C31.062,30.474 30.943,30.354 30.943,30.209 C30.943,30.073 31.062,29.954 31.198,29.954 C31.340,29.954 31.456,30.073 31.456,30.209 L31.456,30.209 ZM29.613,27.653 C30.391,27.547 31.269,28.759 31.298,29.539 L29.536,29.361 L29.613,27.653 ZM30.769,30.138 C30.769,30.286 30.643,30.396 30.501,30.396 C30.365,30.396 30.243,30.286 30.243,30.138 C30.243,29.996 30.365,29.874 30.501,29.874 C30.643,29.874 30.769,29.996 30.769,30.138 L30.769,30.138 ZM30.071,30.051 C30.071,30.190 29.955,30.309 29.820,30.309 C29.678,30.309 29.552,30.190 29.552,30.051 C29.552,29.909 29.678,29.790 29.820,29.790 C29.955,29.790 30.071,29.909 30.071,30.051 L30.071,30.051 ZM28.403,27.111 L28.403,26.550 L28.974,26.670 L28.868,26.235 L29.429,26.235 L29.310,26.686 L29.849,26.570 L29.849,27.063 L29.271,26.976 L29.407,27.453 L28.822,27.453 L28.993,26.962 L28.403,27.111 ZM29.100,29.007 C29.242,29.007 29.352,29.120 29.352,29.261 C29.352,29.406 29.242,29.519 29.100,29.519 C28.958,29.519 28.839,29.406 28.839,29.261 C28.839,29.120 28.958,29.007 29.100,29.007 L29.100,29.007 ZM28.845,28.630 C28.845,28.488 28.964,28.372 29.103,28.372 C29.258,28.372 29.374,28.488 29.374,28.630 C29.374,28.765 29.258,28.884 29.103,28.884 C28.964,28.884 28.845,28.765 28.845,28.630 L28.845,28.630 ZM29.129,29.755 C29.271,29.755 29.387,29.874 29.387,30.019 C29.387,30.161 29.271,30.286 29.129,30.286 C28.981,30.286 28.868,30.161 28.868,30.019 C28.868,29.874 28.981,29.755 29.129,29.755 L29.129,29.755 ZM29.145,28.223 C29.003,28.223 28.887,28.107 28.887,27.965 C28.887,27.830 29.003,27.711 29.145,27.711 C29.287,27.711 29.407,27.830 29.407,27.965 C29.407,28.107 29.287,28.223 29.145,28.223 L29.145,28.223 ZM30.940,30.731 C30.843,30.937 30.636,31.163 30.562,31.240 L30.462,31.102 C30.591,30.999 30.614,30.844 30.620,30.844 C30.107,30.744 28.432,30.680 27.454,30.721 C27.538,30.915 27.790,31.208 28.183,31.463 L28.103,31.598 C27.631,31.433 27.299,30.937 27.160,30.573 C28.183,30.486 29.778,30.515 30.940,30.731 L30.940,30.731 ZM27.496,30.067 C27.496,29.919 27.612,29.803 27.754,29.803 C27.890,29.803 28.009,29.919 28.009,30.067 C28.009,30.209 27.890,30.325 27.754,30.325 C27.612,30.325 27.496,30.209 27.496,30.067 L27.496,30.067 ZM28.196,30.038 C28.196,29.890 28.316,29.777 28.451,29.777 C28.590,29.777 28.709,29.890 28.709,30.038 C28.709,30.174 28.590,30.289 28.451,30.289 C28.316,30.289 28.196,30.174 28.196,30.038 L28.196,30.038 ZM28.774,27.660 L28.729,29.312 L26.957,29.335 C27.060,28.565 28.054,27.469 28.774,27.660 L28.774,27.660 ZM27.005,30.360 C26.870,30.360 26.753,30.244 26.753,30.103 C26.753,29.954 26.870,29.845 27.005,29.845 C27.147,29.845 27.263,29.954 27.263,30.103 C27.263,30.244 27.147,30.360 27.005,30.360 L27.005,30.360 ZM27.134,31.156 L27.212,31.221 C26.905,31.491 26.457,31.698 25.863,31.540 C26.286,31.514 26.799,31.456 27.134,31.156 L27.134,31.156 ZM22.099,15.359 C21.906,15.588 21.305,15.746 20.979,15.710 C20.944,15.917 20.966,16.145 21.238,16.513 C20.957,16.506 20.595,16.258 20.260,15.739 C20.179,15.804 20.243,16.265 20.289,16.481 C20.017,16.335 19.223,15.424 19.175,15.005 C18.826,15.223 18.762,16.100 18.720,16.471 C18.391,16.236 18.307,15.468 18.271,15.088 C18.078,15.223 17.713,15.781 17.571,16.158 C17.535,14.305 17.829,13.218 18.362,12.919 C18.055,13.267 17.813,14.434 17.755,15.394 C17.755,15.468 18.000,14.876 18.404,14.305 C18.362,14.463 18.446,15.033 18.597,15.765 C18.597,15.582 18.817,14.956 19.223,14.521 C19.259,14.956 19.740,15.610 19.972,15.939 C19.946,15.865 19.946,15.262 20.079,15.011 C20.108,15.359 20.556,15.810 20.815,16.094 C20.757,16.023 20.786,15.694 20.760,15.398 C20.992,15.575 21.179,15.523 21.409,15.475 C21.108,15.346 20.544,14.827 20.502,14.386 C20.760,15.092 21.822,15.369 22.099,15.359 L22.099,15.359 ZM19.711,16.506 L19.475,16.506 C19.453,16.416 19.253,16.152 19.253,16.152 C19.253,16.152 19.240,16.343 19.240,16.506 L19.010,16.513 C19.033,16.313 19.033,15.659 19.198,15.523 C19.259,15.717 19.588,16.435 19.711,16.506 L19.711,16.506 ZM18.384,16.506 L18.142,16.506 C18.133,16.406 18.078,16.100 18.078,16.100 C18.078,16.100 17.920,16.343 17.926,16.506 L17.684,16.506 C17.713,16.313 17.971,15.781 18.133,15.640 C18.191,15.833 18.268,16.429 18.384,16.506 L18.384,16.506 ZM21.705,11.629 C20.747,12.358 19.908,14.054 19.811,14.876 C19.530,13.431 19.982,12.335 20.343,11.643 C19.901,11.936 19.069,13.380 18.739,14.679 C18.655,12.913 19.088,12.100 19.795,11.152 C19.223,11.346 18.233,12.606 17.949,12.919 C19.152,10.624 19.424,10.327 20.544,10.134 L20.337,10.324 C19.604,10.363 18.946,11.465 18.946,11.465 C18.933,11.478 19.359,11.094 20.230,10.711 C19.943,11.040 19.304,12.335 19.069,12.974 C19.152,12.712 19.888,11.723 20.695,11.094 C20.544,11.414 20.047,12.890 20.047,13.374 C20.260,12.861 20.640,12.323 21.705,11.629 C21.825,11.536 21.948,11.459 22.070,11.400 C21.941,11.478 21.822,11.556 21.705,11.629 L21.705,11.629 ZM20.902,9.570 C20.337,10.269 19.424,10.298 18.620,10.134 C19.169,10.085 20.182,9.570 20.424,9.408 C20.260,9.677 19.669,9.982 19.411,10.085 C19.917,10.082 20.502,9.822 20.902,9.570 L20.902,9.570 ZM21.999,10.717 C22.083,10.546 22.306,10.247 22.341,10.192 C22.086,10.327 21.192,10.946 21.008,11.117 C21.050,10.895 21.328,10.292 21.457,10.169 C21.179,10.340 20.621,10.765 20.460,10.924 C20.473,10.575 21.044,9.615 21.321,9.408 C20.944,9.405 20.350,9.164 20.337,9.157 C20.621,9.235 21.405,9.264 21.770,9.238 C21.405,9.464 20.866,10.053 20.760,10.511 C21.292,10.005 22.035,9.541 22.361,9.480 C21.999,9.715 21.373,10.469 21.321,10.740 C21.593,10.546 22.600,9.792 23.019,9.750 C22.735,10.028 22.070,10.575 21.999,10.717 L21.999,10.717 ZM21.509,8.796 C21.647,8.809 23.448,8.645 24.026,8.526 C24.133,8.661 23.894,9.044 23.723,9.108 C23.526,8.796 21.793,8.903 21.509,8.796 L21.509,8.796 ZM24.672,11.587 C24.410,11.194 24.046,11.072 23.526,11.017 C24.046,10.840 24.488,11.030 24.672,11.587 L24.672,11.587 ZM26.072,10.169 C26.250,9.792 26.279,9.486 26.150,9.293 C26.034,9.108 25.708,8.864 25.224,8.815 C25.666,8.773 26.350,8.967 26.392,9.486 C26.415,9.950 26.105,10.418 26.098,10.418 C26.072,10.405 25.295,9.899 24.339,10.312 C23.671,10.591 23.319,10.821 23.168,10.933 C23.106,10.982 23.074,11.011 23.074,11.011 C23.074,11.011 23.100,10.985 23.168,10.933 C23.432,10.724 24.181,10.150 24.646,10.057 C25.220,9.941 25.385,9.950 26.072,10.169 L26.072,10.169 ZM25.301,9.805 C25.530,9.628 25.743,9.621 25.821,9.957 C25.708,9.899 25.501,9.857 25.301,9.805 L25.301,9.805 ZM24.994,8.796 C24.265,9.957 22.664,11.172 22.419,11.287 C22.177,11.414 22.328,11.307 22.328,11.275 C23.723,10.327 24.823,8.893 24.865,8.815 C24.888,8.538 24.717,8.558 24.594,8.638 C23.862,10.034 23.097,10.382 22.177,10.817 C23.797,9.899 24.410,8.732 24.494,8.532 C24.707,8.367 25.030,8.419 24.994,8.796 L24.994,8.796 ZM24.401,6.895 C24.288,6.895 24.197,6.807 24.197,6.701 C24.197,6.588 24.288,6.517 24.401,6.517 C24.501,6.517 24.588,6.588 24.588,6.701 C24.588,6.807 24.501,6.895 24.401,6.895 L24.401,6.895 ZM24.330,7.797 C23.868,7.932 22.848,7.884 22.383,7.797 L22.383,7.548 L24.317,7.571 L24.330,7.797 ZM24.643,5.560 C24.752,5.560 24.843,5.640 24.843,5.753 C24.843,5.860 24.752,5.940 24.643,5.940 C24.536,5.940 24.446,5.860 24.446,5.753 C24.446,5.640 24.536,5.560 24.643,5.560 L24.643,5.560 ZM24.575,6.040 C24.688,6.040 24.765,6.130 24.765,6.243 C24.765,6.343 24.688,6.430 24.575,6.430 C24.475,6.430 24.388,6.343 24.388,6.243 C24.388,6.130 24.475,6.040 24.575,6.040 L24.575,6.040 ZM24.110,5.647 C24.210,5.647 24.294,5.734 24.294,5.837 C24.294,5.947 24.210,6.024 24.110,6.024 C23.994,6.024 23.910,5.947 23.910,5.837 C23.910,5.734 23.994,5.647 24.110,5.647 L24.110,5.647 ZM24.004,6.153 C24.110,6.153 24.188,6.243 24.188,6.350 C24.188,6.453 24.110,6.543 24.004,6.543 C23.894,6.543 23.810,6.453 23.810,6.350 C23.810,6.243 23.894,6.153 24.004,6.153 L24.004,6.153 ZM23.868,6.920 C23.939,6.836 24.026,6.785 24.052,6.807 C24.068,6.836 24.033,6.920 23.939,7.007 C23.868,7.091 23.781,7.136 23.758,7.120 C23.726,7.091 23.781,6.994 23.868,6.920 L23.868,6.920 ZM23.690,6.920 C23.632,7.049 23.555,7.136 23.519,7.120 C23.481,7.101 23.497,6.978 23.555,6.856 C23.616,6.723 23.690,6.636 23.739,6.653 C23.762,6.678 23.758,6.788 23.690,6.920 L23.690,6.920 ZM23.655,5.524 L23.832,5.483 L23.645,6.453 L23.561,6.459 L23.655,5.524 ZM23.032,4.374 L23.032,4.138 L23.245,4.138 L23.245,3.923 L23.484,3.923 L23.484,4.138 L23.697,4.138 L23.697,4.374 L23.484,4.374 L23.484,4.587 L23.245,4.587 L23.245,4.374 L23.032,4.374 ZM23.126,5.022 C23.126,4.886 23.239,4.777 23.381,4.777 C23.516,4.777 23.616,4.886 23.616,5.022 C23.616,5.154 23.516,5.270 23.381,5.270 C23.239,5.270 23.126,5.154 23.126,5.022 L23.126,5.022 ZM23.339,6.479 C23.281,6.479 23.239,6.437 23.239,6.388 C23.239,6.330 23.281,6.294 23.339,6.294 C23.384,6.294 23.426,6.330 23.426,6.388 C23.426,6.437 23.384,6.479 23.339,6.479 L23.339,6.479 ZM23.390,6.836 C23.390,6.994 23.361,7.126 23.313,7.126 C23.261,7.126 23.232,6.994 23.232,6.836 C23.232,6.685 23.261,6.559 23.313,6.559 C23.361,6.559 23.390,6.685 23.390,6.836 L23.390,6.836 ZM23.348,6.153 C23.281,6.153 23.232,6.111 23.232,6.040 C23.232,5.973 23.281,5.924 23.348,5.924 C23.416,5.924 23.474,5.973 23.474,6.040 C23.474,6.111 23.416,6.153 23.348,6.153 L23.348,6.153 ZM23.348,5.796 C23.274,5.796 23.210,5.724 23.210,5.647 C23.210,5.570 23.274,5.505 23.348,5.505 C23.426,5.505 23.497,5.570 23.497,5.647 C23.497,5.724 23.426,5.796 23.348,5.796 L23.348,5.796 ZM23.313,7.255 C23.758,7.255 24.110,7.307 24.110,7.362 C24.110,7.414 23.758,7.468 23.313,7.468 C22.855,7.468 22.496,7.414 22.496,7.362 C22.496,7.307 22.855,7.255 23.313,7.255 L23.313,7.255 ZM22.861,7.120 C22.832,7.136 22.748,7.091 22.661,7.007 C22.577,6.920 22.529,6.836 22.548,6.807 C22.590,6.785 22.671,6.836 22.748,6.920 C22.835,6.994 22.884,7.091 22.861,7.120 L22.861,7.120 ZM22.877,6.653 C22.919,6.636 22.997,6.723 23.048,6.856 C23.119,6.978 23.139,7.101 23.097,7.120 C23.048,7.136 22.974,7.049 22.919,6.920 C22.861,6.788 22.842,6.678 22.877,6.653 L22.877,6.653 ZM23.032,5.524 L23.126,6.459 L23.048,6.453 L22.861,5.483 L23.032,5.524 ZM22.499,6.040 L22.661,6.040 L22.661,6.195 L22.813,6.195 L22.813,6.372 L22.661,6.372 L22.661,6.517 L22.499,6.517 L22.499,6.372 L22.348,6.372 L22.348,6.195 L22.499,6.195 L22.499,6.040 ZM21.986,5.753 L22.141,5.753 L22.141,5.596 L22.306,5.596 L22.306,5.753 L22.461,5.753 L22.461,5.924 L22.306,5.924 L22.306,6.076 L22.141,6.076 L22.141,5.924 L21.986,5.924 L21.986,5.753 ZM22.106,6.936 L22.106,6.788 L21.951,6.788 L21.951,6.617 L22.106,6.617 L22.106,6.459 L22.277,6.459 L22.277,6.617 L22.419,6.617 L22.419,6.788 L22.277,6.788 L22.277,6.936 L22.106,6.936 ZM24.459,7.932 C24.546,7.910 24.546,7.967 24.546,8.039 L24.510,8.045 C24.081,8.161 21.115,8.203 20.037,8.148 C20.053,8.297 20.502,8.638 20.595,8.722 C20.424,8.754 20.143,8.896 20.030,8.964 C20.072,8.932 20.253,8.793 20.408,8.693 C20.153,8.510 19.901,8.239 19.866,8.054 C21.380,8.216 24.368,7.955 24.459,7.932 L24.459,7.932 ZM20.350,7.655 L20.318,7.655 C20.298,7.642 20.272,7.626 20.250,7.613 C19.449,7.288 18.604,6.659 18.162,6.089 C18.284,6.143 18.468,6.166 18.620,6.172 C18.901,6.562 19.608,7.239 20.250,7.613 C20.282,7.626 20.318,7.642 20.350,7.655 L20.350,7.655 ZM17.171,6.388 C17.287,6.414 17.384,6.430 17.564,6.437 C17.700,6.437 17.800,6.437 17.926,6.408 C18.055,6.382 18.142,6.437 18.062,6.482 C17.978,6.517 17.819,6.543 17.535,6.530 C17.258,6.517 17.100,6.501 17.016,6.459 C16.929,6.408 17.029,6.359 17.171,6.388 L17.171,6.388 ZM17.119,6.102 C17.122,6.012 17.313,6.046 17.535,6.060 C17.778,6.060 17.978,6.037 17.978,6.111 C17.978,6.201 17.829,6.201 17.535,6.195 C17.258,6.188 17.119,6.195 17.119,6.102 L17.119,6.102 ZM17.535,5.866 C17.071,5.860 16.445,5.917 16.057,5.982 L16.009,5.860 C16.186,5.789 17.006,5.702 17.542,5.705 C18.091,5.711 18.910,5.840 19.091,5.895 L19.046,6.024 C18.649,5.960 18.032,5.869 17.535,5.866 L17.535,5.866 ZM17.542,5.425 C18.084,5.425 18.981,5.547 19.146,5.599 L19.117,5.731 C18.710,5.670 18.007,5.576 17.542,5.576 C17.093,5.547 16.393,5.631 15.993,5.676 L15.960,5.540 C16.138,5.495 17.029,5.399 17.542,5.425 L17.542,5.425 ZM16.415,4.957 C16.435,4.899 16.593,4.893 16.787,4.954 C16.971,5.018 17.113,5.112 17.084,5.170 C17.071,5.241 16.906,5.241 16.716,5.183 C16.538,5.128 16.386,5.028 16.415,4.957 L16.415,4.957 ZM17.571,2.810 C17.626,2.810 17.684,2.862 17.684,2.920 C17.684,2.991 17.626,3.039 17.571,3.039 C17.506,3.039 17.464,2.991 17.464,2.920 C17.464,2.862 17.506,2.810 17.571,2.810 L17.571,2.810 ZM17.435,2.514 C17.435,2.436 17.493,2.372 17.571,2.372 C17.648,2.372 17.706,2.436 17.706,2.514 C17.706,2.598 17.648,2.656 17.571,2.656 C17.493,2.656 17.435,2.598 17.435,2.514 L17.435,2.514 ZM17.661,3.355 C17.661,3.410 17.613,3.459 17.558,3.459 C17.506,3.459 17.471,3.410 17.471,3.355 C17.471,3.317 17.506,3.262 17.558,3.262 C17.613,3.262 17.661,3.317 17.661,3.355 L17.661,3.355 ZM17.535,4.164 C17.593,4.164 17.661,4.399 17.661,4.677 C17.661,4.957 17.593,5.193 17.535,5.193 C17.471,5.193 17.413,4.957 17.413,4.677 C17.413,4.399 17.471,4.164 17.535,4.164 L17.535,4.164 ZM18.617,3.916 C18.510,3.916 18.433,3.829 18.433,3.726 C18.433,3.616 18.510,3.539 18.617,3.539 C18.726,3.539 18.817,3.616 18.817,3.726 C18.817,3.829 18.726,3.916 18.617,3.916 L18.617,3.916 ZM18.839,3.993 C18.952,3.993 19.039,4.074 19.039,4.180 C19.039,4.293 18.952,4.380 18.839,4.380 C18.733,4.380 18.655,4.293 18.655,4.180 C18.655,4.074 18.733,3.993 18.839,3.993 L18.839,3.993 ZM18.684,5.005 C18.704,5.070 18.568,5.157 18.375,5.205 C18.178,5.263 18.013,5.254 17.997,5.183 C17.978,5.128 18.120,5.041 18.307,4.986 C18.504,4.928 18.668,4.941 18.684,5.005 L18.684,5.005 ZM20.101,7.262 C19.811,7.136 19.146,6.482 18.962,6.217 C19.010,6.188 19.098,6.201 19.117,6.224 C19.333,6.501 19.959,7.156 20.101,7.262 L20.101,7.262 ZM19.317,4.851 C19.204,4.851 19.117,4.764 19.117,4.664 C19.117,4.558 19.204,4.477 19.317,4.477 C19.417,4.477 19.498,4.558 19.498,4.664 C19.498,4.764 19.417,4.851 19.317,4.851 L19.317,4.851 ZM19.369,4.235 C19.259,4.235 19.188,4.145 19.188,4.032 C19.188,3.932 19.259,3.852 19.369,3.852 C19.475,3.852 19.566,3.932 19.566,4.032 C19.566,4.145 19.475,4.235 19.369,4.235 L19.369,4.235 ZM19.875,3.651 C19.875,3.752 19.804,3.832 19.695,3.832 C19.588,3.832 19.498,3.752 19.498,3.651 C19.498,3.539 19.588,3.459 19.695,3.459 C19.804,3.459 19.875,3.539 19.875,3.651 L19.875,3.651 ZM19.553,2.810 C19.669,2.810 19.746,2.891 19.746,2.997 C19.746,3.103 19.669,3.184 19.553,3.184 C19.453,3.184 19.366,3.103 19.366,2.997 C19.366,2.891 19.453,2.810 19.553,2.810 L19.553,2.810 ZM19.388,3.503 C19.388,3.610 19.304,3.694 19.204,3.694 C19.088,3.694 19.004,3.610 19.004,3.503 C19.004,3.391 19.088,3.317 19.204,3.317 C19.304,3.317 19.388,3.391 19.388,3.503 L19.388,3.503 ZM19.127,2.314 C19.240,2.314 19.330,2.401 19.330,2.507 C19.330,2.620 19.240,2.698 19.127,2.698 C19.027,2.698 18.946,2.620 18.946,2.507 C18.946,2.401 19.027,2.314 19.127,2.314 L19.127,2.314 ZM18.897,2.798 C19.004,2.798 19.088,2.885 19.088,2.991 C19.088,3.103 19.004,3.184 18.897,3.184 C18.797,3.184 18.710,3.103 18.710,2.991 C18.710,2.885 18.797,2.798 18.897,2.798 L18.897,2.798 ZM18.462,2.179 L18.697,2.221 L18.220,4.009 L18.103,3.993 L18.462,2.179 ZM18.103,4.345 C18.162,4.370 18.155,4.577 18.091,4.799 C18.020,5.022 17.926,5.199 17.848,5.183 C17.797,5.157 17.800,4.957 17.861,4.734 C17.932,4.509 18.036,4.322 18.103,4.345 L18.103,4.345 ZM17.184,0.706 L17.184,0.406 L17.500,0.506 L17.429,0.119 L17.784,0.119 L17.706,0.490 L18.020,0.425 L18.020,0.725 L17.697,0.612 L17.778,0.961 L17.422,0.961 L17.500,0.612 L17.184,0.706 ZM17.213,1.402 C17.213,1.202 17.390,1.025 17.593,1.025 C17.800,1.025 17.971,1.202 17.971,1.402 C17.971,1.618 17.800,1.786 17.593,1.786 C17.390,1.786 17.213,1.618 17.213,1.402 L17.213,1.402 ZM17.584,2.095 L17.955,2.095 L17.797,3.810 L17.684,3.803 L17.826,2.227 L17.577,2.208 L17.342,2.208 L17.448,3.787 L17.342,3.803 L17.213,2.085 L17.584,2.095 ZM17.248,4.712 C17.293,4.941 17.313,5.154 17.229,5.170 C17.164,5.183 17.071,5.005 17.006,4.764 C16.958,4.551 16.958,4.345 17.013,4.316 C17.084,4.309 17.184,4.493 17.248,4.712 L17.248,4.712 ZM16.706,2.156 L17.013,3.968 L16.906,3.987 L16.464,2.179 L16.706,2.156 ZM16.031,3.014 L16.193,3.014 L16.193,2.862 L16.351,2.862 L16.351,3.014 L16.503,3.014 L16.503,3.184 L16.351,3.184 L16.351,3.326 L16.193,3.326 L16.193,3.184 L16.031,3.184 L16.031,3.014 ZM15.986,3.761 L16.144,3.761 L16.144,3.610 L16.302,3.610 L16.302,3.761 L16.457,3.761 L16.457,3.923 L16.302,3.923 L16.302,4.074 L16.144,4.074 L16.144,3.923 L15.986,3.923 L15.986,3.761 ZM15.383,2.775 L15.538,2.775 L15.538,2.620 L15.709,2.620 L15.709,2.775 L15.857,2.775 L15.857,2.933 L15.709,2.933 L15.709,3.091 L15.538,3.091 L15.538,2.933 L15.383,2.933 L15.383,2.775 ZM15.195,3.723 L15.195,3.552 L15.354,3.552 L15.354,3.391 L15.518,3.391 L15.518,3.552 L15.673,3.552 L15.673,3.723 L15.518,3.723 L15.518,3.874 L15.354,3.874 L15.354,3.723 L15.195,3.723 ZM15.831,4.477 L15.831,4.622 L15.667,4.622 L15.667,4.477 L15.515,4.477 L15.515,4.300 L15.667,4.300 L15.667,4.145 L15.831,4.145 L15.831,4.300 L15.986,4.300 L15.986,4.477 L15.831,4.477 ZM15.980,6.172 C15.993,6.166 16.086,6.143 16.131,6.172 C15.938,6.430 15.260,7.072 14.966,7.191 C15.105,7.084 15.751,6.449 15.980,6.172 L15.980,6.172 ZM16.509,6.111 C16.651,6.089 16.764,6.076 16.929,6.066 C16.470,6.649 15.544,7.285 14.740,7.604 C15.396,7.262 16.293,6.449 16.509,6.111 L16.509,6.111 ZM16.809,6.608 C17.084,6.720 17.148,6.743 17.519,6.759 C17.926,6.765 18.000,6.759 18.271,6.636 C18.791,7.126 19.888,7.684 20.886,7.932 C20.337,7.990 19.617,7.855 19.223,7.578 C19.204,7.984 20.088,8.667 20.088,8.667 C20.088,8.667 19.772,8.757 19.569,8.757 C19.359,8.757 19.453,8.903 19.553,8.973 C19.637,9.058 19.982,9.129 20.189,9.315 C19.453,9.950 18.681,9.899 17.971,9.770 C18.036,10.163 18.826,10.427 19.146,10.498 C18.852,10.872 18.000,12.229 17.464,13.454 C16.922,12.126 16.131,10.740 15.838,10.376 C16.160,10.298 16.945,10.057 17.029,9.670 C16.322,9.770 15.544,9.805 14.818,9.235 C15.024,9.050 15.373,9.000 15.473,8.916 C15.567,8.851 15.673,8.703 15.460,8.703 C15.260,8.693 14.940,8.590 14.931,8.590 C14.940,8.590 15.831,7.932 15.831,7.526 C15.431,7.803 14.711,7.910 14.205,7.832 C15.160,7.619 16.267,7.084 16.809,6.608 L16.809,6.608 ZM14.017,10.924 C13.849,10.765 12.972,10.118 12.713,9.976 C12.759,10.028 12.978,10.327 13.055,10.524 C12.997,10.363 12.323,9.792 12.058,9.522 C12.478,9.570 13.469,10.340 13.733,10.553 C13.691,10.275 13.085,9.515 12.713,9.341 C13.030,9.408 13.775,9.822 14.221,10.340 C14.153,9.870 13.678,9.358 13.320,9.129 C13.678,9.157 14.398,9.135 14.669,9.073 C14.663,9.080 14.140,9.305 13.762,9.293 C14.040,9.480 14.524,10.405 14.505,10.759 C14.359,10.582 13.882,10.163 13.604,9.976 C13.733,10.092 14.004,10.705 14.017,10.924 L14.017,10.924 ZM11.361,8.944 C11.203,8.867 10.967,8.480 11.074,8.345 C11.658,8.487 13.443,8.703 13.578,8.693 C13.304,8.787 11.567,8.638 11.361,8.944 L11.361,8.944 ZM14.169,9.480 C14.498,9.650 15.076,9.911 15.589,9.950 C15.312,9.834 14.747,9.522 14.589,9.328 C14.818,9.492 15.831,9.957 16.373,10.005 C15.567,10.163 14.660,10.092 14.169,9.480 L14.169,9.480 ZM12.901,6.788 C12.791,6.788 12.700,6.701 12.700,6.601 C12.691,6.501 12.771,6.408 12.884,6.408 C12.991,6.408 13.065,6.479 13.078,6.585 C13.085,6.695 13.001,6.785 12.901,6.788 L12.901,6.788 ZM11.835,7.094 C12.281,7.101 12.642,7.165 12.642,7.220 C12.642,7.285 12.271,7.313 11.829,7.307 C11.387,7.291 11.022,7.229 11.022,7.178 C11.022,7.126 11.387,7.084 11.835,7.094 L11.835,7.094 ZM11.067,6.630 C11.096,6.608 11.187,6.659 11.267,6.749 C11.338,6.830 11.397,6.920 11.367,6.943 C11.338,6.965 11.258,6.920 11.180,6.830 C11.096,6.749 11.051,6.659 11.067,6.630 L11.067,6.630 ZM11.803,6.324 C11.758,6.324 11.710,6.279 11.710,6.217 C11.710,6.172 11.764,6.137 11.803,6.137 C11.864,6.137 11.906,6.175 11.906,6.237 C11.906,6.282 11.864,6.324 11.803,6.324 L11.803,6.324 ZM11.906,6.685 C11.894,6.836 11.864,6.965 11.803,6.965 C11.764,6.965 11.735,6.836 11.735,6.685 C11.739,6.530 11.781,6.408 11.823,6.408 C11.871,6.408 11.910,6.530 11.906,6.685 L11.906,6.685 ZM11.787,6.001 C11.735,6.001 11.674,5.947 11.674,5.882 C11.674,5.811 11.735,5.760 11.800,5.769 C11.871,5.769 11.916,5.818 11.916,5.882 C11.910,5.947 11.864,6.001 11.787,6.001 L11.787,6.001 ZM11.803,5.640 C11.735,5.634 11.664,5.560 11.664,5.489 C11.664,5.406 11.735,5.334 11.803,5.347 C11.894,5.347 11.952,5.418 11.952,5.495 C11.952,5.570 11.887,5.640 11.803,5.640 L11.803,5.640 ZM12.229,6.772 C12.152,6.895 12.071,6.978 12.029,6.965 C11.987,6.950 12.006,6.830 12.071,6.701 C12.136,6.572 12.213,6.488 12.258,6.508 C12.287,6.530 12.271,6.643 12.229,6.772 L12.229,6.772 ZM12.378,6.785 C12.458,6.695 12.549,6.643 12.571,6.672 C12.588,6.701 12.552,6.785 12.458,6.871 C12.378,6.950 12.294,6.984 12.265,6.965 C12.242,6.943 12.287,6.849 12.378,6.785 L12.378,6.785 ZM12.759,7.414 L12.759,7.655 C12.271,7.739 11.258,7.761 10.803,7.607 L10.819,7.391 L12.759,7.414 ZM13.062,6.308 C12.955,6.317 12.865,6.243 12.865,6.130 C12.859,6.024 12.930,5.931 13.043,5.931 C13.149,5.924 13.233,6.012 13.243,6.111 C13.256,6.217 13.165,6.301 13.062,6.308 L13.062,6.308 ZM12.991,5.460 C13.085,5.460 13.178,5.534 13.191,5.640 C13.191,5.753 13.114,5.837 13.014,5.840 C12.901,5.860 12.813,5.769 12.800,5.659 C12.794,5.553 12.884,5.463 12.991,5.460 L12.991,5.460 ZM12.549,5.553 C12.649,5.547 12.749,5.634 12.755,5.734 C12.755,5.840 12.665,5.931 12.558,5.931 C12.458,5.940 12.378,5.866 12.371,5.753 C12.358,5.647 12.442,5.560 12.549,5.553 L12.549,5.553 ZM12.465,6.066 C12.571,6.060 12.665,6.137 12.665,6.253 C12.678,6.350 12.588,6.443 12.494,6.443 C12.381,6.453 12.294,6.372 12.287,6.266 C12.281,6.153 12.358,6.076 12.465,6.066 L12.465,6.066 ZM12.136,5.363 L12.294,5.328 L12.087,6.301 L12.016,6.308 L12.136,5.363 ZM11.493,4.209 L11.493,3.968 L11.710,3.968 L11.710,3.758 L11.945,3.758 L11.945,3.968 L12.165,3.968 L12.165,4.209 L11.945,4.209 L11.945,4.422 L11.710,4.422 L11.710,4.209 L11.493,4.209 ZM11.558,4.864 C11.558,4.715 11.668,4.612 11.803,4.622 C11.942,4.622 12.058,4.734 12.045,4.870 C12.045,5.005 11.929,5.112 11.787,5.112 C11.651,5.112 11.551,4.999 11.558,4.864 L11.558,4.864 ZM11.603,6.950 C11.564,6.965 11.493,6.879 11.438,6.756 C11.367,6.617 11.367,6.508 11.403,6.479 C11.438,6.459 11.516,6.566 11.564,6.695 C11.629,6.823 11.645,6.943 11.603,6.950 L11.603,6.950 ZM11.509,5.347 L11.574,6.301 L11.497,6.282 L11.332,5.312 L11.509,5.347 ZM10.967,6.018 L11.132,6.012 L11.138,6.172 L11.293,6.153 L11.293,6.324 L11.145,6.330 L11.158,6.488 L10.987,6.501 L10.980,6.343 L10.819,6.350 L10.809,6.175 L10.967,6.172 L10.967,6.018 ZM10.577,5.589 L10.748,5.589 L10.761,5.747 L10.903,5.734 L10.919,5.902 L10.767,5.911 L10.780,6.060 L10.609,6.066 L10.596,5.911 L10.438,5.924 L10.431,5.753 L10.590,5.753 L10.577,5.589 ZM10.448,6.788 L10.438,6.617 L10.596,6.608 L10.590,6.453 L10.761,6.443 L10.761,6.608 L10.916,6.588 L10.919,6.765 L10.780,6.772 L10.780,6.924 L10.612,6.936 L10.609,6.785 L10.448,6.788 ZM10.661,7.739 C10.761,7.775 13.720,8.110 15.176,7.990 C15.131,8.161 14.876,8.431 14.611,8.609 C14.744,8.687 14.882,8.799 14.957,8.857 C14.976,8.870 14.992,8.880 15.005,8.893 C15.005,8.896 14.986,8.880 14.957,8.857 C14.831,8.777 14.585,8.661 14.424,8.625 C14.524,8.558 14.982,8.225 15.005,8.074 C14.004,8.096 11.032,7.984 10.609,7.855 L10.567,7.849 C10.567,7.777 10.567,7.719 10.661,7.739 L10.661,7.739 ZM10.354,11.307 C10.544,10.759 11.009,10.575 11.529,10.769 C11.003,10.811 10.631,10.901 10.354,11.307 L10.354,11.307 ZM11.900,10.714 C11.771,10.610 11.429,10.366 10.719,10.053 C9.783,9.599 8.998,10.085 8.976,10.111 C8.969,10.092 8.669,9.628 8.698,9.238 C8.743,8.732 9.428,8.561 9.876,8.609 C9.399,8.638 9.076,8.886 8.943,9.058 C8.814,9.251 8.827,9.486 9.005,9.857 C9.699,9.650 9.854,9.650 10.412,9.779 C10.912,9.892 11.677,10.524 11.900,10.714 C11.945,10.750 11.964,10.769 11.964,10.769 C11.964,10.769 11.939,10.750 11.900,10.714 L11.900,10.714 ZM9.763,9.522 C9.570,9.563 9.370,9.593 9.263,9.650 C9.334,9.351 9.541,9.358 9.763,9.522 L9.763,9.522 ZM10.512,8.451 C10.383,8.367 10.218,8.345 10.231,8.616 C10.270,8.703 11.338,10.082 12.707,11.046 C12.707,11.088 12.865,11.201 12.613,11.072 C12.378,10.946 10.803,9.699 10.112,8.590 C10.089,8.216 10.396,8.174 10.609,8.345 C10.690,8.538 11.261,9.644 12.872,10.605 C11.964,10.147 11.203,9.779 10.512,8.451 L10.512,8.451 ZM13.378,11.478 C13.256,11.388 13.120,11.291 12.972,11.194 C13.110,11.265 13.246,11.362 13.378,11.478 C14.318,12.171 14.666,12.709 14.853,13.215 C14.876,12.732 14.411,11.245 14.263,10.911 C15.002,11.526 15.676,12.445 15.815,12.790 C15.589,12.110 15.015,10.872 14.747,10.553 C15.615,10.959 16.009,11.336 16.009,11.336 C16.009,11.336 15.383,10.218 14.660,10.147 L14.447,9.950 C15.567,10.192 15.821,10.495 16.964,12.812 C16.687,12.491 15.751,11.207 15.176,11.001 C15.857,11.971 16.267,12.784 16.131,14.550 C15.831,13.244 15.047,11.794 14.605,11.481 C14.940,12.177 15.373,13.289 15.047,14.711 C14.982,13.911 14.266,12.258 13.378,11.478 L13.378,11.478 ZM13.950,15.530 C13.604,15.575 13.007,15.394 12.820,15.140 C13.097,15.156 14.091,14.911 14.382,14.202 C14.327,14.656 13.820,15.169 13.514,15.275 C13.746,15.327 13.927,15.382 14.091,15.223 C14.063,15.523 14.085,15.846 14.011,15.910 C14.282,15.633 14.740,15.198 14.795,14.849 C14.911,15.098 14.889,15.710 14.853,15.794 C15.105,15.468 15.596,14.811 15.667,14.386 C16.057,14.820 16.251,15.452 16.251,15.630 C16.409,14.911 16.509,14.337 16.480,14.185 C16.864,14.769 17.093,15.369 17.100,15.288 C17.058,14.334 16.864,13.161 16.551,12.806 C17.084,13.125 17.342,14.202 17.258,16.071 C17.122,15.687 16.787,15.117 16.580,14.982 C16.551,15.346 16.435,16.123 16.109,16.343 C16.080,15.968 16.031,15.092 15.680,14.856 C15.625,15.288 14.824,16.175 14.534,16.300 C14.605,16.100 14.663,15.640 14.582,15.582 C14.227,16.094 13.950,16.322 13.669,16.322 C13.933,15.952 13.982,15.739 13.950,15.530 L13.950,15.530 ZM17.135,16.406 L16.893,16.394 C16.900,16.236 16.764,15.994 16.764,15.994 C16.764,15.994 16.687,16.287 16.680,16.387 L16.435,16.387 C16.564,16.322 16.651,15.729 16.729,15.530 C16.877,15.675 17.119,16.207 17.135,16.406 L17.135,16.406 ZM15.573,16.017 C15.573,16.017 15.366,16.265 15.354,16.352 L15.124,16.352 C15.237,16.287 15.573,15.582 15.651,15.382 C15.821,15.523 15.802,16.181 15.821,16.364 L15.573,16.364 C15.589,16.207 15.573,16.017 15.573,16.017 L15.573,16.017 ZM13.014,16.693 L21.699,16.693 L21.715,24.368 C21.641,25.345 21.735,26.627 19.517,26.650 C17.306,26.682 17.342,27.447 17.277,28.513 C17.206,27.353 17.277,26.670 15.047,26.570 C12.913,26.492 13.055,25.125 13.001,24.155 L13.014,16.693 ZM18.810,33.123 C19.875,34.567 19.772,35.060 19.259,36.308 C19.717,34.966 19.204,34.026 18.810,33.123 L18.810,33.123 ZM17.897,30.638 C18.704,32.298 19.917,33.152 20.179,33.829 L19.943,33.822 C19.227,32.804 17.942,31.463 17.897,30.638 L17.897,30.638 ZM17.358,30.863 C17.490,30.615 17.829,29.484 17.871,29.007 L18.113,28.977 C18.113,29.178 17.684,30.515 17.358,30.863 L17.358,30.863 ZM17.493,29.100 C17.736,28.719 18.242,27.733 18.384,26.941 L18.626,26.928 C18.597,27.092 18.062,28.449 17.493,29.100 L17.493,29.100 ZM15.047,36.163 C14.576,34.889 14.476,34.396 15.589,32.988 C15.153,33.877 14.618,34.802 15.047,36.163 L15.047,36.163 ZM14.427,33.658 L14.198,33.664 C14.463,32.994 15.718,32.162 16.551,30.515 C16.486,31.350 15.160,32.659 14.427,33.658 L14.427,33.658 ZM16.380,28.855 L16.616,28.900 C16.651,29.368 16.977,30.509 17.100,30.760 C16.770,30.402 16.373,29.058 16.380,28.855 L16.380,28.855 ZM15.925,26.786 L16.167,26.805 C16.293,27.618 16.764,28.613 17.000,28.993 C16.445,28.330 15.951,26.957 15.925,26.786 L15.925,26.786 ZM17.119,31.073 L17.335,31.057 C17.364,32.475 17.187,36.008 17.177,35.998 C17.151,35.979 17.042,32.498 17.119,31.073 L17.119,31.073 ZM17.148,29.426 L17.335,29.448 C17.313,29.755 17.248,30.138 17.229,30.125 C17.229,30.118 17.171,29.726 17.148,29.426 L17.148,29.426 ZM12.452,25.516 C12.207,25.638 11.467,25.796 11.280,26.186 C11.910,25.922 12.271,25.851 12.523,25.993 C12.142,26.286 12.078,26.370 12.094,26.451 C12.507,26.344 12.865,26.386 13.062,26.544 C12.378,26.699 11.803,26.782 11.529,26.953 C11.558,26.676 11.593,26.470 11.752,26.306 C11.051,26.515 10.638,26.812 10.448,27.011 C10.667,26.434 10.845,25.838 12.452,25.516 L12.452,25.516 ZM10.167,27.846 C10.377,27.618 10.448,27.475 10.715,27.375 C10.709,27.582 10.719,27.769 10.819,27.965 C10.925,27.769 11.209,27.424 11.238,27.395 C11.074,27.717 10.880,28.300 10.854,28.465 C10.715,28.272 10.612,28.010 10.544,27.769 C10.431,27.811 10.118,28.117 9.983,28.272 C9.947,28.001 9.918,27.247 10.141,26.782 C10.112,27.134 10.096,27.717 10.167,27.846 L10.167,27.846 ZM12.694,30.863 C12.458,30.892 11.774,30.944 11.632,30.895 C11.858,30.831 12.436,30.702 12.542,30.660 C12.513,30.531 12.513,30.289 12.620,30.289 C12.759,30.425 12.865,30.760 12.694,30.863 L12.694,30.863 ZM13.620,29.555 C12.943,29.654 12.820,29.567 12.620,28.930 C12.578,29.058 12.613,29.619 12.352,29.961 C12.152,29.755 12.058,29.342 11.964,28.877 C11.916,29.036 11.906,29.567 11.752,30.019 C11.645,29.668 11.445,29.361 11.167,28.900 C11.022,29.184 10.803,29.390 10.467,29.619 C10.554,29.426 10.477,28.823 10.338,28.513 C10.005,28.820 9.734,29.007 9.211,28.977 C10.034,28.820 8.669,26.328 10.512,26.086 C9.098,26.544 9.947,28.281 9.683,28.630 C9.834,28.649 10.167,28.465 10.438,28.117 C10.531,28.323 10.638,28.684 10.709,29.178 C10.803,29.136 10.951,28.955 11.096,28.649 C11.225,28.713 11.529,28.977 11.668,29.342 C11.668,29.007 11.829,28.543 11.994,28.372 C12.058,28.578 12.136,28.894 12.323,29.136 C12.423,29.049 12.452,28.771 12.507,28.330 C12.542,28.407 12.613,28.607 12.813,28.843 C12.813,28.584 12.926,28.223 13.336,27.811 C12.872,28.488 12.926,29.164 13.620,29.555 L13.620,29.555 ZM11.316,28.201 C11.293,27.488 11.887,26.941 13.333,26.682 C12.478,27.134 11.936,27.324 11.781,27.717 C12.458,27.434 13.956,27.240 14.505,27.475 C13.704,27.340 11.936,27.660 11.316,28.201 L11.316,28.201 ZM12.949,27.162 C13.798,26.863 14.153,26.570 15.212,27.630 C14.766,27.327 14.192,26.905 12.949,27.162 L12.949,27.162 ZM15.124,26.786 L15.366,26.805 C15.567,27.382 16.022,28.075 16.251,28.565 C15.625,27.953 15.289,27.195 15.124,26.786 L15.124,26.786 ZM15.040,30.422 C15.237,30.373 15.960,29.497 15.821,28.800 C15.951,29.155 15.860,29.861 15.780,29.909 C15.951,29.809 16.244,29.441 16.244,29.413 C16.144,29.832 15.889,30.454 15.040,30.422 L15.040,30.422 ZM12.972,36.475 C12.429,36.414 11.936,36.227 11.622,34.883 C11.367,35.044 11.032,35.550 10.980,35.715 C10.790,35.267 10.325,34.283 11.361,33.606 C10.796,33.152 10.667,32.633 11.238,32.275 C11.338,32.659 11.829,33.178 12.620,32.604 C13.436,32.056 13.933,31.714 14.227,31.714 C13.711,32.056 12.784,32.881 12.216,33.010 C11.668,33.145 11.345,32.975 11.187,32.910 C11.309,33.313 11.539,33.548 11.810,33.642 C11.293,34.000 10.880,34.425 11.158,34.853 C11.445,34.518 11.800,34.425 11.942,34.502 C12.136,35.524 12.588,36.414 13.201,36.056 C13.733,35.685 13.756,35.659 13.820,35.659 C13.372,35.560 12.558,35.537 12.955,34.241 C13.443,34.467 13.746,34.370 13.962,34.155 C13.604,33.806 13.414,33.178 13.604,32.923 C13.891,32.665 16.115,30.721 16.193,30.557 C15.831,31.221 14.282,32.459 13.911,32.923 C13.543,33.387 14.175,34.155 14.476,34.048 C14.063,34.554 13.678,34.838 13.136,34.654 C12.865,35.509 14.853,35.083 14.605,36.214 C13.472,35.631 13.462,36.543 12.972,36.475 L12.972,36.475 ZM11.658,34.135 C11.916,33.970 13.598,32.440 14.091,32.133 C12.513,33.529 12.507,34.673 12.452,35.189 C12.242,34.973 12.265,34.438 12.429,33.961 C12.294,33.877 12.100,33.970 11.658,34.135 L11.658,34.135 ZM14.063,35.214 L13.820,35.179 L13.798,34.802 L14.040,34.709 C14.040,34.860 13.985,34.966 14.063,35.214 L14.063,35.214 ZM14.085,36.227 L14.347,36.205 C14.847,36.710 15.515,37.032 15.967,36.627 C15.447,36.327 15.024,35.798 15.337,34.944 C15.625,34.090 16.735,31.127 16.770,31.079 C16.599,32.133 15.780,34.206 15.589,34.889 C15.383,35.602 15.651,36.604 16.670,36.250 C16.299,36.881 15.344,37.793 14.085,36.227 L14.085,36.227 ZM16.293,36.079 L15.967,36.008 C15.889,35.731 16.080,34.937 16.193,34.696 C16.193,35.018 16.193,35.850 16.293,36.079 L16.293,36.079 ZM17.151,37.758 C16.845,37.587 16.435,37.039 16.445,37.039 L16.606,36.775 C16.709,36.991 16.964,37.262 17.151,37.397 C17.342,37.239 17.590,36.988 17.700,36.775 L17.871,37.039 C17.871,37.039 17.448,37.581 17.151,37.758 L17.151,37.758 ZM17.626,36.304 C18.649,36.678 18.933,35.737 18.755,35.044 C18.575,34.325 17.813,32.246 17.671,31.186 C17.697,31.228 18.720,34.232 19.010,35.089 C19.282,35.956 18.852,36.469 18.333,36.749 C18.775,37.175 19.440,36.875 19.946,36.369 L20.214,36.407 C18.920,37.935 17.997,36.952 17.626,36.304 L17.626,36.304 ZM18.007,36.198 C18.113,35.979 18.139,35.144 18.142,34.811 C18.268,35.060 18.426,35.850 18.339,36.137 L18.007,36.198 ZM20.786,33.116 C21.050,33.365 20.757,34.000 20.385,34.325 C20.595,34.567 20.966,34.654 21.463,34.454 C21.841,35.750 21.021,35.750 20.489,35.850 C20.556,35.850 20.589,35.872 21.179,36.256 C21.786,36.639 22.277,35.750 22.470,34.731 C22.625,34.654 22.968,34.760 23.255,35.102 C23.532,34.677 23.126,34.261 22.625,33.883 C22.903,33.800 23.148,33.564 23.268,33.171 C23.110,33.229 22.803,33.387 22.241,33.229 C21.680,33.094 20.702,32.246 20.189,31.898 C20.479,31.898 21.050,32.246 21.841,32.830 C22.625,33.416 23.126,32.910 23.239,32.529 C23.787,32.910 23.661,33.416 23.074,33.848 C24.097,34.554 23.616,35.524 23.419,35.979 C23.368,35.798 23.019,35.295 22.796,35.137 C22.441,36.462 21.928,36.639 21.405,36.691 C20.886,36.746 20.863,35.837 19.711,36.369 C19.475,35.244 21.528,35.715 21.273,34.860 C20.666,35.044 20.282,34.731 19.875,34.212 C20.179,34.325 20.837,33.584 20.479,33.100 C20.124,32.630 18.604,31.356 18.255,30.666 C18.333,30.844 20.502,32.845 20.786,33.116 L20.786,33.116 ZM21.948,35.408 C21.906,34.889 21.928,33.742 20.318,32.311 C20.808,32.630 22.525,34.206 22.771,34.370 C22.341,34.206 22.135,34.099 22.006,34.183 C22.164,34.654 22.164,35.218 21.948,35.408 L21.948,35.408 ZM20.295,34.889 L20.544,34.973 L20.502,35.353 L20.260,35.386 C20.350,35.144 20.295,35.044 20.295,34.889 L20.295,34.889 ZM19.424,30.560 C18.568,30.589 18.320,29.961 18.233,29.539 C18.233,29.555 18.520,29.938 18.684,30.045 C18.604,29.996 18.546,29.290 18.662,28.942 C18.520,29.619 19.223,30.515 19.424,30.560 L19.424,30.560 ZM18.242,28.691 C18.497,28.201 18.962,27.524 19.181,26.953 L19.430,26.941 C19.253,27.353 18.891,28.088 18.242,28.691 L18.242,28.691 ZM21.670,27.375 C20.350,27.092 19.772,27.488 19.311,27.788 C20.395,26.750 20.750,27.057 21.670,27.375 L21.670,27.375 ZM20.024,27.653 C20.573,27.418 22.135,27.660 22.806,27.965 C22.671,27.563 22.135,27.353 21.292,26.885 C22.725,27.189 23.313,27.733 23.268,28.459 C22.671,27.894 20.837,27.530 20.024,27.653 L20.024,27.653 ZM21.815,31.079 C21.657,30.973 21.770,30.638 21.899,30.509 C22.019,30.531 22.006,30.757 21.977,30.886 C22.083,30.921 22.654,31.057 22.877,31.144 C22.735,31.179 22.048,31.127 21.815,31.079 L21.815,31.079 ZM25.366,29.284 C24.836,29.307 24.575,29.100 24.233,28.790 C24.097,29.100 23.997,29.710 24.075,29.890 C23.745,29.654 23.539,29.448 23.397,29.148 C23.110,29.612 22.906,29.916 22.796,30.267 C22.641,29.809 22.641,29.277 22.606,29.113 C22.496,29.577 22.390,29.983 22.190,30.186 C21.928,29.832 21.983,29.284 21.928,29.148 C21.735,29.797 21.605,29.861 20.937,29.748 C21.628,29.371 21.712,28.707 21.270,28.001 C21.657,28.436 21.764,28.794 21.764,29.049 C21.957,28.823 22.035,28.630 22.083,28.565 C22.112,28.993 22.135,29.277 22.241,29.368 C22.441,29.126 22.519,28.800 22.590,28.607 C22.748,28.790 22.903,29.255 22.884,29.503 C23.038,29.206 23.345,28.965 23.481,28.907 C23.616,29.206 23.758,29.396 23.862,29.441 C23.939,28.942 24.052,28.594 24.152,28.387 C24.410,28.742 24.736,28.930 24.888,28.926 C24.630,28.578 25.550,26.863 24.129,26.370 C25.979,26.647 24.546,29.100 25.366,29.284 L25.366,29.284 ZM24.475,27.063 C24.701,27.547 24.646,28.281 24.601,28.565 C24.465,28.407 24.165,28.075 24.058,28.037 C23.974,28.281 23.868,28.529 23.716,28.736 C23.690,28.565 23.526,27.988 23.368,27.653 C23.384,27.682 23.668,28.037 23.774,28.223 C23.868,28.037 23.904,27.859 23.894,27.634 C24.152,27.759 24.233,27.894 24.436,28.117 C24.494,28.001 24.510,27.405 24.475,27.063 L24.475,27.063 ZM22.535,26.682 C22.548,26.599 22.496,26.515 22.112,26.215 C22.383,26.080 22.725,26.157 23.368,26.441 C23.174,26.051 22.441,25.863 22.206,25.745 C23.797,26.109 23.952,26.699 24.159,27.288 C23.974,27.082 23.581,26.770 22.884,26.544 C23.038,26.711 23.068,26.928 23.097,27.195 C22.806,27.027 22.254,26.928 21.570,26.750 C21.770,26.599 22.122,26.570 22.535,26.682 L22.535,26.682 ZM34.535,14.163 C34.129,15.017 32.589,15.604 31.576,15.875 C32.166,15.604 33.673,14.949 33.909,14.443 C33.396,14.363 32.202,14.656 31.456,14.882 C32.331,14.443 33.531,13.899 34.535,14.163 L34.535,14.163 ZM32.424,20.087 C31.976,20.010 31.004,19.755 30.236,19.475 L30.355,19.201 C31.056,19.497 32.066,19.875 32.424,20.087 L32.424,20.087 ZM30.462,14.051 C31.056,13.873 32.466,13.083 32.747,12.832 C32.554,13.161 31.269,14.002 30.543,14.337 L30.462,14.051 ZM30.636,18.060 C31.385,18.166 32.441,18.254 32.854,18.386 C32.412,18.431 31.385,18.431 30.591,18.353 L30.636,18.060 ZM30.643,15.382 C31.246,15.275 32.918,14.840 33.267,14.734 C32.918,14.982 31.482,15.452 30.704,15.665 L30.643,15.382 ZM30.772,16.765 C31.534,16.700 32.767,16.641 33.186,16.664 C32.767,16.800 31.598,16.955 30.804,17.061 L30.772,16.765 ZM33.974,12.090 C33.703,12.996 32.360,13.899 31.385,14.308 C31.924,13.957 33.238,12.996 33.402,12.454 C32.879,12.448 31.740,12.909 31.033,13.232 C31.827,12.674 32.960,11.985 33.974,12.090 L33.974,12.090 ZM33.567,9.480 C33.644,11.146 31.847,12.213 30.869,12.773 C31.711,12.155 32.802,11.245 33.073,10.292 C32.696,10.759 31.114,11.665 30.514,11.906 C31.789,11.101 33.402,9.679 33.567,9.480 L33.567,9.480 ZM32.412,11.072 C32.282,11.430 30.898,12.454 30.236,12.913 L30.184,12.625 C30.727,12.368 32.176,11.381 32.412,11.072 L32.412,11.072 ZM32.589,6.579 C33.144,8.316 31.292,10.188 30.420,11.030 C31.133,10.163 32.305,8.638 32.311,7.578 C32.053,8.161 30.407,9.779 29.849,10.192 C30.949,9.028 32.489,6.849 32.589,6.579 L32.589,6.579 ZM31.521,9.028 C31.446,9.408 30.314,10.795 29.752,11.365 L29.636,11.094 C30.130,10.717 31.346,9.370 31.521,9.028 L31.521,9.028 ZM27.654,12.990 C27.967,12.754 28.651,12.000 28.845,11.559 C28.793,12.161 27.896,13.048 27.754,13.145 C27.602,13.251 27.506,13.138 27.654,12.990 L27.654,12.990 ZM27.441,14.492 C27.441,14.492 28.487,13.902 28.574,13.863 C28.674,13.793 28.768,13.902 28.674,13.973 C28.574,14.034 27.631,14.550 27.531,14.621 C27.425,14.679 27.347,14.544 27.441,14.492 L27.441,14.492 ZM27.189,18.856 C27.054,18.815 27.160,18.666 27.263,18.721 C27.263,18.721 28.090,19.150 28.196,19.191 C28.303,19.237 28.251,19.385 28.148,19.333 C28.048,19.298 27.318,18.927 27.189,18.856 L27.189,18.856 ZM27.370,20.397 C27.299,20.326 26.670,19.679 26.563,19.579 C26.482,19.491 26.618,19.391 26.692,19.475 C26.692,19.475 27.396,20.197 27.477,20.280 C27.547,20.368 27.441,20.481 27.370,20.397 L27.370,20.397 ZM27.570,17.960 C27.431,17.947 27.477,17.782 27.589,17.809 C27.589,17.809 28.522,17.947 28.638,17.960 C28.745,17.973 28.745,18.131 28.638,18.115 C28.522,18.096 27.706,17.973 27.570,17.960 L27.570,17.960 ZM27.761,16.723 C27.761,16.723 28.703,16.723 28.810,16.719 C28.929,16.719 28.958,16.858 28.845,16.858 C28.729,16.871 27.896,16.871 27.761,16.884 C27.625,16.893 27.641,16.723 27.761,16.723 L27.761,16.723 ZM27.738,15.717 C27.612,15.768 27.577,15.604 27.702,15.575 C27.702,15.575 28.596,15.304 28.703,15.262 C28.810,15.223 28.874,15.369 28.768,15.398 C28.661,15.446 27.867,15.675 27.738,15.717 L27.738,15.717 ZM24.943,15.552 C24.759,15.446 24.888,15.382 24.953,15.288 C25.014,15.191 26.205,13.950 26.447,13.892 C26.121,14.137 25.136,15.340 25.136,15.382 C25.136,15.417 25.120,15.659 24.943,15.552 L24.943,15.552 ZM24.923,18.927 C25.059,18.773 25.356,19.363 25.343,19.491 C25.324,19.614 24.878,18.979 24.923,18.927 L24.923,18.927 ZM23.887,19.285 C24.052,19.185 24.152,19.839 24.097,19.956 C24.046,20.068 23.816,19.321 23.887,19.285 L23.887,19.285 ZM22.826,19.214 C23.019,19.201 22.803,19.826 22.696,19.904 C22.590,19.984 22.748,19.214 22.826,19.214 L22.826,19.214 ZM22.206,16.854 C22.496,16.800 22.906,16.564 23.074,16.452 C23.239,16.800 22.913,17.541 22.206,17.603 C22.519,17.425 22.826,17.235 22.906,16.729 C22.706,16.835 22.364,16.935 22.206,16.854 L22.206,16.854 ZM22.086,19.685 C22.135,19.491 22.464,19.079 22.477,19.063 C22.335,19.298 22.135,19.720 22.254,19.891 C22.390,20.062 22.554,20.381 22.554,20.368 C22.554,20.368 22.906,20.220 23.097,20.169 C23.297,20.116 23.419,19.656 23.448,19.333 C23.432,19.579 23.426,20.062 23.616,20.169 C23.797,20.252 24.097,20.474 24.097,20.452 C24.081,20.452 24.339,20.191 24.488,20.062 C24.652,19.926 24.565,19.468 24.475,19.166 C24.594,19.427 24.781,19.881 24.982,19.881 C25.195,19.891 25.572,19.981 25.556,19.981 C25.556,19.981 25.666,19.614 25.743,19.443 C25.834,19.269 25.579,18.879 25.379,18.637 C25.579,18.856 25.950,19.243 26.179,19.166 C26.415,19.108 26.828,19.030 26.812,19.037 C26.805,19.050 26.799,18.650 26.805,18.408 C26.828,18.173 26.392,17.873 26.034,17.712 C26.315,17.782 26.854,17.845 26.989,17.647 C27.128,17.441 27.399,17.135 27.396,17.141 C27.396,17.141 27.128,16.835 26.976,16.648 C26.854,16.452 26.315,16.506 26.005,16.587 C26.334,16.487 26.870,16.313 26.889,16.094 C26.912,15.858 27.028,15.446 27.028,15.452 C27.028,15.468 26.641,15.317 26.440,15.198 C26.227,15.092 25.772,15.382 25.527,15.575 C26.482,14.856 27.289,13.667 27.354,12.568 L27.376,12.620 C27.296,13.544 26.976,14.334 26.386,14.962 C26.486,14.985 26.663,15.047 26.718,15.092 C26.753,15.120 27.299,15.359 27.299,15.346 C27.299,15.327 27.147,15.729 27.128,15.968 C27.112,16.229 27.012,16.322 26.799,16.429 C27.041,16.394 27.112,16.481 27.247,16.693 C27.376,16.893 27.654,17.212 27.654,17.196 C27.654,17.184 27.341,17.467 27.196,17.670 C27.060,17.873 26.925,17.918 26.718,17.918 C26.925,18.118 26.989,18.173 26.963,18.450 C26.957,18.714 26.957,19.191 26.957,19.191 C26.976,19.185 26.576,19.201 26.363,19.269 C26.150,19.333 26.092,19.385 25.872,19.243 C25.969,19.427 25.927,19.497 25.843,19.668 C25.763,19.826 25.663,20.174 25.663,20.174 C25.685,20.174 25.330,20.039 25.120,20.039 C24.923,20.039 24.814,20.017 24.707,19.855 C24.736,20.087 24.601,20.145 24.475,20.275 C24.339,20.387 24.110,20.687 24.129,20.687 C24.133,20.687 23.839,20.426 23.661,20.381 C23.474,20.326 23.426,20.252 23.397,20.068 C23.332,20.280 23.161,20.326 22.990,20.381 C22.806,20.423 22.496,20.588 22.496,20.603 C22.499,20.610 22.341,20.239 22.206,20.120 C22.083,20.010 22.035,19.881 22.086,19.685 L22.086,19.685 ZM25.601,16.158 C25.485,15.994 26.173,15.846 26.292,15.900 C26.421,15.952 25.630,16.229 25.601,16.158 L25.601,16.158 ZM26.618,17.141 C26.728,17.235 25.798,17.271 25.772,17.196 C25.708,17.006 26.486,17.061 26.618,17.141 L26.618,17.141 ZM26.234,18.608 C26.286,18.759 25.556,18.309 25.579,18.244 C25.630,18.002 26.198,18.459 26.234,18.608 L26.234,18.608 ZM26.256,21.174 C26.205,21.093 25.843,20.410 25.792,20.316 C25.714,20.220 25.850,20.139 25.901,20.226 C25.901,20.226 26.315,20.980 26.392,21.093 C26.447,21.174 26.315,21.258 26.256,21.174 L26.256,21.174 ZM24.901,21.641 C24.859,21.535 24.675,20.722 24.646,20.603 C24.601,20.462 24.772,20.446 24.794,20.558 C24.794,20.558 25.007,21.480 25.036,21.586 C25.065,21.693 24.923,21.751 24.901,21.641 L24.901,21.641 ZM23.732,21.758 C23.745,21.883 23.587,21.912 23.587,21.783 C23.581,21.677 23.581,20.851 23.561,20.722 C23.555,20.581 23.723,20.603 23.723,20.716 C23.723,20.716 23.732,21.664 23.732,21.758 L23.732,21.758 ZM22.577,20.851 C22.577,20.851 22.312,21.751 22.290,21.870 C22.277,21.977 22.112,21.954 22.148,21.854 C22.154,21.748 22.396,20.952 22.435,20.810 C22.448,20.668 22.606,20.745 22.577,20.851 L22.577,20.851 ZM24.772,24.954 C23.887,24.474 24.058,24.178 24.188,23.066 C24.239,23.701 24.152,24.143 24.752,24.527 C25.243,24.236 25.188,23.895 25.256,23.131 C25.343,24.085 25.556,24.413 24.772,24.954 L24.772,24.954 ZM24.594,22.812 L24.888,22.859 C24.836,23.595 24.759,23.794 24.675,24.197 C24.601,23.765 24.575,23.623 24.594,22.812 L24.594,22.812 ZM26.976,25.074 C26.127,24.778 26.034,24.233 25.914,23.143 C26.098,23.736 26.386,24.577 26.857,24.671 C27.196,24.426 27.070,23.736 26.976,22.972 C27.270,23.895 27.531,24.497 26.976,25.074 L26.976,25.074 ZM26.179,22.702 L26.482,22.676 C26.563,23.414 26.770,23.878 26.753,24.291 C26.611,23.878 26.315,23.488 26.179,22.702 L26.179,22.702 ZM29.039,24.584 C28.148,24.504 27.925,23.878 27.538,22.844 C27.867,23.382 28.351,24.143 28.822,24.127 C29.087,23.820 28.874,23.172 28.574,22.459 C29.094,23.272 29.423,23.878 29.039,24.584 L29.039,24.584 ZM28.625,23.794 C28.380,23.443 27.925,22.908 27.577,22.182 L27.861,22.070 C28.145,22.760 28.532,23.388 28.625,23.794 L28.625,23.794 ZM30.920,23.514 C30.042,23.701 29.778,23.011 29.087,22.157 C29.558,22.560 30.107,23.308 30.569,23.131 C30.720,22.753 30.259,22.182 29.778,21.593 C30.533,22.192 31.056,22.705 30.920,23.514 L30.920,23.514 ZM30.301,22.866 C29.942,22.602 29.310,22.057 28.758,21.470 L28.987,21.287 C29.478,21.857 30.078,22.505 30.301,22.866 L30.301,22.866 ZM29.365,19.679 C29.287,19.926 28.880,20.169 28.309,20.174 C28.354,20.474 28.309,20.800 28.132,21.235 C27.919,21.393 27.477,21.313 27.060,21.145 C27.041,21.435 26.976,21.648 26.799,21.934 C26.482,22.070 26.173,21.934 25.843,21.728 C25.821,22.083 25.501,22.270 25.278,22.505 C24.717,22.483 24.536,22.299 24.359,22.005 C24.288,22.189 24.217,22.424 23.787,22.653 C23.290,22.547 23.126,22.389 22.913,22.028 C22.625,22.518 22.390,22.647 21.951,22.589 L21.948,22.440 C22.328,22.547 22.706,22.212 22.984,21.512 C23.074,21.999 23.203,22.296 23.745,22.470 C24.046,22.354 24.265,22.182 24.275,21.435 C24.459,22.018 24.717,22.264 25.220,22.325 C25.792,21.870 25.685,21.564 25.530,21.000 C25.814,21.499 25.969,21.777 26.663,21.751 C27.012,21.258 26.854,20.929 26.641,20.387 C27.060,21.016 27.289,21.207 27.980,21.071 C28.274,20.304 28.090,20.045 27.731,19.685 C28.274,20.003 28.574,20.145 29.158,19.604 C29.139,19.037 28.952,18.827 28.274,18.608 C28.880,18.792 29.274,18.856 29.700,18.244 C29.529,17.596 29.265,17.483 28.596,17.454 C29.287,17.506 29.716,17.412 30.130,16.800 C29.613,15.875 29.342,15.994 28.738,16.071 C29.629,15.875 29.965,15.640 30.107,14.849 C29.416,14.305 29.016,14.544 28.303,14.898 C29.394,14.269 29.907,13.590 29.849,13.083 C29.236,12.712 28.148,13.489 27.677,13.802 C29.371,12.568 29.223,11.536 29.194,10.717 C29.523,11.720 29.287,12.242 28.903,12.868 C29.103,12.773 29.907,12.712 30.055,12.938 C30.220,13.161 29.971,13.838 29.423,14.334 C29.658,14.279 30.230,14.544 30.326,14.769 C30.420,14.985 30.130,15.533 29.778,15.939 C29.965,16.107 30.201,16.352 30.355,16.723 C30.255,17.093 29.920,17.370 29.607,17.519 C29.742,17.670 29.836,17.983 29.907,18.279 C29.849,18.415 29.713,18.666 29.194,18.895 C29.265,19.021 29.365,19.372 29.365,19.679 L29.365,19.679 ZM29.871,20.345 C30.491,20.758 31.240,21.287 31.553,21.564 C31.140,21.406 30.401,21.000 29.700,20.588 L29.871,20.345 ZM32.360,22.057 C31.534,22.431 30.940,21.964 30.094,21.258 C30.643,21.564 31.492,22.028 31.895,21.758 C31.976,21.364 31.363,20.851 30.749,20.387 C31.621,20.832 32.337,21.258 32.360,22.057 L32.360,22.057 ZM33.396,20.387 C32.495,20.832 31.847,20.558 30.907,20.039 C31.521,20.220 32.412,20.410 32.918,20.197 C32.589,19.797 32.011,19.468 31.321,19.136 C32.253,19.391 32.944,19.468 33.396,20.387 L33.396,20.387 ZM34.022,18.337 C33.322,19.050 32.424,19.021 31.363,18.815 C31.989,18.795 33.080,18.737 33.502,18.379 C33.073,18.089 32.166,17.889 31.385,17.789 C32.360,17.738 33.231,17.702 34.022,18.337 L34.022,18.337 ZM34.429,16.513 C33.780,17.193 32.466,17.441 31.417,17.377 C32.040,17.299 33.402,16.990 33.809,16.593 C33.344,16.343 32.402,16.352 31.634,16.335 C32.589,16.194 33.557,15.965 34.429,16.513 L34.429,16.513 ZM27.128,29.226 L28.567,29.184 L28.622,27.817 C27.967,27.817 27.354,28.565 27.128,29.226 L27.128,29.226 ZM2.737,22.218 C3.014,22.225 3.350,22.192 3.295,21.922 C3.250,21.651 3.031,21.628 3.031,21.493 C3.273,20.987 3.502,20.632 3.072,19.868 C2.982,20.062 2.595,20.668 2.466,20.081 C2.630,19.855 2.288,19.839 2.301,19.727 C2.324,19.833 2.004,19.855 2.159,20.074 L2.004,20.062 C2.046,19.679 1.698,19.733 1.617,19.611 C1.597,19.781 1.281,19.910 1.510,20.216 L1.381,20.297 C1.391,20.039 1.104,20.181 1.062,20.081 C1.139,20.169 0.849,20.368 1.120,20.474 C1.297,21.045 0.649,20.729 0.477,20.603 C0.507,21.486 0.884,21.664 1.355,21.970 C1.420,22.083 1.239,22.218 1.346,22.476 C1.439,22.737 1.746,22.589 1.969,22.440 C2.004,22.334 2.133,22.199 2.301,22.157 C2.475,22.099 2.659,22.147 2.737,22.218 L2.737,22.218 ZM2.646,21.547 C2.772,21.535 2.853,21.586 2.953,21.557 C3.102,21.906 2.404,22.312 2.572,21.728 C2.611,21.683 2.624,21.584 2.646,21.547 L2.646,21.547 ZM2.375,20.546 C2.395,20.458 2.524,20.391 2.601,20.397 C2.653,20.523 2.537,21.058 2.366,20.887 C2.346,20.803 2.366,20.568 2.375,20.546 L2.375,20.546 ZM1.788,20.233 C1.946,20.174 2.440,19.984 1.923,20.668 C1.110,20.368 1.617,20.280 1.788,20.233 L1.788,20.233 ZM1.178,20.800 C1.239,20.745 1.384,20.758 1.449,20.823 C1.462,20.829 1.591,21.035 1.610,21.116 C1.539,21.342 1.178,20.923 1.178,20.800 L1.178,20.800 ZM1.462,21.922 C1.552,21.922 1.617,21.822 1.727,21.786 C1.759,21.812 1.823,21.899 1.875,21.922 C2.275,22.376 1.468,22.299 1.462,21.922 L1.462,21.922 ZM1.688,21.181 L2.337,21.000 C2.482,21.371 2.553,21.622 2.240,21.883 C1.810,21.841 1.746,21.586 1.688,21.181 L1.688,21.181 ZM2.301,21.074 L1.759,21.235 C1.804,21.570 1.869,21.783 2.217,21.812 C2.482,21.593 2.424,21.380 2.301,21.074 L2.301,21.074 ZM19.766,20.622 L19.688,20.574 C19.688,20.603 19.540,20.638 19.482,20.632 L19.517,20.764 C19.624,20.745 19.717,20.680 19.766,20.622 L19.766,20.622 Z"/>
</svg>