<svg xmlns="http://www.w3.org/2000/svg" viewBox="0 0 454 481.6">
	<g id="Слой_2" data-name="Слой 2">
		<g id="Capa_1" data-name="Capa 1">
			<path fill="#ffffff" d="M367.8,309.4A86.18,86.18,0,0,0,299.6,343L167.3,269.1a86.38,86.38,0,0,0,4.8-28.4,84.49,84.49,0,0,0-4.9-28.5l132.2-73.8a86,86,0,1,0-17.8-52.3,84.07,84.07,0,0,0,4.9,28.5L154.4,188.4a86,86,0,1,0,.2,104.5l132.2,73.9a86.06,86.06,0,1,0,81-57.4Zm0-282.3a59.1,59.1,0,1,1-59.1,59.1A59.15,59.15,0,0,1,367.8,27.1ZM86.2,299.8a59.1,59.1,0,1,1,59.1-59.1A59.15,59.15,0,0,1,86.2,299.8ZM367.8,454.5a59.1,59.1,0,1,1,59.1-59.1A59.15,59.15,0,0,1,367.8,454.5Z"/>
		</g>
	</g>
</svg>